{
.appVersion = "3189";
.formatVersion = 3;
axes = (
{
name = Weight;
tag = wght;
}
);
customParameters = (
{
name = fsType;
value = (
);
},
{
name = "Use Typo Metrics";
value = 1;
},
{
name = "Axis Mappings";
value = {
wght = {
300 = 300;
400 = 400;
500 = 500;
600 = 600;
700 = 700;
800 = 800;
900 = 900;
};
};
}
);
date = "2019-06-17 09:32:53 +0000";
familyName = "Darker Grotesque";
featurePrefixes = (
{
automatic = 1;
code = "languagesystem DFLT dflt;

languagesystem latn dflt;
languagesystem latn AZE;
languagesystem latn CRT;
languagesystem latn KAZ;
languagesystem latn TAT;
languagesystem latn TRK;
languagesystem latn ROM;
languagesystem latn MOL;
";
name = Languagesystems;
}
);
features = (
{
automatic = 1;
code = "feature locl;
feature subs;
feature sinf;
feature sups;
feature numr;
feature dnom;
feature frac;
feature ordn;
feature case;
feature ss01;
";
tag = aalt;
},
{
code = "lookup ccmp_DFLT_1 {
	lookupflag 0;
	sub brevecomb acutecomb by brevecomb_acutecomb;
	sub brevecomb gravecomb by brevecomb_gravecomb;
	sub brevecomb hookabovecomb by brevecomb_hookabovecomb;
	sub brevecomb tildecomb by brevecomb_tildecomb;
	sub circumflexcomb acutecomb by circumflexcomb_acutecomb;
	sub circumflexcomb gravecomb by circumflexcomb_gravecomb;
	sub circumflexcomb hookabovecomb by circumflexcomb_hookabovecomb;
	sub circumflexcomb tildecomb by circumflexcomb_tildecomb;
} ccmp_DFLT_1;

lookup ccmp_Other_1 {
	@CombiningTopAccents = [acutecomb brevecomb caroncomb circumflexcomb commaturnedabovecomb dieresiscomb dotaccentcomb gravecomb hookabovecomb hungarumlautcomb macroncomb ringcomb tildecomb];
	@CombiningNonTopAccents = [cedillacomb dotbelowcomb ogonekcomb horncomb];
	sub [i j]' @CombiningTopAccents by [idotless jdotless];
	sub [i j]' @CombiningNonTopAccents @CombiningTopAccents by [idotless jdotless];
	@SoftDotted = [i j];
	@SoftDottedDotless = [idotless jdotless idotless jdotless];
	sub idotbelow' @CombiningTopAccents by idotless dotbelowcomb;

glyphs = (
{
glyphname = A;
kernLeft = A;
kernRight = A;
lastChange = "2023-04-13 12:22:50 +0000";
layers = (
{
anchors = (
{
name = bottom;
pos = (258,0);
},
{
name = ogonek;
pos = (464,10);
},
{
name = top;
pos = (258,563);
}
);
background = {
shapes = (
{
closed = 1;
nodes = (
(498,0,l),
(280,563,l),
(254,563,l),
(259,550,l),
(470,0,l)
);
},
{
closed = 1;
nodes = (
(46,0,l),
(259,550,l),
(264,563,l),
(236,563,l),
(20,0,l)
);
},
{
closed = 1;
nodes = (
(402,194,l),
(391,221,l),
(126,221,l),
(115,194,l)
);
}
);
};
guides = (
{
pos = (291,194);
},
{
pos = (266,256);
}
);
layerId = "D86F237C-A043-4FD6-9305-0CC5F899F330";
shapes = (
{
closed = 1;
nodes = (
(46,0,l),
(259,550,l),
(470,0,l),
(498,0,l),
(280,563,l),
(236,563,l),
(20,0,l)
);
},
{
closed = 1;
nodes = (
(402,194,l),
(391,221,l),
(126,221,l),
(115,194,l)
);
}
);
width = 516;
},
{
anchors = (
{
name = bottom;
pos = (296,0);
},
{
name = ogonek;
pos = (549,0);
},
{
name = top;
pos = (296,563);
}
);
background = {
shapes = (
{
closed = 1;
nodes = (
(577,0,l),
(409,563,l),
(180,563,l),
(297,505,l),
(428,0,l)
);
},
{
closed = 1;
nodes = (
(168,0,l),
(297,505,l),
(409,563,l),
(180,563,l),
(18,0,l)
);
},
{
closed = 1;
nodes = (
(439,141,l),
(443,247,l),
(148,247,l),
(153,141,l)
);
}
);
};
guides = (
{
pos = (330,505);
},
{
pos = (308,563);
}
);
layerId = "F5474A38-5AEA-454E-84E5-A62166EBBEA7";
shapes = (
{
closed = 1;
nodes = (
(168,0,l),
(297,505,l),
(428,0,l),
(577,0,l),
(409,563,l),
(180,563,l),
(18,0,l)
);
},
{
closed = 1;
nodes = (
(439,141,l),
(443,247,l),
(148,247,l),
(153,141,l)
);
}
);
width = 591;
}
);
unicode = 65;
},
{
glyphname = Aacute;
kernLeft = A;
kernRight = A;
lastChange = "2023-04-06 13:31:22 +0000";
layers = (
{
background = {
shapes = (
{
closed = 1;
nodes = (
(498,0,l),
(280,563,l),
(254,563,l),
(259,550,l),
(470,0,l)
);
},
{
closed = 1;
nodes = (
(46,0,l),
(259,550,l),
(264,563,l),
(236,563,l),
(20,0,l)
);
},
{
closed = 1;
nodes = (
(402,194,l),
(391,221,l),
(126,221,l),
(115,194,l)
);
},
{
closed = 1;
nodes = (
(339,711,l),
(339,722,l),
(309,722,l),
(252,616,l),
(252,610,l),
(268,610,l)
);
}
);
};
guides = (
{
angle = 90;
pos = (259,437);
},
{
pos = (363,563);
},
{
pos = (365,617);
}
);
layerId = "D86F237C-A043-4FD6-9305-0CC5F899F330";
shapes = (
{
ref = A;
},
{
pos = (211,159);
ref = acutecomb;
}
);
width = 516;
},
{
background = {
shapes = (
{
closed = 1;
nodes = (
(577,0,l),
(409,563,l),
(180,563,l),
(297,505,l),
(428,0,l)
);
},
{
closed = 1;
nodes = (
(168,0,l),
(297,505,l),
(409,563,l),
(180,563,l),
(18,0,l)
);
},
{
closed = 1;
nodes = (
(439,141,l),
(443,247,l),
(148,247,l),
(153,141,l)
);
},
{
closed = 1;
nodes = (
(413,702,l),
(413,724,l),
(298,724,l),
(259,627,l),
(259,610,l),
(321,610,l)
);
}
);
};
guides = (
{
angle = 90;
pos = (242,579);
},
{
pos = (365,626);
},
{
pos = (365,563);
},
{
angle = 90;
pos = (297,579);
},
{
angle = 90;
pos = (179,579);
}
);
layerId = "F5474A38-5AEA-454E-84E5-A62166EBBEA7";
shapes = (
{
ref = A;
},
{
pos = (233,149);
ref = acutecomb;
}
);
width = 591;
}
);
unicode = 193;
},
{
glyphname = Abreve;
kernLeft = A;
kernRight = A;
lastChange = "2023-04-06 13:30:59 +0000";
layers = (
{
background = {
shapes = (
{
closed = 1;
nodes = (
(498,0,l),
(280,563,l),
(254,563,l),
(259,550,l),
(470,0,l)
);
},
{
closed = 1;
nodes = (
(46,0,l),
(259,550,l),
(264,563,l),
(236,563,l),
(20,0,l)
);
},
{
closed = 1;
nodes = (
(402,194,l),
(391,221,l),
(126,221,l),
(115,194,l)
);
},
{
closed = 1;
nodes = (
(320,619,o),
(359,650,o),
(359,695,c),
(336,695,l),
(336,650,o),
(300,644,o),
(257,644,cs),
(214,644,o),
(177,650,o),
(177,695,c),
(155,695,l),
(155,650,o),
(195,619,o),
(258,619,cs)
);
}
);
};
guides = (
{
angle = 90;
pos = (259,437);
},
{
pos = (363,563);
},
{
pos = (365,617);
}
);
layerId = "D86F237C-A043-4FD6-9305-0CC5F899F330";
shapes = (
{
ref = A;
},
{
pos = (103,159);
ref = brevecomb;
}
);
width = 516;
},
{
background = {
shapes = (
{
closed = 1;
nodes = (
(577,0,l),
(409,563,l),
(180,563,l),
(297,505,l),
(428,0,l)
);
},
{
closed = 1;
nodes = (
(168,0,l),
(297,505,l),
(409,563,l),
(180,563,l),
(18,0,l)
);
},
{
closed = 1;
nodes = (
(439,141,l),
(443,247,l),
(148,247,l),
(153,141,l)
);
},
{
closed = 1;
nodes = (
(393,625,o),
(444,671,o),
(444,744,c),
(347,744,l),
(347,709,o),
(328,698,o),
(298,698,cs),
(269,698,o),
(248,711,o),
(248,744,c),
(151,744,l),
(151,670,o),
(205,625,o),
(298,625,cs)
);
}
);
};
guides = (
{
angle = 90;
pos = (297,579);
},
{
pos = (365,626);
},
{
pos = (365,563);
}
);
layerId = "F5474A38-5AEA-454E-84E5-A62166EBBEA7";
shapes = (
{
ref = A;
},
{
pos = (95,149);
ref = brevecomb;
}
);
width = 591;
}
);
unicode = 258;
},
{
glyphname = Abreveacute;
kernLeft = A;
kernRight = A;
lastChange = "2023-04-06 13:24:03 +0000";
layers = (
{
background = {
shapes = (
{
closed = 1;
nodes = (
(498,0,l),
(280,563,l),
(254,563,l),
(259,550,l),
(470,0,l)
);
},
{
closed = 1;
nodes = (
(46,0,l),
(259,550,l),
(264,563,l),
(236,563,l),
(20,0,l)
);
},
{
closed = 1;
nodes = (
(402,194,l),
(391,221,l),
(126,221,l),
(115,194,l)
);
},
{
closed = 1;
nodes = (
(320,619,o),
(359,650,o),
(359,695,c),
(336,695,l),
(336,650,o),
(300,644,o),
(257,644,cs),
(214,644,o),
(177,650,o),
(177,695,c),
(155,695,l),
(155,650,o),
(195,619,o),
(258,619,cs)
);
},
{
closed = 1;
nodes = (
(337,807,l),
(337,818,l),
(307,818,l),
(250,712,l),
(250,706,l),
(266,706,l)
);
}
);
};
layerId = "D86F237C-A043-4FD6-9305-0CC5F899F330";
shapes = (
{
ref = A;
},
{
pos = (103,159);
ref = brevecomb_acutecomb;
}
);
width = 516;
},
{
background = {
shapes = (
{
closed = 1;
nodes = (
(577,0,l),
(409,563,l),
(180,563,l),
(297,505,l),
(428,0,l)
);
},
{
closed = 1;
nodes = (
(168,0,l),
(297,505,l),
(409,563,l),
(180,563,l),
(18,0,l)
);
},
{
closed = 1;
nodes = (
(439,141,l),
(443,247,l),
(148,247,l),
(153,141,l)
);
},
{
closed = 1;
nodes = (
(393,625,o),
(444,671,o),
(444,744,c),
(347,744,l),
(347,709,o),
(328,698,o),
(298,698,cs),
(269,698,o),
(248,711,o),
(248,744,c),
(151,744,l),
(151,670,o),
(205,625,o),
(298,625,cs)
);
},
{
closed = 1;
nodes = (
(418,858,l),
(418,880,l),
(303,880,l),
(264,783,l),
(264,766,l),
(326,766,l)
);
}
);
};
guides = (
{
angle = 90;
pos = (297,579);
},
{
pos = (365,626);
},
{
pos = (365,563);
}
);
layerId = "F5474A38-5AEA-454E-84E5-A62166EBBEA7";
shapes = (
{
ref = A;
},
{
pos = (95,149);
ref = brevecomb_acutecomb;
}
);
width = 591;
}
);
unicode = 7854;
},
{
glyphname = Abrevedotbelow;
kernLeft = A;
kernRight = A;
lastChange = "2023-04-06 13:30:59 +0000";
layers = (
{
background = {
shapes = (
{
closed = 1;
nodes = (
(498,0,l),
(280,563,l),
(254,563,l),
(259,550,l),
(470,0,l)
);
},
{
closed = 1;
nodes = (
(46,0,l),
(259,550,l),
(264,563,l),
(236,563,l),
(20,0,l)
);
},
{
closed = 1;
nodes = (
(402,194,l),
(391,221,l),
(126,221,l),
(115,194,l)
);
},
{
closed = 1;
nodes = (
(282,-123,o),
(287,-110,o),
(287,-95,c),
(287,-81,o),
(282,-68,o),
(260,-68,c),
(238,-68,o),
(232,-81,o),
(232,-95,c),
(232,-110,o),
(238,-123,o),
(260,-123,c)
);
},
{
closed = 1;
nodes = (
(320,620,o),
(359,651,o),
(359,696,c),
(336,696,l),
(336,651,o),
(300,645,o),
(257,645,cs),
(214,645,o),
(177,651,o),
(177,696,c),
(155,696,l),
(155,651,o),
(195,620,o),
(258,620,cs)
);
}
);
};
guides = (
{
angle = 90;
pos = (259,120);
}
);
layerId = "D86F237C-A043-4FD6-9305-0CC5F899F330";
shapes = (
{
ref = A;
},
{
pos = (185,0);
ref = dotbelowcomb;
},
{
pos = (103,159);
ref = brevecomb;
}
);
width = 516;
},
{
background = {
shapes = (
{
closed = 1;
nodes = (
(577,0,l),
(409,563,l),
(180,563,l),
(297,505,l),
(428,0,l)
);
},
{
closed = 1;
nodes = (
(168,0,l),
(297,505,l),
(409,563,l),
(180,563,l),
(18,0,l)
);
},
{
closed = 1;
nodes = (
(439,141,l),
(443,247,l),
(148,247,l),
(153,141,l)
);
},
{
closed = 1;
nodes = (
(341,-200,o),
(353,-170,o),
(353,-134,c),
(353,-100,o),
(341,-70,o),
(289,-70,c),
(237,-70,o),
(223,-100,o),
(223,-134,c),
(223,-170,o),
(237,-200,o),
(289,-200,c)
);
},
{
closed = 1;
nodes = (
(393,625,o),
(444,671,o),
(444,744,c),
(347,744,l),
(347,709,o),
(328,698,o),
(298,698,cs),
(269,698,o),
(248,711,o),
(248,744,c),
(151,744,l),
(151,670,o),
(205,625,o),
(298,625,cs)
);
}
);
};
guides = (
{
angle = 90;
pos = (297,579);
}
);
layerId = "F5474A38-5AEA-454E-84E5-A62166EBBEA7";
shapes = (
{
ref = A;
},
{
pos = (186,0);
ref = dotbelowcomb;
},
{
pos = (95,149);
ref = brevecomb;
}
);
width = 591;
}
);
unicode = 7862;
},
{
glyphname = Abrevegrave;
kernLeft = A;
kernRight = A;
lastChange = "2023-04-06 13:24:03 +0000";
layers = (
{
background = {
shapes = (
{
closed = 1;
nodes = (
(498,0,l),
(280,563,l),
(254,563,l),
(259,550,l),
(470,0,l)
);
},
{
closed = 1;
nodes = (
(46,0,l),
(259,550,l),
(264,563,l),
(236,563,l),
(20,0,l)
);
},
{
closed = 1;
nodes = (
(402,194,l),
(391,221,l),
(126,221,l),
(115,194,l)
);
},
{
closed = 1;
nodes = (
(320,620,o),
(359,651,o),
(359,696,c),
(336,696,l),
(336,651,o),
(300,645,o),
(257,645,cs),
(214,645,o),
(177,651,o),
(177,696,c),
(155,696,l),
(155,651,o),
(195,620,o),
(258,620,cs)
);
},
{
closed = 1;
nodes = (
(254,707,l),
(254,713,l),
(197,819,l),
(167,819,l),
(167,808,l),
(238,707,l)
);
}
);
};
layerId = "D86F237C-A043-4FD6-9305-0CC5F899F330";
shapes = (
{
ref = A;
},
{
pos = (103,159);
ref = brevecomb_gravecomb;
}
);
width = 516;
},
{
background = {
shapes = (
{
closed = 1;
nodes = (
(577,0,l),
(409,563,l),
(180,563,l),
(297,505,l),
(428,0,l)
);
},
{
closed = 1;
nodes = (
(168,0,l),
(297,505,l),
(409,563,l),
(180,563,l),
(18,0,l)
);
},
{
closed = 1;
nodes = (
(439,141,l),
(443,247,l),
(148,247,l),
(153,141,l)
);
},
{
closed = 1;
nodes = (
(393,625,o),
(444,671,o),
(444,744,c),
(347,744,l),
(347,709,o),
(328,698,o),
(298,698,cs),
(269,698,o),
(248,711,o),
(248,744,c),
(151,744,l),
(151,670,o),
(205,625,o),
(298,625,cs)
);
},
{
closed = 1;
nodes = (
(330,766,l),
(330,783,l),
(291,880,l),
(176,880,l),
(176,858,l),
(268,766,l)
);
}
);
};
layerId = "F5474A38-5AEA-454E-84E5-A62166EBBEA7";
shapes = (
{
ref = A;
},
{
pos = (63,149);
ref = brevecomb_gravecomb;
}
);
width = 591;
}
);
unicode = 7856;
},
{
glyphname = Abrevehookabove;
kernLeft = A;
kernRight = A;
lastChange = "2023-04-06 13:24:03 +0000";
layers = (
{
background = {
shapes = (
{
closed = 1;
nodes = (
(498,0,l),
(280,563,l),
(254,563,l),
(259,550,l),
(470,0,l)
);
},
{
closed = 1;
nodes = (
(46,0,l),
(259,550,l),
(264,563,l),
(236,563,l),
(20,0,l)
);
},
{
closed = 1;
nodes = (
(402,194,l),
(391,221,l),
(126,221,l),
(115,194,l)
);
},
{
closed = 1;
nodes = (
(320,620,o),
(359,651,o),
(359,696,c),
(336,696,l),
(336,651,o),
(300,645,o),
(257,645,cs),
(214,645,o),
(177,651,o),
(177,696,c),
(155,696,l),
(155,651,o),
(195,620,o),
(258,620,cs)
);
},
{
closed = 1;
nodes = (
(269,703,l),
(269,730,o),
(320,736,o),
(320,782,cs),
(320,843,o),
(222,846,o),
(205,782,c),
(227,776,l),
(242,822,o),
(297,813,o),
(297,779,cs),
(297,746,o),
(248,737,o),
(242,709,c),
(242,703,l)
);
}
);
};
layerId = "D86F237C-A043-4FD6-9305-0CC5F899F330";
shapes = (
{
ref = A;
},
{
pos = (103,159);
ref = brevecomb_hookabovecomb;
}
);
width = 516;
},
{
background = {
shapes = (
{
closed = 1;
nodes = (
(577,0,l),
(409,563,l),
(180,563,l),
(297,505,l),
(428,0,l)
);
},
{
closed = 1;
nodes = (
(168,0,l),
(297,505,l),
(409,563,l),
(180,563,l),
(18,0,l)
);
},
{
closed = 1;
nodes = (
(439,141,l),
(443,247,l),
(148,247,l),
(153,141,l)
);
},
{
closed = 1;
nodes = (
(392,625,o),
(443,671,o),
(443,744,c),
(346,744,l),
(346,709,o),
(327,698,o),
(297,698,cs),
(268,698,o),
(247,711,o),
(247,744,c),
(150,744,l),
(150,670,o),
(204,625,o),
(297,625,cs)
);
},
{
closed = 1;
nodes = (
(343,764,l),
(358,794,o),
(408,804,o),
(408,870,cs),
(408,987,o),
(228,992,o),
(199,890,c),
(251,853,l),
(266,885,o),
(326,886,o),
(326,855,cs),
(326,818,o),
(271,810,o),
(258,784,c),
(258,764,l)
);
}
);
};
layerId = "F5474A38-5AEA-454E-84E5-A62166EBBEA7";
shapes = (
{
ref = A;
},
{
pos = (95,149);
ref = brevecomb_hookabovecomb;
}
);
width = 591;
}
);
unicode = 7858;
},
{
glyphname = Abrevetilde;
kernLeft = A;
kernRight = A;
lastChange = "2023-04-06 13:24:03 +0000";
layers = (
{
background = {
shapes = (
{
closed = 1;
nodes = (
(498,0,l),
(280,563,l),
(254,563,l),
(259,550,l),
(470,0,l)
);
},
{
closed = 1;
nodes = (
(46,0,l),
(259,550,l),
(264,563,l),
(236,563,l),
(20,0,l)
);
},
{
closed = 1;
nodes = (
(402,194,l),
(391,221,l),
(126,221,l),
(115,194,l)
);
},
{
closed = 1;
nodes = (
(319,620,o),
(358,651,o),
(358,696,c),
(335,696,l),
(335,651,o),
(299,645,o),
(256,645,cs),
(213,645,o),
(176,651,o),
(176,696,c),
(154,696,l),
(154,651,o),
(194,620,o),
(257,620,cs)
);
},
{
closed = 1;
nodes = (
(253,750,o),
(307,750,cs),
(347,750,o),
(360,780,o),
(357,824,c),
(332,824,l),
(332,789,o),
(331,770,o),
(307,770,cs),
(268,770,o),
(265,823,o),
(210,823,cs),
(169,823,o),
(158,794,o),
(160,750,c),
(185,750,l),
(184,783,o),
(187,803,o),
(210,803,cs),
(247,803,o)
);
}
);
};
layerId = "D86F237C-A043-4FD6-9305-0CC5F899F330";
shapes = (
{
ref = A;
},
{
pos = (79,159);
ref = brevecomb_tildecomb;
}
);
width = 516;
},
{
background = {
shapes = (
{
closed = 1;
nodes = (
(577,0,l),
(409,563,l),
(180,563,l),
(297,505,l),
(428,0,l)
);
},
{
closed = 1;
nodes = (
(168,0,l),
(297,505,l),
(409,563,l),
(180,563,l),
(18,0,l)
);
},
{
closed = 1;
nodes = (
(439,141,l),
(443,247,l),
(148,247,l),
(153,141,l)
);
},
{
closed = 1;
nodes = (
(393,625,o),
(444,671,o),
(444,744,c),
(347,744,l),
(347,709,o),
(328,698,o),
(298,698,cs),
(269,698,o),
(248,711,o),
(248,744,c),
(151,744,l),
(151,670,o),
(205,625,o),
(298,625,cs)
);
},
{
closed = 1;
nodes = (
(278,793,o),
(354,793,cs),
(444,793,o),
(444,876,o),
(444,926,c),
(366,926,l),
(366,892,o),
(366,872,o),
(346,872,cs),
(313,872,o),
(309,930,o),
(235,930,cs),
(137,930,o),
(145,829,o),
(145,798,c),
(223,798,l),
(223,832,o),
(223,851,o),
(244,851,cs),
(280,851,o)
);
}
);
};
layerId = "F5474A38-5AEA-454E-84E5-A62166EBBEA7";
shapes = (
{
ref = A;
},
{
pos = (99,149);
ref = brevecomb_tildecomb;
}
);
width = 591;
}
);
unicode = 7860;
},
{
glyphname = Acircumflex;
kernLeft = A;
kernRight = A;
lastChange = "2023-04-06 13:31:48 +0000";
layers = (
{
background = {
shapes = (
{
closed = 1;
nodes = (
(498,0,l),
(280,563,l),
(254,563,l),
(259,550,l),
(470,0,l)
);
},
{
closed = 1;
nodes = (
(46,0,l),
(259,550,l),
(264,563,l),
(236,563,l),
(20,0,l)
);
},
{
closed = 1;
nodes = (
(402,194,l),
(391,221,l),
(126,221,l),
(115,194,l)
);
},
{
closed = 1;
nodes = (
(183,623,l),
(258,705,l),
(260,705,l),
(336,623,l),
(367,623,l),
(367,629,l),
(266,727,l),
(252,727,l),
(152,629,l),
(152,623,l)
);
}
);
};
guides = (
{
angle = 90;
pos = (259,437);
},
{
pos = (365,601);
},
{
pos = (363,563);
}
);
layerId = "D86F237C-A043-4FD6-9305-0CC5F899F330";
shapes = (
{
ref = A;
},
{
pos = (65,159);
ref = circumflexcomb;
}
);
width = 516;
},
{
background = {
shapes = (
{
closed = 1;
nodes = (
(577,0,l),
(409,563,l),
(180,563,l),
(297,505,l),
(428,0,l)
);
},
{
closed = 1;
nodes = (
(168,0,l),
(297,505,l),
(409,563,l),
(180,563,l),
(18,0,l)
);
},
{
closed = 1;
nodes = (
(439,141,l),
(443,247,l),
(148,247,l),
(153,141,l)
);
},
{
closed = 1;
nodes = (
(265,617,l),
(294,653,l),
(300,653,l),
(332,617,l),
(452,617,l),
(452,627,l),
(326,741,l),
(268,741,l),
(141,627,l),
(141,617,l)
);
}
);
};
guides = (
{
angle = 90;
pos = (297,563);
},
{
pos = (365,626);
},
{
pos = (365,563);
}
);
layerId = "F5474A38-5AEA-454E-84E5-A62166EBBEA7";
shapes = (
{
ref = A;
},
{
pos = (51,149);
ref = circumflexcomb;
}
);
width = 591;
}
);
unicode = 194;
},
{
glyphname = Acircumflexacute;
kernLeft = A;
kernRight = A;
lastChange = "2023-04-06 13:32:39 +0000";
layers = (
{
background = {
shapes = (
{
closed = 1;
nodes = (
(498,0,l),
(280,563,l),
(254,563,l),
(259,550,l),
(470,0,l)
);
},
{
closed = 1;
nodes = (
(46,0,l),
(259,550,l),
(264,563,l),
(236,563,l),
(20,0,l)
);
},
{
closed = 1;
nodes = (
(402,194,l),
(391,221,l),
(126,221,l),
(115,194,l)
);
},
{
closed = 1;
nodes = (
(183,601,l),
(258,683,l),
(260,683,l),
(336,601,l),
(367,601,l),
(367,607,l),
(266,705,l),
(252,705,l),
(152,607,l),
(152,601,l)
);
},
{
closed = 1;
nodes = (
(450,785,l),
(450,796,l),
(420,796,l),
(363,690,l),
(363,684,l),
(379,684,l)
);
}
);
};
layerId = "D86F237C-A043-4FD6-9305-0CC5F899F330";
shapes = (
{
ref = A;
},
{
pos = (66,159);
ref = circumflexcomb_acutecomb;
}
);
width = 516;
},
{
background = {
shapes = (
{
closed = 1;
nodes = (
(577,0,l),
(409,563,l),
(180,563,l),
(297,505,l),
(428,0,l)
);
},
{
closed = 1;
nodes = (
(168,0,l),
(297,505,l),
(409,563,l),
(180,563,l),
(18,0,l)
);
},
{
closed = 1;
nodes = (
(439,141,l),
(443,247,l),
(148,247,l),
(153,141,l)
);
},
{
closed = 1;
nodes = (
(265,617,l),
(294,653,l),
(300,653,l),
(332,617,l),
(452,617,l),
(452,627,l),
(326,741,l),
(268,741,l),
(141,627,l),
(141,617,l)
);
},
{
closed = 1;
nodes = (
(546,809,l),
(546,831,l),
(431,831,l),
(392,734,l),
(392,717,l),
(454,717,l)
);
}
);
};
guides = (
{
angle = 90;
pos = (297,579);
},
{
pos = (365,607);
},
{
pos = (365,563);
}
);
layerId = "F5474A38-5AEA-454E-84E5-A62166EBBEA7";
shapes = (
{
ref = A;
},
{
pos = (79,149);
ref = circumflexcomb_acutecomb;
}
);
width = 591;
}
);
unicode = 7844;
},
{
glyphname = Acircumflexdotbelow;
kernLeft = A;
kernRight = A;
lastChange = "2023-04-06 13:31:48 +0000";
layers = (
{
background = {
shapes = (
{
closed = 1;
nodes = (
(498,0,l),
(280,563,l),
(254,563,l),
(259,550,l),
(470,0,l)
);
},
{
closed = 1;
nodes = (
(46,0,l),
(259,550,l),
(264,563,l),
(236,563,l),
(20,0,l)
);
},
{
closed = 1;
nodes = (
(402,194,l),
(391,221,l),
(126,221,l),
(115,194,l)
);
},
{
closed = 1;
nodes = (
(270,-123,o),
(275,-110,o),
(275,-95,c),
(275,-81,o),
(270,-68,o),
(248,-68,c),
(226,-68,o),
(220,-81,o),
(220,-95,c),
(220,-110,o),
(226,-123,o),
(248,-123,c)
);
},
{
closed = 1;
nodes = (
(183,614,l),
(258,696,l),
(260,696,l),
(336,614,l),
(367,614,l),
(367,620,l),
(266,718,l),
(252,718,l),
(152,620,l),
(152,614,l)
);
}
);
};
guides = (
{
angle = 90;
pos = (259,540);
}
);
layerId = "D86F237C-A043-4FD6-9305-0CC5F899F330";
shapes = (
{
ref = A;
},
{
pos = (185,0);
ref = dotbelowcomb;
},
{
pos = (65,159);
ref = circumflexcomb;
}
);
width = 516;
},
{
background = {
shapes = (
{
closed = 1;
nodes = (
(577,0,l),
(409,563,l),
(180,563,l),
(297,505,l),
(428,0,l)
);
},
{
closed = 1;
nodes = (
(168,0,l),
(297,505,l),
(409,563,l),
(180,563,l),
(18,0,l)
);
},
{
closed = 1;
nodes = (
(439,141,l),
(443,247,l),
(148,247,l),
(153,141,l)
);
},
{
closed = 1;
nodes = (
(341,-200,o),
(353,-170,o),
(353,-134,c),
(353,-100,o),
(341,-70,o),
(289,-70,c),
(237,-70,o),
(223,-100,o),
(223,-134,c),
(223,-170,o),
(237,-200,o),
(289,-200,c)
);
},
{
closed = 1;
nodes = (
(265,617,l),
(294,653,l),
(300,653,l),
(332,617,l),
(452,617,l),
(452,627,l),
(326,741,l),
(268,741,l),
(141,627,l),
(141,617,l)
);
}
);
};
layerId = "F5474A38-5AEA-454E-84E5-A62166EBBEA7";
shapes = (
{
ref = A;
},
{
pos = (186,0);
ref = dotbelowcomb;
},
{
pos = (51,149);
ref = circumflexcomb;
}
);
width = 591;
}
);
unicode = 7852;
},
{
glyphname = Acircumflexgrave;
kernLeft = A;
kernRight = A;
lastChange = "2023-04-06 14:10:27 +0000";
layers = (
{
background = {
shapes = (
{
closed = 1;
nodes = (
(498,0,l),
(280,563,l),
(254,563,l),
(259,550,l),
(470,0,l)
);
},
{
closed = 1;
nodes = (
(46,0,l),
(259,550,l),
(264,563,l),
(236,563,l),
(20,0,l)
);
},
{
closed = 1;
nodes = (
(402,194,l),
(391,221,l),
(126,221,l),
(115,194,l)
);
},
{
closed = 1;
nodes = (
(152,685,l),
(152,691,l),
(95,797,l),
(65,797,l),
(65,786,l),
(136,685,l)
);
},
{
closed = 1;
nodes = (
(183,601,l),
(258,683,l),
(260,683,l),
(336,601,l),
(367,601,l),
(367,607,l),
(266,705,l),
(252,705,l),
(152,607,l),
(152,601,l)
);
}
);
};
layerId = "D86F237C-A043-4FD6-9305-0CC5F899F330";
shapes = (
{
ref = A;
},
{
pos = (93,159);
ref = circumflexcomb_gravecomb;
}
);
width = 516;
},
{
background = {
shapes = (
{
closed = 1;
nodes = (
(577,0,l),
(409,563,l),
(180,563,l),
(297,505,l),
(428,0,l)
);
},
{
closed = 1;
nodes = (
(168,0,l),
(297,505,l),
(409,563,l),
(180,563,l),
(18,0,l)
);
},
{
closed = 1;
nodes = (
(439,141,l),
(443,247,l),
(148,247,l),
(153,141,l)
);
},
{
closed = 1;
nodes = (
(183,716,l),
(183,733,l),
(144,830,l),
(29,830,l),
(29,808,l),
(121,716,l)
);
},
{
closed = 1;
nodes = (
(265,617,l),
(294,653,l),
(300,653,l),
(332,617,l),
(452,617,l),
(452,627,l),
(326,741,l),
(268,741,l),
(141,627,l),
(141,617,l)
);
}
);
};
guides = (
{
pos = (294,756);
}
);
layerId = "F5474A38-5AEA-454E-84E5-A62166EBBEA7";
shapes = (
{
ref = A;
},
{
pos = (90,149);
ref = circumflexcomb_gravecomb;
}
);
width = 591;
}
);
unicode = 7846;
},
{
glyphname = Acircumflexhookabove;
kernLeft = A;
kernRight = A;
lastChange = "2023-04-06 13:35:45 +0000";
layers = (
{
background = {
shapes = (
{
closed = 1;
nodes = (
(498,0,l),
(280,563,l),
(254,563,l),
(259,550,l),
(470,0,l)
);
},
{
closed = 1;
nodes = (
(46,0,l),
(259,550,l),
(264,563,l),
(236,563,l),
(20,0,l)
);
},
{
closed = 1;
nodes = (
(402,194,l),
(391,221,l),
(126,221,l),
(115,194,l)
);
},
{
closed = 1;
nodes = (
(183,614,l),
(258,696,l),
(260,696,l),
(336,614,l),
(367,614,l),
(367,620,l),
(266,718,l),
(252,718,l),
(152,620,l),
(152,614,l)
);
},
{
closed = 1;
nodes = (
(378,695,l),
(378,722,o),
(429,728,o),
(429,774,cs),
(429,835,o),
(331,838,o),
(314,774,c),
(336,768,l),
(351,814,o),
(406,805,o),
(406,771,cs),
(406,738,o),
(357,729,o),
(351,701,c),
(351,695,l)
);
}
);
};
layerId = "D86F237C-A043-4FD6-9305-0CC5F899F330";
shapes = (
{
ref = A;
},
{
pos = (93,159);
ref = circumflexcomb_hookabovecomb;
}
);
width = 516;
},
{
background = {
shapes = (
{
closed = 1;
nodes = (
(577,0,l),
(409,563,l),
(180,563,l),
(297,505,l),
(428,0,l)
);
},
{
closed = 1;
nodes = (
(168,0,l),
(297,505,l),
(409,563,l),
(180,563,l),
(18,0,l)
);
},
{
closed = 1;
nodes = (
(439,141,l),
(443,247,l),
(148,247,l),
(153,141,l)
);
},
{
closed = 1;
nodes = (
(265,617,l),
(294,653,l),
(300,653,l),
(332,617,l),
(452,617,l),
(452,627,l),
(326,741,l),
(268,741,l),
(141,627,l),
(141,617,l)
);
},
{
closed = 1;
nodes = (
(468,716,l),
(483,746,o),
(533,756,o),
(533,822,cs),
(533,939,o),
(353,944,o),
(324,842,c),
(376,805,l),
(391,837,o),
(451,838,o),
(451,807,cs),
(451,770,o),
(396,762,o),
(383,736,c),
(383,716,l)
);
}
);
};
guides = (
{
angle = 90;
pos = (297,563);
}
);
layerId = "F5474A38-5AEA-454E-84E5-A62166EBBEA7";
shapes = (
{
ref = A;
},
{
pos = (27,149);
ref = circumflexcomb_hookabovecomb;
}
);
width = 591;
}
);
unicode = 7848;
},
{
glyphname = Acircumflextilde;
kernLeft = A;
kernRight = A;
lastChange = "2023-04-06 13:37:29 +0000";
layers = (
{
background = {
shapes = (
{
closed = 1;
nodes = (
(498,0,l),
(280,563,l),
(254,563,l),
(259,550,l),
(470,0,l)
);
},
{
closed = 1;
nodes = (
(46,0,l),
(259,550,l),
(264,563,l),
(236,563,l),
(20,0,l)
);
},
{
closed = 1;
nodes = (
(402,194,l),
(391,221,l),
(126,221,l),
(115,194,l)
);
},
{
closed = 1;
nodes = (
(183,614,l),
(258,696,l),
(260,696,l),
(336,614,l),
(367,614,l),
(367,620,l),
(266,718,l),
(252,718,l),
(152,620,l),
(152,614,l)
);
},
{
closed = 1;
nodes = (
(253,769,o),
(307,769,cs),
(347,769,o),
(360,799,o),
(357,843,c),
(332,843,l),
(332,808,o),
(331,789,o),
(307,789,cs),
(268,789,o),
(265,842,o),
(210,842,cs),
(169,842,o),
(158,813,o),
(160,769,c),
(185,769,l),
(184,802,o),
(187,822,o),
(210,822,cs),
(247,822,o)
);
}
);
};
layerId = "D86F237C-A043-4FD6-9305-0CC5F899F330";
shapes = (
{
ref = A;
},
{
pos = (76,159);
ref = circumflexcomb_tildecomb;
}
);
width = 516;
},
{
background = {
shapes = (
{
closed = 1;
nodes = (
(577,0,l),
(409,563,l),
(180,563,l),
(297,505,l),
(428,0,l)
);
},
{
closed = 1;
nodes = (
(168,0,l),
(297,505,l),
(409,563,l),
(180,563,l),
(18,0,l)
);
},
{
closed = 1;
nodes = (
(439,141,l),
(443,247,l),
(148,247,l),
(153,141,l)
);
},
{
closed = 1;
nodes = (
(265,617,l),
(294,653,l),
(300,653,l),
(332,617,l),
(452,617,l),
(452,627,l),
(326,741,l),
(268,741,l),
(141,627,l),
(141,617,l)
);
},
{
closed = 1;
nodes = (
(274,765,o),
(350,765,cs),
(440,765,o),
(440,848,o),
(440,898,c),
(362,898,l),
(362,864,o),
(362,844,o),
(342,844,cs),
(309,844,o),
(305,902,o),
(231,902,cs),
(133,902,o),
(141,801,o),
(141,770,c),
(219,770,l),
(219,804,o),
(219,823,o),
(240,823,cs),
(276,823,o)
);
}
);
};
layerId = "F5474A38-5AEA-454E-84E5-A62166EBBEA7";
shapes = (
{
ref = A;
},
{
pos = (52,149);
ref = circumflexcomb_tildecomb;
}
);
width = 591;
}
);
unicode = 7850;
},
{
glyphname = Adieresis;
kernLeft = A;
kernRight = A;
lastChange = "2023-04-06 13:28:58 +0000";
layers = (
{
background = {
shapes = (
{
closed = 1;
nodes = (
(498,0,l),
(280,563,l),
(254,563,l),
(259,550,l),
(470,0,l)
);
},
{
closed = 1;
nodes = (
(46,0,l),
(259,550,l),
(264,563,l),
(236,563,l),
(20,0,l)
);
},
{
closed = 1;
nodes = (
(402,194,l),
(391,221,l),
(126,221,l),
(115,194,l)
);
},
{
closed = 1;
nodes = (
(221,620,o),
(227,636,o),
(227,654,c),
(227,671,o),
(221,687,o),
(194,687,c),
(167,687,o),
(160,671,o),
(160,654,c),
(160,636,o),
(167,620,o),
(194,620,c)
);
},
{
closed = 1;
nodes = (
(353,620,o),
(359,636,o),
(359,654,c),
(359,671,o),
(353,687,o),
(326,687,c),
(299,687,o),
(292,671,o),
(292,654,c),
(292,636,o),
(299,620,o),
(326,620,c)
);
}
);
};
guides = (
{
angle = 90;
pos = (259,437);
},
{
pos = (363,563);
},
{
pos = (365,617);
}
);
layerId = "D86F237C-A043-4FD6-9305-0CC5F899F330";
shapes = (
{
ref = A;
},
{
pos = (113,159);
ref = dieresiscomb;
}
);
width = 516;
},
{
background = {
shapes = (
{
closed = 1;
nodes = (
(577,0,l),
(409,563,l),
(180,563,l),
(297,505,l),
(428,0,l)
);
},
{
closed = 1;
nodes = (
(168,0,l),
(297,505,l),
(409,563,l),
(180,563,l),
(18,0,l)
);
},
{
closed = 1;
nodes = (
(439,141,l),
(443,247,l),
(148,247,l),
(153,141,l)
);
},
{
closed = 1;
nodes = (
(255,625,o),
(269,660,o),
(269,701,c),
(269,740,o),
(255,775,o),
(195,775,c),
(135,775,o),
(119,740,o),
(119,701,c),
(119,660,o),
(135,625,o),
(195,625,c)
);
},
{
closed = 1;
nodes = (
(461,625,o),
(475,660,o),
(475,701,c),
(475,740,o),
(461,775,o),
(401,775,c),
(341,775,o),
(325,740,o),
(325,701,c),
(325,660,o),
(341,625,o),
(401,625,c)
);
}
);
};
guides = (
{
pos = (365,626);
},
{
pos = (365,563);
},
{
angle = 90;
pos = (297,579);
}
);
layerId = "F5474A38-5AEA-454E-84E5-A62166EBBEA7";
shapes = (
{
ref = A;
},
{
pos = (73,149);
ref = dieresiscomb;
}
);
width = 591;
}
);
unicode = 196;
},
{
glyphname = Adotbelow;
kernLeft = A;
kernRight = A;
lastChange = "2023-04-06 13:28:22 +0000";
layers = (
{
background = {
shapes = (
{
closed = 1;
nodes = (
(498,0,l),
(280,563,l),
(254,563,l),
(259,550,l),
(470,0,l)
);
},
{
closed = 1;
nodes = (
(46,0,l),
(259,550,l),
(264,563,l),
(236,563,l),
(20,0,l)
);
},
{
closed = 1;
nodes = (
(402,194,l),
(391,221,l),
(126,221,l),
(115,194,l)
);
},
{
closed = 1;
nodes = (
(270,-123,o),
(275,-110,o),
(275,-95,c),
(275,-81,o),
(270,-68,o),
(248,-68,c),
(226,-68,o),
(220,-81,o),
(220,-95,c),
(220,-110,o),
(226,-123,o),
(248,-123,c)
);
}
);
};
layerId = "D86F237C-A043-4FD6-9305-0CC5F899F330";
shapes = (
{
ref = A;
},
{
pos = (185,0);
ref = dotbelowcomb;
}
);
width = 516;
},
{
background = {
shapes = (
{
closed = 1;
nodes = (
(577,0,l),
(409,563,l),
(180,563,l),
(297,505,l),
(428,0,l)
);
},
{
closed = 1;
nodes = (
(168,0,l),
(297,505,l),
(409,563,l),
(180,563,l),
(18,0,l)
);
},
{
closed = 1;
nodes = (
(439,141,l),
(443,247,l),
(148,247,l),
(153,141,l)
);
},
{
closed = 1;
nodes = (
(341,-200,o),
(353,-170,o),
(353,-134,c),
(353,-100,o),
(341,-70,o),
(289,-70,c),
(237,-70,o),
(223,-100,o),
(223,-134,c),
(223,-170,o),
(237,-200,o),
(289,-200,c)
);
}
);
};
layerId = "F5474A38-5AEA-454E-84E5-A62166EBBEA7";
shapes = (
{
ref = A;
},
{
pos = (186,0);
ref = dotbelowcomb;
}
);
width = 591;
}
);
unicode = 7840;
},
{
glyphname = Agrave;
kernLeft = A;
kernRight = A;
lastChange = "2023-04-06 13:27:59 +0000";
layers = (
{
background = {
shapes = (
{
closed = 1;
nodes = (
(498,0,l),
(280,563,l),
(254,563,l),
(259,550,l),
(470,0,l)
);
},
{
closed = 1;
nodes = (
(46,0,l),
(259,550,l),
(264,563,l),
(236,563,l),
(20,0,l)
);
},
{
closed = 1;
nodes = (
(402,194,l),
(391,221,l),
(126,221,l),
(115,194,l)
);
},
{
closed = 1;
nodes = (
(256,610,l),
(256,616,l),
(199,722,l),
(169,722,l),
(169,711,l),
(240,610,l)
);
}
);
};
guides = (
{
angle = 90;
pos = (259,437);
},
{
pos = (365,617);
},
{
pos = (363,563);
}
);
layerId = "D86F237C-A043-4FD6-9305-0CC5F899F330";
shapes = (
{
ref = A;
},
{
pos = (153,159);
ref = gravecomb;
}
);
width = 516;
},
{
background = {
shapes = (
{
closed = 1;
nodes = (
(577,0,l),
(409,563,l),
(180,563,l),
(297,505,l),
(428,0,l)
);
},
{
closed = 1;
nodes = (
(168,0,l),
(297,505,l),
(409,563,l),
(180,563,l),
(18,0,l)
);
},
{
closed = 1;
nodes = (
(439,141,l),
(443,247,l),
(148,247,l),
(153,141,l)
);
},
{
closed = 1;
nodes = (
(330,610,l),
(330,627,l),
(291,724,l),
(176,724,l),
(176,702,l),
(268,610,l)
);
}
);
};
guides = (
{
angle = 90;
pos = (297,579);
},
{
pos = (365,626);
},
{
pos = (365,563);
},
{
angle = 90;
pos = (409,579);
},
{
angle = 90;
pos = (346,579);
},
{
pos = (365,626);
},
{
pos = (365,563);
}
);
layerId = "F5474A38-5AEA-454E-84E5-A62166EBBEA7";
shapes = (
{
ref = A;
},
{
pos = (135,149);
ref = gravecomb;
}
);
width = 591;
}
);
unicode = 192;
},
{
glyphname = Ahookabove;
kernLeft = A;
kernRight = A;
lastChange = "2023-04-13 13:31:27 +0000";
layers = (
{
background = {
shapes = (
{
closed = 1;
nodes = (
(498,0,l),
(280,563,l),
(254,563,l),
(259,550,l),
(470,0,l)
);
},
{
closed = 1;
nodes = (
(46,0,l),
(259,550,l),
(264,563,l),
(236,563,l),
(20,0,l)
);
},
{
closed = 1;
nodes = (
(402,194,l),
(391,221,l),
(126,221,l),
(115,194,l)
);
},
{
closed = 1;
nodes = (
(272,617,l),
(272,644,o),
(323,650,o),
(323,696,cs),
(323,757,o),
(225,760,o),
(208,696,c),
(230,690,l),
(245,736,o),
(300,727,o),
(300,693,cs),
(300,660,o),
(251,651,o),
(245,623,c),
(245,617,l)
);
}
);
};
guides = (
{
pos = (365,617);
},
{
pos = (363,563);
}
);
layerId = "D86F237C-A043-4FD6-9305-0CC5F899F330";
shapes = (
{
ref = A;
},
{
pos = (172,159);
ref = hookabovecomb;
}
);
width = 516;
},
{
background = {
shapes = (
{
closed = 1;
nodes = (
(577,0,l),
(409,563,l),
(180,563,l),
(297,505,l),
(428,0,l)
);
},
{
closed = 1;
nodes = (
(168,0,l),
(297,505,l),
(409,563,l),
(180,563,l),
(18,0,l)
);
},
{
closed = 1;
nodes = (
(439,141,l),
(443,247,l),
(148,247,l),
(153,141,l)
);
},
{
closed = 1;
nodes = (
(341,620,l),
(356,650,o),
(406,660,o),
(406,726,cs),
(406,843,o),
(226,848,o),
(197,746,c),
(249,709,l),
(264,741,o),
(324,742,o),
(324,711,cs),
(324,674,o),
(269,666,o),
(256,640,c),
(256,620,l)
);
}
);
};
guides = (
{
pos = (365,626);
}
);
layerId = "F5474A38-5AEA-454E-84E5-A62166EBBEA7";
shapes = (
{
ref = A;
},
{
pos = (146,149);
ref = hookabovecomb;
}
);
width = 591;
}
);
unicode = 7842;
},
{
glyphname = Amacron;
kernLeft = A;
kernRight = A;
lastChange = "2023-04-06 14:26:35 +0000";
layers = (
{
background = {
shapes = (
{
closed = 1;
nodes = (
(498,0,l),
(280,563,l),
(254,563,l),
(259,550,l),
(470,0,l)
);
},
{
closed = 1;
nodes = (
(46,0,l),
(259,550,l),
(264,563,l),
(236,563,l),
(20,0,l)
);
},
{
closed = 1;
nodes = (
(402,194,l),
(391,221,l),
(126,221,l),
(115,194,l)
);
},
{
closed = 1;
nodes = (
(370,617,l),
(370,643,l),
(148,643,l),
(148,617,l)
);
}
);
};
guides = (
{
pos = (363,563);
},
{
pos = (370,617);
}
);
layerId = "D86F237C-A043-4FD6-9305-0CC5F899F330";
shapes = (
{
ref = A;
},
{
pos = (107,159);
ref = macroncomb;
}
);
width = 516;
},
{
background = {
shapes = (
{
closed = 1;
nodes = (
(577,0,l),
(409,563,l),
(180,563,l),
(297,505,l),
(428,0,l)
);
},
{
closed = 1;
nodes = (
(168,0,l),
(297,505,l),
(409,563,l),
(180,563,l),
(18,0,l)
);
},
{
closed = 1;
nodes = (
(439,141,l),
(443,247,l),
(148,247,l),
(153,141,l)
);
},
{
closed = 1;
nodes = (
(449,626,l),
(449,720,l),
(147,720,l),
(147,626,l)
);
}
);
};
guides = (
{
angle = 90;
pos = (297,579);
},
{
pos = (365,626);
}
);
layerId = "F5474A38-5AEA-454E-84E5-A62166EBBEA7";
shapes = (
{
ref = A;
},
{
pos = (105,149);
ref = macroncomb;
}
);
width = 591;
}
);
unicode = 256;
},
{
glyphname = Aogonek;
kernLeft = A;
kernRight = A;
lastChange = "2023-04-13 12:22:50 +0000";
layers = (
{
background = {
shapes = (
{
closed = 1;
nodes = (
(498,-198,o),
(520,-155,o),
(520,-155,c),
(498,-140,l),
(498,-140,o),
(489,-174,o),
(448,-174,c),
(414,-174,o),
(396,-152,o),
(396,-123,c),
(396,-49,o),
(498,0,o),
(498,0,c),
(493,13,l),
(493,13,o),
(372,-37,o),
(372,-123,c),
(372,-165,o),
(399,-198,o),
(448,-198,c)
);
},
{
closed = 1;
nodes = (
(498,0,l),
(280,563,l),
(254,563,l),
(259,550,l),
(470,0,l)
);
},
{
closed = 1;
nodes = (
(46,0,l),
(259,550,l),
(264,563,l),
(236,563,l),
(20,0,l)
);
},
{
closed = 1;
nodes = (
(402,194,l),
(391,221,l),
(126,221,l),
(115,194,l)
);
}
);
};
layerId = "D86F237C-A043-4FD6-9305-0CC5F899F330";
shapes = (
{
closed = 1;
nodes = (
(498,-198,o),
(520,-155,o),
(520,-155,c),
(498,-140,l),
(498,-140,o),
(489,-174,o),
(448,-174,cs),
(414,-174,o),
(396,-152,o),
(396,-123,cs),
(396,-49,o),
(498,0,o),
(498,0,c),
(493,13,l),
(493,13,o),
(372,-37,o),
(372,-123,cs),
(372,-165,o),
(399,-198,o),
(448,-198,cs)
);
},
{
ref = A;
}
);
width = 516;
},
{
background = {
shapes = (
{
closed = 1;
nodes = (
(580,-180,o),
(619,-120,o),
(619,-120,c),
(548,-56,l),
(548,-56,o),
(531,-82,o),
(508,-82,c),
(493,-82,o),
(483,-74,o),
(483,-60,cs),
(483,-21,o),
(577,0,o),
(577,0,c),
(558,62,l),
(558,62,o),
(381,20,o),
(383,-85,c),
(383,-157,o),
(446,-180,o),
(495,-180,c)
);
},
{
closed = 1;
nodes = (
(577,0,l),
(409,563,l),
(180,563,l),
(297,505,l),
(428,0,l)
);
},
{
closed = 1;
nodes = (
(168,0,l),
(297,505,l),
(409,563,l),
(180,563,l),
(18,0,l)
);
},
{
closed = 1;
nodes = (
(439,141,l),
(443,247,l),
(148,247,l),
(153,141,l)
);
}
);
};
layerId = "F5474A38-5AEA-454E-84E5-A62166EBBEA7";
shapes = (
{
closed = 1;
nodes = (
(580,-180,o),
(619,-120,o),
(619,-120,c),
(548,-56,l),
(548,-56,o),
(531,-82,o),
(508,-82,cs),
(493,-82,o),
(483,-74,o),
(483,-60,cs),
(483,-21,o),
(577,0,o),
(577,0,c),
(551,62,l),
(551,62,o),
(383,20,o),
(383,-85,cs),
(383,-157,o),
(446,-180,o),
(495,-180,cs)
);
},
{
ref = A;
}
);
width = 591;
}
);
unicode = 260;
},
{
glyphname = Aring;
kernLeft = A;
kernRight = A;
lastChange = "2023-04-06 13:25:40 +0000";
layers = (
{
background = {
shapes = (
{
closed = 1;
nodes = (
(498,0,l),
(280,563,l),
(254,563,l),
(259,550,l),
(470,0,l)
);
},
{
closed = 1;
nodes = (
(46,0,l),
(259,550,l),
(264,563,l),
(236,563,l),
(20,0,l)
);
},
{
closed = 1;
nodes = (
(402,194,l),
(391,221,l),
(126,221,l),
(115,194,l)
);
},
{
closed = 1;
nodes = (
(308,597,o),
(342,631,o),
(342,678,c),
(342,728,o),
(308,761,o),
(258,761,c),
(207,761,o),
(175,728,o),
(175,678,c),
(175,629,o),
(208,597,o),
(258,597,c)
);
},
{
closed = 1;
nodes = (
(223,616,o),
(195,643,o),
(195,679,c),
(195,714,o),
(219,742,o),
(258,742,c),
(297,742,o),
(320,714,o),
(320,679,c),
(320,644,o),
(297,616,o),
(258,616,c)
);
}
);
};
guides = (
{
pos = (319,596);
},
{
pos = (319,563);
}
);
layerId = "D86F237C-A043-4FD6-9305-0CC5F899F330";
shapes = (
{
ref = A;
},
{
pos = (134,159);
ref = ringcomb;
}
);
width = 516;
},
{
background = {
shapes = (
{
closed = 1;
nodes = (
(577,0,l),
(409,563,l),
(180,563,l),
(297,505,l),
(428,0,l)
);
},
{
closed = 1;
nodes = (
(168,0,l),
(297,505,l),
(409,563,l),
(180,563,l),
(18,0,l)
);
},
{
closed = 1;
nodes = (
(439,141,l),
(443,247,l),
(148,247,l),
(153,141,l)
);
},
{
closed = 1;
nodes = (
(360,615,o),
(396,660,o),
(396,721,c),
(396,787,o),
(360,830,o),
(286,830,c),
(210,830,o),
(179,787,o),
(179,721,c),
(179,657,o),
(211,615,o),
(286,615,c)
);
},
{
closed = 1;
nodes = (
(263,695,o),
(254,707,o),
(254,724,c),
(254,740,o),
(263,755,o),
(284,755,c),
(307,755,o),
(315,741,o),
(315,724,c),
(315,707,o),
(307,695,o),
(284,695,c)
);
}
);
};
guides = (
{
pos = (365,587);
},
{
pos = (365,563);
},
{
pos = (365,621);
}
);
layerId = "F5474A38-5AEA-454E-84E5-A62166EBBEA7";
shapes = (
{
ref = A;
},
{
pos = (157,149);
ref = ringcomb;
}
);
width = 591;
}
);
unicode = 197;
},
{
glyphname = Atilde;
kernLeft = A;
kernRight = A;
lastChange = "2023-04-06 13:25:51 +0000";
layers = (
{
background = {
shapes = (
{
closed = 1;
nodes = (
(498,0,l),
(280,563,l),
(254,563,l),
(259,550,l),
(470,0,l)
);
},
{
closed = 1;
nodes = (
(46,0,l),
(259,550,l),
(264,563,l),
(236,563,l),
(20,0,l)
);
},
{
closed = 1;
nodes = (
(402,194,l),
(391,221,l),
(126,221,l),
(115,194,l)
);
},
{
closed = 1;
nodes = (
(254,618,o),
(308,618,cs),
(348,618,o),
(361,648,o),
(358,692,c),
(333,692,l),
(333,657,o),
(332,638,o),
(308,638,cs),
(269,638,o),
(266,691,o),
(211,691,cs),
(170,691,o),
(159,662,o),
(161,618,c),
(186,618,l),
(185,651,o),
(188,671,o),
(211,671,cs),
(248,671,o)
);
}
);
};
guides = (
{
angle = 90;
pos = (259,437);
},
{
pos = (365,617);
}
);
layerId = "D86F237C-A043-4FD6-9305-0CC5F899F330";
shapes = (
{
ref = A;
},
{
pos = (81,159);
ref = tildecomb;
}
);
width = 516;
},
{
background = {
shapes = (
{
closed = 1;
nodes = (
(577,0,l),
(409,563,l),
(180,563,l),
(297,505,l),
(428,0,l)
);
},
{
closed = 1;
nodes = (
(168,0,l),
(297,505,l),
(409,563,l),
(180,563,l),
(18,0,l)
);
},
{
closed = 1;
nodes = (
(439,141,l),
(443,247,l),
(148,247,l),
(153,141,l)
);
},
{
closed = 1;
nodes = (
(279,621,o),
(355,621,cs),
(445,621,o),
(445,704,o),
(445,754,c),
(367,754,l),
(367,720,o),
(367,700,o),
(347,700,cs),
(314,700,o),
(310,758,o),
(236,758,cs),
(138,758,o),
(146,657,o),
(146,626,c),
(224,626,l),
(224,660,o),
(224,679,o),
(245,679,cs),
(281,679,o)
);
}
);
};
guides = (
{
angle = 90;
pos = (297,579);
},
{
pos = (365,621);
},
{
pos = (365,563);
},
{
pos = (365,820);
},
{
pos = (365,776);
}
);
layerId = "F5474A38-5AEA-454E-84E5-A62166EBBEA7";
shapes = (
{
ref = A;
},
{
pos = (103,149);
ref = tildecomb;
}
);
width = 591;
}
);
unicode = 195;
},
{
glyphname = AE;
kernLeft = A;
kernRight = E;
lastChange = "2023-04-13 13:02:57 +0000";
layers = (
{
anchors = (
{
name = bottom;
pos = (408,0);
},
{
name = top;
pos = (561,563);
}
);
background = {
shapes = (
{
closed = 1;
nodes = (
(781,0,l),
(781,25,l),
(446,25,l),
(446,272,l),
(711,272,l),
(711,298,l),
(446,298,l),
(446,537,l),
(772,537,l),
(772,563,l),
(419,563,l),
(419,0,l)
);
},
{
closed = 1;
nodes = (
(430,194,l),
(430,221,l),
(193,221,l),
(182,194,l)
);
},
{
closed = 1;
nodes = (
(48,0,l),
(436,563,l),
(406,563,l),
(20,0,l)
);
}
);
};
layerId = "D86F237C-A043-4FD6-9305-0CC5F899F330";
shapes = (
{
closed = 1;
nodes = (
(781,0,l),
(781,25,l),
(446,25,l),
(446,272,l),
(711,272,l),
(711,298,l),
(446,298,l),
(446,537,l),
(772,537,l),
(772,563,l),
(419,563,l),
(419,0,l)
);
},
{
closed = 1;
nodes = (
(430,194,l),
(430,221,l),
(193,221,l),
(182,194,l)
);
},
{
closed = 1;
nodes = (
(48,0,l),
(436,563,l),
(406,563,l),
(20,0,l)
);
}
);
width = 816;
},
{
anchors = (
{
name = bottom;
pos = (439,0);
},
{
name = top;
pos = (528,563);
}
);
background = {
shapes = (
{
closed = 1;
nodes = (
(841,0,l),
(841,111,l),
(541,111,l),
(541,229,l),
(756,229,l),
(756,341,l),
(541,341,l),
(541,444,l),
(830,444,l),
(830,563,l),
(404,563,l),
(404,0,l)
);
},
{
closed = 1;
nodes = (
(439,141,l),
(443,247,l),
(148,247,l),
(153,141,l)
);
},
{
closed = 1;
nodes = (
(168,0,l),
(432,563,l),
(300,563,l),
(18,0,l)
);
}
);
};
guides = (
{
pos = (88,505);
},
{
pos = (66,563);
}
);
layerId = "F5474A38-5AEA-454E-84E5-A62166EBBEA7";
shapes = (
{
closed = 1;
nodes = (
(841,0,l),
(841,111,l),
(541,111,l),
(541,229,l),
(756,229,l),
(756,341,l),
(541,341,l),
(541,444,l),
(830,444,l),
(830,563,l),
(404,563,l),
(404,0,l)
);
},
{
closed = 1;
nodes = (
(439,141,l),
(443,247,l),
(148,247,l),
(153,141,l)
);
},
{
closed = 1;
nodes = (
(168,0,l),
(432,563,l),
(300,563,l),
(18,0,l)
);
}
);
width = 877;
}
);
unicode = 198;
},
{
glyphname = B;
lastChange = "2023-04-13 12:22:50 +0000";
layers = (
{
anchors = (
{
name = bottom;
pos = (257,0);
},
{
name = center;
pos = (257,282);
},
{
name = top;
pos = (257,563);
}
);
background = {
shapes = (
{
closed = 1;
nodes = (
(264,0,ls),
(372,0,o),
(478,21,o),
(478,145,cs),
(478,221,o),
(447,288,o),
(307,288,c),
(307,291,l),
(427,292,o),
(455,348,o),
(455,413,cs),
(455,538,o),
(361,563,o),
(248,563,cs),
(65,563,l),
(65,0,l)
);
},
{
closed = 1;
nodes = (
(92,277,l),
(247,277,ls),
(361,277,o),
(450,254,o),
(450,145,cs),
(450,42,o),
(370,25,o),
(264,25,cs),
(92,25,l)
);
},
{
closed = 1;
nodes = (
(92,537,l),
(248,537,ls),
(343,537,o),
(426,526,o),
(426,413,cs),
(426,317,o),
(361,303,o),
(247,303,cs),
(92,303,l)
);
}
);
};
guides = (
{
angle = 90;
pos = (327,125);
},
{
angle = 90;
pos = (250,125);
},
{
angle = 90;
pos = (319,125);
},
{
pos = (192,316);
},
{
pos = (192,290);
}
);
layerId = "D86F237C-A043-4FD6-9305-0CC5F899F330";
shapes = (
{
closed = 1;
nodes = (
(264,0,ls),
(372,0,o),
(478,21,o),
(478,145,cs),
(478,221,o),
(447,288,o),
(307,288,c),
(307,291,l),
(427,292,o),
(455,348,o),
(455,413,cs),
(455,538,o),
(361,563,o),
(248,563,cs),
(65,563,l),
(65,0,l)
);
},
{
closed = 1;
nodes = (
(92,277,l),
(247,277,ls),
(361,277,o),
(450,254,o),
(450,145,cs),
(450,42,o),
(370,25,o),
(264,25,cs),
(92,25,l)
);
},
{
closed = 1;
nodes = (
(92,537,l),
(248,537,ls),
(343,537,o),
(426,526,o),
(426,413,cs),
(426,317,o),
(361,303,o),
(247,303,cs),
(92,303,l)
);
}
);
width = 513;
},
{
anchors = (
{
name = bottom;
pos = (292,0);
},
{
name = center;
pos = (292,282);
},
{
name = top;
pos = (292,563);
}
);
background = {
shapes = (
{
closed = 1;
nodes = (
(293,0,ls),
(377,0,o),
(549,0,o),
(549,154,cs),
(549,227,o),
(510,281,o),
(364,286,c),
(364,290,l),
(491,297,o),
(521,351,o),
(521,415,cs),
(521,563,o),
(359,563,o),
(293,563,cs),
(50,563,l),
(50,0,l)
);
},
{
closed = 1;
nodes = (
(188,238,l),
(280,238,ls),
(345,238,o),
(405,238,o),
(405,175,cs),
(405,111,o),
(344,111,o),
(280,111,cs),
(188,111,l)
);
},
{
closed = 1;
nodes = (
(187,451,l),
(275,451,ls),
(331,451,o),
(384,451,o),
(384,398,cs),
(384,342,o),
(325,342,o),
(275,342,cs),
(187,342,l)
);
}
);
};
guides = (
{
angle = 90;
pos = (454,131);
},
{
angle = 90;
pos = (556,136);
},
{
pos = (239,563);
},
{
pos = (198,334);
},
{
angle = 90;
pos = (124,131);
},
{
angle = 90;
pos = (293,136);
}
);
layerId = "F5474A38-5AEA-454E-84E5-A62166EBBEA7";
shapes = (
{
closed = 1;
nodes = (
(293,0,ls),
(377,0,o),
(549,0,o),
(549,154,cs),
(549,227,o),
(510,281,o),
(364,286,c),
(364,290,l),
(491,297,o),
(521,351,o),
(521,415,cs),
(521,563,o),
(359,563,o),
(293,563,cs),
(50,563,l),
(50,0,l)
);
},
{
closed = 1;
nodes = (
(188,238,l),
(280,238,ls),
(345,238,o),
(405,238,o),
(405,175,cs),
(405,111,o),
(344,111,o),
(280,111,cs),
(188,111,l)
);
},
{
closed = 1;
nodes = (
(187,451,l),
(275,451,ls),
(331,451,o),
(384,451,o),
(384,398,cs),
(384,342,o),
(325,342,o),
(275,342,cs),
(187,342,l)
);
}
);
width = 584;
}
);
unicode = 66;
},
{
glyphname = C;
kernLeft = C;
kernRight = C;
lastChange = "2023-04-13 12:22:50 +0000";
layers = (
{
anchors = (
{
name = bottom;
pos = (295,0);
},
{
name = top;
pos = (295,563);
}
);
background = {
shapes = (
{
closed = 1;
nodes = (
(433,-10,o),
(525,58,o),
(550,190,c),
(521,190,l),
(501,81,o),
(424,14,o),
(297,14,c),
(151,14,o),
(57,105,o),
(57,282,c),
(57,455,o),
(153,549,o),
(301,549,c),
(416,549,o),
(495,484,o),
(517,370,c),
(545,370,l),
(519,506,o),
(424,573,o),
(301,573,c),
(140,573,o),
(30,477,o),
(30,282,c),
(30,90,o),
(144,-10,o),
(297,-10,c)
);
}
);
};
guides = (
{
pos = (266,-14);
}
);
layerId = "D86F237C-A043-4FD6-9305-0CC5F899F330";
shapes = (
{
closed = 1;
nodes = (
(433,-10,o),
(525,58,o),
(550,190,c),
(521,190,l),
(501,81,o),
(424,14,o),
(297,14,c),
(151,14,o),
(57,105,o),
(57,282,c),
(57,455,o),
(153,549,o),
(301,549,c),
(416,549,o),
(495,484,o),
(517,370,c),
(545,370,l),
(519,506,o),
(424,573,o),
(301,573,c),
(140,573,o),
(30,477,o),
(30,282,c),
(30,90,o),
(144,-10,o),
(297,-10,c)
);
}
);
width = 590;
},
{
anchors = (
{
name = bottom;
pos = (304,0);
},
{
name = top;
pos = (304,563);
}
);
background = {
shapes = (
{
closed = 1;
nodes = (
(476,-10,o),
(563,95,o),
(583,214,c),
(438,214,l),
(427,134,o),
(351,121,o),
(305,121,cs),
(199,121,o),
(152,182,o),
(152,288,cs),
(152,384,o),
(202,441,o),
(306,441,cs),
(349,441,o),
(427,432,o),
(437,356,c),
(581,356,l),
(563,470,o),
(476,573,o),
(306,573,cs),
(141,573,o),
(16,463,o),
(14,277,cs),
(12,87,o),
(142,-10,o),
(303,-10,cs)
);
}
);
};
guides = (
{
pos = (511,355);
},
{
angle = 90;
pos = (382,220);
},
{
pos = (511,215);
},
{
pos = (382,127);
},
{
pos = (382,-10);
}
);
layerId = "F5474A38-5AEA-454E-84E5-A62166EBBEA7";
shapes = (
{
closed = 1;
nodes = (
(476,-10,o),
(563,95,o),
(583,214,c),
(438,214,l),
(427,134,o),
(351,121,o),
(305,121,cs),
(199,121,o),
(152,182,o),
(152,288,cs),
(152,384,o),
(202,441,o),
(306,441,cs),
(349,441,o),
(427,432,o),
(437,356,c),
(581,356,l),
(563,470,o),
(476,573,o),
(306,573,cs),
(141,573,o),
(16,463,o),
(14,277,cs),
(12,87,o),
(142,-10,o),
(303,-10,cs)
);
}
);
width = 608;
}
);
unicode = 67;
},
{
glyphname = Cacute;
kernLeft = C;
kernRight = C;
lastChange = "2023-04-06 13:31:22 +0000";
layers = (
{
background = {
shapes = (
{
closed = 1;
nodes = (
(433,-10,o),
(525,58,o),
(550,190,c),
(521,190,l),
(501,81,o),
(424,14,o),
(297,14,c),
(151,14,o),
(57,105,o),
(57,282,c),
(57,455,o),
(153,549,o),
(301,549,c),
(416,549,o),
(495,484,o),
(517,370,c),
(545,370,l),
(519,506,o),
(424,573,o),
(301,573,c),
(140,573,o),
(30,477,o),
(30,282,c),
(30,90,o),
(144,-10,o),
(297,-10,c)
);
},
{
closed = 1;
nodes = (
(363,711,l),
(363,722,l),
(333,722,l),
(276,616,l),
(276,610,l),
(292,610,l)
);
}
);
};
layerId = "D86F237C-A043-4FD6-9305-0CC5F899F330";
shapes = (
{
ref = C;
},
{
pos = (248,159);
ref = acutecomb;
}
);
width = 590;
},
{
background = {
shapes = (
{
closed = 1;
nodes = (
(476,-10,o),
(563,95,o),
(583,214,c),
(438,214,l),
(427,134,o),
(351,121,o),
(305,121,cs),
(199,121,o),
(152,182,o),
(152,288,cs),
(152,384,o),
(202,441,o),
(306,441,cs),
(349,441,o),
(427,432,o),
(437,356,c),
(581,356,l),
(563,470,o),
(476,573,o),
(306,573,cs),
(141,573,o),
(16,463,o),
(14,277,cs),
(12,87,o),
(142,-10,o),
(303,-10,cs)
);
},
{
closed = 1;
nodes = (
(439,702,l),
(439,724,l),
(324,724,l),
(285,627,l),
(285,610,l),
(347,610,l)
);
}
);
};
layerId = "F5474A38-5AEA-454E-84E5-A62166EBBEA7";
shapes = (
{
ref = C;
},
{
pos = (241,149);
ref = acutecomb;
}
);
width = 608;
}
);
unicode = 262;
},
{
glyphname = Ccaron;
kernLeft = C;
kernRight = C;
lastChange = "2023-04-13 13:34:57 +0000";
layers = (
{
background = {
shapes = (
{
closed = 1;
nodes = (
(433,-10,o),
(525,58,o),
(550,190,c),
(521,190,l),
(501,81,o),
(424,14,o),
(297,14,c),
(151,14,o),
(57,105,o),
(57,282,c),
(57,455,o),
(153,549,o),
(301,549,c),
(416,549,o),
(495,484,o),
(517,370,c),
(545,370,l),
(519,506,o),
(424,573,o),
(301,573,c),
(140,573,o),
(30,477,o),
(30,282,c),
(30,90,o),
(144,-10,o),
(297,-10,c)
);
},
{
closed = 1;
nodes = (
(283,610,l),
(297,610,l),
(428,746,l),
(396,746,l),
(290,631,l),
(184,746,l),
(153,746,l)
);
}
);
};
layerId = "D86F237C-A043-4FD6-9305-0CC5F899F330";
shapes = (
{
ref = C;
},
{
pos = (102,159);
ref = caroncomb;
}
);
width = 590;
},
{
background = {
shapes = (
{
closed = 1;
nodes = (
(476,-10,o),
(563,95,o),
(583,214,c),
(438,214,l),
(427,134,o),
(351,121,o),
(305,121,cs),
(199,121,o),
(152,182,o),
(152,288,cs),
(152,384,o),
(202,441,o),
(306,441,cs),
(349,441,o),
(427,432,o),
(437,356,c),
(581,356,l),
(563,470,o),
(476,573,o),
(306,573,cs),
(141,573,o),
(16,463,o),
(14,277,cs),
(12,87,o),
(142,-10,o),
(303,-10,cs)
);
},
{
closed = 1;
nodes = (
(288,618,l),
(346,618,l),
(491,754,l),
(352,754,l),
(317,675,l),
(285,754,l),
(142,754,l)
);
}
);
};
layerId = "F5474A38-5AEA-454E-84E5-A62166EBBEA7";
shapes = (
{
ref = C;
},
{
pos = (79,149);
ref = caroncomb;
}
);
width = 608;
}
);
unicode = 268;
},
{
glyphname = Ccedilla;
kernLeft = C;
kernRight = C;
lastChange = "2023-04-06 14:17:05 +0000";
layers = (
{
background = {
shapes = (
{
closed = 1;
nodes = (
(433,-10,o),
(525,58,o),
(550,190,c),
(521,190,l),
(501,81,o),
(424,14,o),
(297,14,c),
(151,14,o),
(57,105,o),
(57,282,c),
(57,455,o),
(153,549,o),
(301,549,c),
(416,549,o),
(495,484,o),
(517,370,c),
(545,370,l),
(519,506,o),
(424,573,o),
(301,573,c),
(140,573,o),
(30,477,o),
(30,282,c),
(30,90,o),
(144,-10,o),
(297,-10,c)
);
},
{
closed = 1;
nodes = (
(271,-181,o),
(387,-160,o),
(387,-87,c),
(387,-19,o),
(293,-26,o),
(261,-62,c),
(302,0,l),
(281,9,l),
(244,-64,l),
(259,-80,l),
(298,-52,o),
(359,-45,o),
(363,-88,c),
(368,-143,o),
(268,-147,o),
(228,-98,c),
(213,-116,l)
);
}
);
};
layerId = "D86F237C-A043-4FD6-9305-0CC5F899F330";
shapes = (
{
ref = C;
},
{
pos = (189,0);
ref = cedillacomb;
}
);
width = 590;
},
{
background = {
shapes = (
{
closed = 1;
nodes = (
(476,-10,o),
(563,95,o),
(583,214,c),
(438,214,l),
(427,134,o),
(351,121,o),
(305,121,cs),
(199,121,o),
(152,182,o),
(152,288,cs),
(152,384,o),
(202,441,o),
(306,441,cs),
(349,441,o),
(427,432,o),
(437,356,c),
(581,356,l),
(563,470,o),
(476,573,o),
(306,573,cs),
(141,573,o),
(16,463,o),
(14,277,cs),
(12,87,o),
(142,-10,o),
(303,-10,cs)
);
},
{
closed = 1;
nodes = (
(295,-213,o),
(441,-188,o),
(441,-96,c),
(441,-20,o),
(337,-8,o),
(295,-39,c),
(331,22,l),
(271,45,l),
(225,-56,l),
(282,-82,l),
(304,-60,o),
(351,-70,o),
(350,-90,c),
(350,-133,o),
(248,-103,o),
(226,-88,c),
(187,-152,l)
);
}
);
};
layerId = "F5474A38-5AEA-454E-84E5-A62166EBBEA7";
shapes = (
{
ref = C;
},
{
pos = (147,-31);
ref = cedillacomb;
}
);
width = 608;
}
);
unicode = 199;
},
{
glyphname = Cdotaccent;
kernLeft = C;
kernRight = C;
lastChange = "2023-04-06 14:11:08 +0000";
layers = (
{
background = {
shapes = (
{
closed = 1;
nodes = (
(433,-10,o),
(525,58,o),
(550,190,c),
(521,190,l),
(501,81,o),
(424,14,o),
(297,14,c),
(151,14,o),
(57,105,o),
(57,282,c),
(57,455,o),
(153,549,o),
(301,549,c),
(416,549,o),
(495,484,o),
(517,370,c),
(545,370,l),
(519,506,o),
(424,573,o),
(301,573,c),
(140,573,o),
(30,477,o),
(30,282,c),
(30,90,o),
(144,-10,o),
(297,-10,c)
);
},
{
closed = 1;
nodes = (
(318,620,o),
(324,636,o),
(324,654,c),
(324,671,o),
(318,687,o),
(291,687,c),
(264,687,o),
(257,671,o),
(257,654,c),
(257,636,o),
(264,620,o),
(291,620,c)
);
}
);
};
layerId = "D86F237C-A043-4FD6-9305-0CC5F899F330";
shapes = (
{
ref = C;
},
{
pos = (216,159);
ref = dotaccentcomb;
}
);
width = 590;
},
{
background = {
shapes = (
{
closed = 1;
nodes = (
(476,-10,o),
(563,95,o),
(583,214,c),
(438,214,l),
(427,134,o),
(351,121,o),
(305,121,cs),
(199,121,o),
(152,182,o),
(152,288,cs),
(152,384,o),
(202,441,o),
(306,441,cs),
(349,441,o),
(427,432,o),
(437,356,c),
(581,356,l),
(563,470,o),
(476,573,o),
(306,573,cs),
(141,573,o),
(16,463,o),
(14,277,cs),
(12,87,o),
(142,-10,o),
(303,-10,cs)
);
},
{
closed = 1;
nodes = (
(378,625,o),
(392,660,o),
(392,701,c),
(392,740,o),
(378,775,o),
(318,775,c),
(258,775,o),
(242,740,o),
(242,701,c),
(242,660,o),
(258,625,o),
(318,625,c)
);
}
);
};
layerId = "F5474A38-5AEA-454E-84E5-A62166EBBEA7";
shapes = (
{
ref = C;
},
{
pos = (184,149);
ref = dotaccentcomb;
}
);
width = 608;
}
);
unicode = 266;
},
{
glyphname = D;
kernLeft = D;
kernRight = D;
lastChange = "2023-04-13 12:22:50 +0000";
layers = (
{
anchors = (
{
name = bottom;
pos = (285,0);
},
{
name = center;
pos = (285,282);
},
{
name = top;
pos = (265,563);
}
);
background = {
shapes = (
{
closed = 1;
nodes = (
(163,25,o),
(196,25,o),
(213,25,c),
(392,25,o),
(511,70,o),
(511,282,c),
(511,458,o),
(392,538,o),
(213,538,c),
(97,538,l),
(97,25,l)
);
},
{
closed = 1;
nodes = (
(539,60,o),
(408,0,o),
(213,0,c),
(193,0,o),
(152,0,o),
(70,0,c),
(70,563,l),
(157,563,o),
(195,563,o),
(213,563,c),
(408,563,o),
(539,469,o),
(539,282,c)
);
}
);
};
guides = (
{
angle = 90;
pos = (398,128);
},
{
pos = (353,284);
},
{
pos = (398,222);
},
{
pos = (269,31);
},
{
pos = (246,37);
},
{
pos = (268,537);
}
);
layerId = "D86F237C-A043-4FD6-9305-0CC5F899F330";
shapes = (
{
closed = 1;
nodes = (
(163,25,o),
(196,25,o),
(213,25,c),
(392,25,o),
(511,70,o),
(511,282,c),
(511,458,o),
(392,538,o),
(213,538,c),
(97,538,l),
(97,25,l)
);
},
{
closed = 1;
nodes = (
(539,60,o),
(408,0,o),
(213,0,c),
(193,0,o),
(152,0,o),
(70,0,c),
(70,563,l),
(157,563,o),
(195,563,o),
(213,563,c),
(408,563,o),
(539,469,o),
(539,282,c)
);
}
);
width = 569;
},
{
anchors = (
{
name = bottom;
pos = (313,0);
},
{
name = center;
pos = (313,282);
},
{
name = top;
pos = (268,563);
}
);
background = {
shapes = (
{
closed = 1;
nodes = (
(237,114,o),
(256,114,o),
(264,114,c),
(372,114,o),
(436,144,o),
(436,283,c),
(436,389,o),
(372,443,o),
(264,443,c),
(198,443,l),
(198,114,l)
);
},
{
closed = 1;
nodes = (
(585,60,o),
(443,0,o),
(221,0,c),
(198,0,o),
(152,0,o),
(60,0,c),
(60,563,l),
(158,563,o),
(200,563,o),
(221,563,c),
(443,563,o),
(585,469,o),
(585,282,c)
);
}
);
};
guides = (
{
pos = (128,562);
},
{
pos = (121,468);
},
{
pos = (169,563);
},
{
pos = (121,468);
},
{
angle = 90;
pos = (465,132);
},
{
angle = 90;
pos = (567,137);
},
{
pos = (128,94);
},
{
pos = (121,0);
}
);
layerId = "F5474A38-5AEA-454E-84E5-A62166EBBEA7";
shapes = (
{
closed = 1;
nodes = (
(237,114,o),
(256,114,o),
(264,114,c),
(372,114,o),
(436,144,o),
(436,283,c),
(436,389,o),
(372,443,o),
(264,443,c),
(198,443,l),
(198,114,l)
);
},
{
closed = 1;
nodes = (
(585,60,o),
(443,0,o),
(221,0,c),
(198,0,o),
(152,0,o),
(60,0,c),
(60,563,l),
(158,563,o),
(200,563,o),
(221,563,c),
(443,563,o),
(585,469,o),
(585,282,c)
);
}
);
width = 625;
}
);
unicode = 68;
},
{
glyphname = Dcaron;
kernLeft = D;
kernRight = D;
lastChange = "2023-04-13 13:34:57 +0000";
layers = (
{
background = {
shapes = (
{
closed = 1;
nodes = (
(163,25,o),
(196,25,o),
(213,25,c),
(392,25,o),
(511,70,o),
(511,282,c),
(511,458,o),
(392,538,o),
(213,538,c),
(97,538,l),
(97,25,l)
);
},
{
closed = 1;
nodes = (
(539,60,o),
(408,0,o),
(213,0,c),
(193,0,o),
(152,0,o),
(70,0,c),
(70,563,l),
(157,563,o),
(195,563,o),
(213,563,c),
(408,563,o),
(539,469,o),
(539,282,c)
);
},
{
closed = 1;
nodes = (
(256,610,l),
(270,610,l),
(401,746,l),
(369,746,l),
(263,631,l),
(157,746,l),
(126,746,l)
);
}
);
};
layerId = "D86F237C-A043-4FD6-9305-0CC5F899F330";
shapes = (
{
ref = D;
},
{
pos = (72,159);
ref = caroncomb;
}
);
width = 569;
},
{
background = {
shapes = (
{
closed = 1;
nodes = (
(237,114,o),
(256,114,o),
(264,114,c),
(372,114,o),
(436,144,o),
(436,283,c),
(436,389,o),
(372,443,o),
(264,443,c),
(198,443,l),
(198,114,l)
);
},
{
closed = 1;
nodes = (
(585,60,o),
(443,0,o),
(221,0,c),
(198,0,o),
(152,0,o),
(60,0,c),
(60,563,l),
(158,563,o),
(200,563,o),
(221,563,c),
(443,563,o),
(585,469,o),
(585,282,c)
);
},
{
closed = 1;
nodes = (
(236,618,l),
(294,618,l),
(439,754,l),
(300,754,l),
(265,675,l),
(233,754,l),
(90,754,l)
);
}
);
};
layerId = "F5474A38-5AEA-454E-84E5-A62166EBBEA7";
shapes = (
{
ref = D;
},
{
pos = (43,149);
ref = caroncomb;
}
);
width = 625;
}
);
unicode = 270;
},
{
glyphname = Dcroat;
kernLeft = D;
kernRight = D;
lastChange = "2023-04-06 13:24:03 +0000";
layers = (
{
background = {
shapes = (
{
closed = 1;
nodes = (
(152,0,o),
(193,0,o),
(213,0,c),
(408,0,o),
(539,60,o),
(539,282,c),
(539,469,o),
(408,563,o),
(213,563,c),
(195,563,o),
(157,563,o),
(70,563,c),
(70,0,l)
);
},
{
closed = 1;
nodes = (
(293,274,l),
(293,299,l),
(0,299,l),
(0,274,l)
);
},
{
closed = 1;
nodes = (
(97,538,l),
(213,538,l),
(392,538,o),
(511,458,o),
(511,282,c),
(511,70,o),
(392,25,o),
(213,25,c),
(196,25,o),
(163,25,o),
(97,25,c)
);
}
);
};
guides = (
{
pos = (362,282);
}
);
layerId = "D86F237C-A043-4FD6-9305-0CC5F899F330";
shapes = (
{
ref = Eth;
}
);
width = 600;
},
{
background = {
shapes = (
{
closed = 1;
nodes = (
(152,0,o),
(198,0,o),
(221,0,c),
(443,0,o),
(585,60,o),
(585,282,c),
(585,469,o),
(443,563,o),
(221,563,c),
(200,563,o),
(158,563,o),
(60,563,c),
(60,0,l)
);
},
{
closed = 1;
nodes = (
(315,241,l),
(315,331,l),
(0,331,l),
(0,241,l)
);
},
{
closed = 1;
nodes = (
(198,443,l),
(264,443,l),
(372,443,o),
(436,389,o),
(436,283,c),
(436,144,o),
(372,114,o),
(264,114,c),
(256,114,o),
(237,114,o),
(198,114,c)
);
}
);
};
guides = (
{
pos = (314,283);
}
);
layerId = "F5474A38-5AEA-454E-84E5-A62166EBBEA7";
shapes = (
{
ref = Eth;
}
);
width = 600;
}
);
unicode = 272;
},
{
glyphname = Eth;
kernLeft = D;
kernRight = D;
lastChange = "2023-04-13 12:22:50 +0000";
layers = (
{
background = {
shapes = (
{
closed = 1;
nodes = (
(152,0,o),
(193,0,o),
(213,0,c),
(408,0,o),
(539,60,o),
(539,282,c),
(539,469,o),
(408,563,o),
(213,563,c),
(195,563,o),
(157,563,o),
(70,563,c),
(70,0,l)
);
},
{
closed = 1;
nodes = (
(293,274,l),
(293,299,l),
(0,299,l),
(0,274,l)
);
},
{
closed = 1;
nodes = (
(97,538,l),
(213,538,l),
(392,538,o),
(511,458,o),
(511,282,c),
(511,70,o),
(392,25,o),
(213,25,c),
(196,25,o),
(163,25,o),
(97,25,c)
);
}
);
};
layerId = "D86F237C-A043-4FD6-9305-0CC5F899F330";
shapes = (
{
closed = 1;
nodes = (
(152,0,o),
(193,0,o),
(213,0,c),
(408,0,o),
(539,60,o),
(539,282,c),
(539,469,o),
(408,563,o),
(213,563,c),
(195,563,o),
(157,563,o),
(70,563,c),
(70,0,l)
);
},
{
closed = 1;
nodes = (
(293,274,l),
(293,299,l),
(0,299,l),
(0,274,l)
);
},
{
closed = 1;
nodes = (
(97,538,l),
(213,538,l),
(392,538,o),
(511,458,o),
(511,282,c),
(511,70,o),
(392,25,o),
(213,25,c),
(196,25,o),
(163,25,o),
(97,25,c)
);
}
);
width = 600;
},
{
background = {
shapes = (
{
closed = 1;
nodes = (
(152,0,o),
(198,0,o),
(221,0,c),
(443,0,o),
(585,60,o),
(585,282,c),
(585,469,o),
(443,563,o),
(221,563,c),
(200,563,o),
(158,563,o),
(60,563,c),
(60,0,l)
);
},
{
closed = 1;
nodes = (
(315,241,l),
(315,331,l),
(0,331,l),
(0,241,l)
);
},
{
closed = 1;
nodes = (
(198,443,l),
(264,443,l),
(372,443,o),
(436,389,o),
(436,283,c),
(436,144,o),
(372,114,o),
(264,114,c),
(256,114,o),
(237,114,o),
(198,114,c)
);
}
);
};
layerId = "F5474A38-5AEA-454E-84E5-A62166EBBEA7";
shapes = (
{
closed = 1;
nodes = (
(152,0,o),
(198,0,o),
(221,0,c),
(443,0,o),
(585,60,o),
(585,282,c),
(585,469,o),
(443,563,o),
(221,563,c),
(200,563,o),
(158,563,o),
(60,563,c),
(60,0,l)
);
},
{
closed = 1;
nodes = (
(315,241,l),
(315,331,l),
(0,331,l),
(0,241,l)
);
},
{
closed = 1;
nodes = (
(198,443,l),
(264,443,l),
(372,443,o),
(436,389,o),
(436,283,c),
(436,144,o),
(372,114,o),
(264,114,c),
(256,114,o),
(237,114,o),
(198,114,c)
);
}
);
width = 600;
}
);
unicode = 208;
},
{
glyphname = E;
kernLeft = E;
kernRight = E;
lastChange = "2023-04-13 12:22:50 +0000";
layers = (
{
anchors = (
{
name = bottom;
pos = (229,0);
},
{
name = ogonek;
pos = (417,1);
},
{
name = top;
pos = (229,563);
},
{
name = topleft;
pos = (20,563);
}
);
background = {
shapes = (
{
closed = 1;
nodes = (
(87,272,l),
(352,272,l),
(352,298,l),
(87,298,l),
(87,537,l),
(413,537,l),
(413,563,l),
(60,563,l),
(60,0,l),
(422,0,l),
(422,25,l),
(87,25,l)
);
}
);
};
guides = (
{
angle = 90;
pos = (437,499);
}
);
layerId = "D86F237C-A043-4FD6-9305-0CC5F899F330";
shapes = (
{
closed = 1;
nodes = (
(422,0,l),
(422,25,l),
(87,25,l),
(87,272,l),
(352,272,l),
(352,298,l),
(87,298,l),
(87,537,l),
(413,537,l),
(413,563,l),
(60,563,l),
(60,0,l)
);
}
);
width = 457;
},
{
anchors = (
{
name = bottom;
pos = (262,0);
},
{
name = ogonek;
pos = (483,0);
},
{
name = top;
pos = (262,563);
},
{
name = topleft;
pos = (20,563);
}
);
background = {
shapes = (
{
closed = 1;
nodes = (
(187,229,l),
(402,229,l),
(402,341,l),
(187,341,l),
(187,444,l),
(476,444,l),
(476,563,l),
(50,563,l),
(50,0,l),
(487,0,l),
(487,111,l),
(187,111,l)
);
}
);
};
guides = (
{
angle = 90;
pos = (70,131);
},
{
angle = 90;
pos = (185,136);
},
{
pos = (130,332);
},
{
pos = (123,238);
}
);
layerId = "F5474A38-5AEA-454E-84E5-A62166EBBEA7";
shapes = (
{
closed = 1;
nodes = (
(487,0,l),
(487,111,l),
(187,111,l),
(187,229,l),
(402,229,l),
(402,341,l),
(187,341,l),
(187,444,l),
(476,444,l),
(476,563,l),
(50,563,l),
(50,0,l)
);
}
);
width = 523;
}
);
unicode = 69;
},
{
glyphname = Eacute;
kernLeft = E;
kernRight = E;
lastChange = "2023-04-06 13:31:22 +0000";
layers = (
{
background = {
shapes = (
{
closed = 1;
nodes = (
(87,272,l),
(352,272,l),
(352,298,l),
(87,298,l),
(87,537,l),
(413,537,l),
(413,563,l),
(60,563,l),
(60,0,l),
(422,0,l),
(422,25,l),
(87,25,l)
);
},
{
closed = 1;
nodes = (
(298,711,l),
(298,722,l),
(268,722,l),
(211,616,l),
(211,610,l),
(227,610,l)
);
}
);
};
guides = (
{
pos = (365,617);
},
{
pos = (363,563);
}
);
layerId = "D86F237C-A043-4FD6-9305-0CC5F899F330";
shapes = (
{
ref = E;
},
{
pos = (182,159);
ref = acutecomb;
}
);
width = 457;
},
{
background = {
shapes = (
{
closed = 1;
nodes = (
(187,229,l),
(402,229,l),
(402,341,l),
(187,341,l),
(187,444,l),
(476,444,l),
(476,563,l),
(50,563,l),
(50,0,l),
(487,0,l),
(487,111,l),
(187,111,l)
);
},
{
closed = 1;
nodes = (
(365,702,l),
(365,724,l),
(250,724,l),
(211,627,l),
(211,610,l),
(273,610,l)
);
}
);
};
guides = (
{
pos = (365,626);
},
{
pos = (365,563);
}
);
layerId = "F5474A38-5AEA-454E-84E5-A62166EBBEA7";
shapes = (
{
ref = E;
},
{
pos = (199,149);
ref = acutecomb;
}
);
width = 523;
}
);
unicode = 201;
},
{
glyphname = Ecaron;
kernLeft = E;
kernRight = E;
lastChange = "2023-04-13 13:34:58 +0000";
layers = (
{
background = {
shapes = (
{
closed = 1;
nodes = (
(87,272,l),
(352,272,l),
(352,298,l),
(87,298,l),
(87,537,l),
(413,537,l),
(413,563,l),
(60,563,l),
(60,0,l),
(422,0,l),
(422,25,l),
(87,25,l)
);
},
{
closed = 1;
nodes = (
(228,610,l),
(242,610,l),
(373,746,l),
(341,746,l),
(235,631,l),
(129,746,l),
(98,746,l)
);
}
);
};
layerId = "D86F237C-A043-4FD6-9305-0CC5F899F330";
shapes = (
{
ref = E;
},
{
pos = (36,159);
ref = caroncomb;
}
);
width = 457;
},
{
background = {
shapes = (
{
closed = 1;
nodes = (
(187,229,l),
(402,229,l),
(402,341,l),
(187,341,l),
(187,444,l),
(476,444,l),
(476,563,l),
(50,563,l),
(50,0,l),
(487,0,l),
(487,111,l),
(187,111,l)
);
},
{
closed = 1;
nodes = (
(231,618,l),
(289,618,l),
(434,754,l),
(295,754,l),
(260,675,l),
(228,754,l),
(85,754,l)
);
}
);
};
layerId = "F5474A38-5AEA-454E-84E5-A62166EBBEA7";
shapes = (
{
ref = E;
},
{
pos = (37,149);
ref = caroncomb;
}
);
width = 523;
}
);
unicode = 282;
},
{
glyphname = Ecircumflex;
kernLeft = E;
kernRight = E;
lastChange = "2023-04-06 13:31:48 +0000";
layers = (
{
background = {
shapes = (
{
closed = 1;
nodes = (
(87,272,l),
(352,272,l),
(352,298,l),
(87,298,l),
(87,537,l),
(413,537,l),
(413,563,l),
(60,563,l),
(60,0,l),
(422,0,l),
(422,25,l),
(87,25,l)
);
},
{
closed = 1;
nodes = (
(159,639,l),
(234,721,l),
(236,721,l),
(312,639,l),
(343,639,l),
(343,645,l),
(242,743,l),
(228,743,l),
(128,645,l),
(128,639,l)
);
}
);
};
guides = (
{
pos = (363,563);
},
{
pos = (365,617);
}
);
layerId = "D86F237C-A043-4FD6-9305-0CC5F899F330";
shapes = (
{
ref = E;
},
{
pos = (36,159);
ref = circumflexcomb;
}
);
width = 457;
},
{
background = {
shapes = (
{
closed = 1;
nodes = (
(187,229,l),
(402,229,l),
(402,341,l),
(187,341,l),
(187,444,l),
(476,444,l),
(476,563,l),
(50,563,l),
(50,0,l),
(487,0,l),
(487,111,l),
(187,111,l)
);
},
{
closed = 1;
nodes = (
(226,617,l),
(255,653,l),
(261,653,l),
(293,617,l),
(413,617,l),
(413,627,l),
(287,741,l),
(229,741,l),
(102,627,l),
(102,617,l)
);
}
);
};
guides = (
{
pos = (365,626);
},
{
pos = (365,563);
},
{
angle = 90;
pos = (258,579);
}
);
layerId = "F5474A38-5AEA-454E-84E5-A62166EBBEA7";
shapes = (
{
ref = E;
},
{
pos = (17,149);
ref = circumflexcomb;
}
);
width = 523;
}
);
unicode = 202;
},
{
glyphname = Ecircumflexacute;
kernLeft = E;
kernRight = E;
lastChange = "2023-04-06 13:32:39 +0000";
layers = (
{
background = {
shapes = (
{
closed = 1;
nodes = (
(87,272,l),
(352,272,l),
(352,298,l),
(87,298,l),
(87,537,l),
(413,537,l),
(413,563,l),
(60,563,l),
(60,0,l),
(422,0,l),
(422,25,l),
(87,25,l)
);
},
{
closed = 1;
nodes = (
(159,626,l),
(234,708,l),
(236,708,l),
(312,626,l),
(343,626,l),
(343,632,l),
(242,730,l),
(228,730,l),
(128,632,l),
(128,626,l)
);
},
{
closed = 1;
nodes = (
(426,810,l),
(426,821,l),
(396,821,l),
(339,715,l),
(339,709,l),
(355,709,l)
);
}
);
};
guides = (
{
pos = (363,563);
},
{
pos = (365,617);
}
);
layerId = "D86F237C-A043-4FD6-9305-0CC5F899F330";
shapes = (
{
ref = E;
},
{
pos = (37,159);
ref = circumflexcomb_acutecomb;
}
);
width = 457;
},
{
background = {
shapes = (
{
closed = 1;
nodes = (
(187,229,l),
(402,229,l),
(402,341,l),
(187,341,l),
(187,444,l),
(476,444,l),
(476,563,l),
(50,563,l),
(50,0,l),
(487,0,l),
(487,111,l),
(187,111,l)
);
},
{
closed = 1;
nodes = (
(226,617,l),
(255,653,l),
(261,653,l),
(293,617,l),
(413,617,l),
(413,627,l),
(287,741,l),
(229,741,l),
(102,627,l),
(102,617,l)
);
},
{
closed = 1;
nodes = (
(507,809,l),
(507,831,l),
(392,831,l),
(353,734,l),
(353,717,l),
(415,717,l)
);
}
);
};
layerId = "F5474A38-5AEA-454E-84E5-A62166EBBEA7";
shapes = (
{
ref = E;
},
{
pos = (45,149);
ref = circumflexcomb_acutecomb;
}
);
width = 523;
}
);
unicode = 7870;
},
{
glyphname = Ecircumflexdotbelow;
kernLeft = E;
kernRight = E;
lastChange = "2023-04-06 13:31:48 +0000";
layers = (
{
background = {
shapes = (
{
closed = 1;
nodes = (
(87,272,l),
(352,272,l),
(352,298,l),
(87,298,l),
(87,537,l),
(413,537,l),
(413,563,l),
(60,563,l),
(60,0,l),
(422,0,l),
(422,25,l),
(87,25,l)
);
},
{
closed = 1;
nodes = (
(262,-123,o),
(267,-110,o),
(267,-95,c),
(267,-81,o),
(262,-68,o),
(240,-68,c),
(218,-68,o),
(212,-81,o),
(212,-95,c),
(212,-110,o),
(218,-123,o),
(240,-123,c)
);
},
{
closed = 1;
nodes = (
(159,639,l),
(234,721,l),
(236,721,l),
(312,639,l),
(343,639,l),
(343,645,l),
(242,743,l),
(228,743,l),
(128,645,l),
(128,639,l)
);
}
);
};
guides = (
{
angle = 90;
pos = (235,-73);
},
{
pos = (365,617);
}
);
layerId = "D86F237C-A043-4FD6-9305-0CC5F899F330";
shapes = (
{
ref = E;
},
{
pos = (156,0);
ref = dotbelowcomb;
},
{
pos = (36,159);
ref = circumflexcomb;
}
);
width = 457;
},
{
background = {
shapes = (
{
closed = 1;
nodes = (
(187,229,l),
(402,229,l),
(402,341,l),
(187,341,l),
(187,444,l),
(476,444,l),
(476,563,l),
(50,563,l),
(50,0,l),
(487,0,l),
(487,111,l),
(187,111,l)
);
},
{
closed = 1;
nodes = (
(306,-201,o),
(318,-171,o),
(318,-135,c),
(318,-101,o),
(306,-71,o),
(254,-71,c),
(202,-71,o),
(188,-101,o),
(188,-135,c),
(188,-171,o),
(202,-201,o),
(254,-201,c)
);
},
{
closed = 1;
nodes = (
(226,617,l),
(255,653,l),
(261,653,l),
(293,617,l),
(413,617,l),
(413,627,l),
(287,741,l),
(229,741,l),
(102,627,l),
(102,617,l)
);
}
);
};
guides = (
{
angle = 90;
pos = (263,579);
}
);
layerId = "F5474A38-5AEA-454E-84E5-A62166EBBEA7";
shapes = (
{
ref = E;
},
{
pos = (152,0);
ref = dotbelowcomb;
},
{
pos = (17,149);
ref = circumflexcomb;
}
);
width = 523;
}
);
unicode = 7878;
},
{
glyphname = Ecircumflexgrave;
kernLeft = E;
kernRight = E;
lastChange = "2023-04-06 14:10:27 +0000";
layers = (
{
background = {
shapes = (
{
closed = 1;
nodes = (
(87,272,l),
(352,272,l),
(352,298,l),
(87,298,l),
(87,537,l),
(413,537,l),
(413,563,l),
(60,563,l),
(60,0,l),
(422,0,l),
(422,25,l),
(87,25,l)
);
},
{
closed = 1;
nodes = (
(128,711,l),
(128,717,l),
(71,823,l),
(41,823,l),
(41,812,l),
(112,711,l)
);
},
{
closed = 1;
nodes = (
(159,627,l),
(234,709,l),
(236,709,l),
(312,627,l),
(343,627,l),
(343,633,l),
(242,731,l),
(228,731,l),
(128,633,l),
(128,627,l)
);
}
);
};
guides = (
{
pos = (365,617);
}
);
layerId = "D86F237C-A043-4FD6-9305-0CC5F899F330";
shapes = (
{
ref = E;
},
{
pos = (64,159);
ref = circumflexcomb_gravecomb;
}
);
width = 457;
},
{
background = {
shapes = (
{
closed = 1;
nodes = (
(187,229,l),
(402,229,l),
(402,341,l),
(187,341,l),
(187,444,l),
(476,444,l),
(476,563,l),
(50,563,l),
(50,0,l),
(487,0,l),
(487,111,l),
(187,111,l)
);
},
{
closed = 1;
nodes = (
(144,716,l),
(144,733,l),
(105,830,l),
(-10,830,l),
(-10,808,l),
(82,716,l)
);
},
{
closed = 1;
nodes = (
(226,617,l),
(255,653,l),
(261,653,l),
(293,617,l),
(413,617,l),
(413,627,l),
(287,741,l),
(229,741,l),
(102,627,l),
(102,617,l)
);
}
);
};
layerId = "F5474A38-5AEA-454E-84E5-A62166EBBEA7";
shapes = (
{
ref = E;
},
{
pos = (56,149);
ref = circumflexcomb_gravecomb;
}
);
width = 523;
}
);
unicode = 7872;
},
{
glyphname = Ecircumflexhookabove;
kernLeft = E;
kernRight = E;
lastChange = "2023-04-06 13:35:45 +0000";
layers = (
{
background = {
shapes = (
{
closed = 1;
nodes = (
(87,272,l),
(352,272,l),
(352,298,l),
(87,298,l),
(87,537,l),
(413,537,l),
(413,563,l),
(60,563,l),
(60,0,l),
(422,0,l),
(422,25,l),
(87,25,l)
);
},
{
closed = 1;
nodes = (
(160,639,l),
(235,721,l),
(237,721,l),
(313,639,l),
(344,639,l),
(344,645,l),
(243,743,l),
(229,743,l),
(129,645,l),
(129,639,l)
);
},
{
closed = 1;
nodes = (
(355,720,l),
(355,747,o),
(406,753,o),
(406,799,cs),
(406,860,o),
(308,863,o),
(291,799,c),
(313,793,l),
(328,839,o),
(383,830,o),
(383,796,cs),
(383,763,o),
(334,754,o),
(328,726,c),
(328,720,l)
);
}
);
};
layerId = "D86F237C-A043-4FD6-9305-0CC5F899F330";
shapes = (
{
ref = E;
},
{
pos = (64,159);
ref = circumflexcomb_hookabovecomb;
}
);
width = 457;
},
{
background = {
shapes = (
{
closed = 1;
nodes = (
(187,229,l),
(402,229,l),
(402,341,l),
(187,341,l),
(187,444,l),
(476,444,l),
(476,563,l),
(50,563,l),
(50,0,l),
(487,0,l),
(487,111,l),
(187,111,l)
);
},
{
closed = 1;
nodes = (
(226,617,l),
(255,653,l),
(261,653,l),
(293,617,l),
(413,617,l),
(413,627,l),
(287,741,l),
(229,741,l),
(102,627,l),
(102,617,l)
);
},
{
closed = 1;
nodes = (
(429,716,l),
(444,746,o),
(494,756,o),
(494,822,cs),
(494,939,o),
(314,944,o),
(285,842,c),
(337,805,l),
(352,837,o),
(412,838,o),
(412,807,cs),
(412,770,o),
(357,762,o),
(344,736,c),
(344,716,l)
);
}
);
};
layerId = "F5474A38-5AEA-454E-84E5-A62166EBBEA7";
shapes = (
{
ref = E;
},
{
pos = (-7,149);
ref = circumflexcomb_hookabovecomb;
}
);
width = 523;
}
);
unicode = 7874;
},
{
glyphname = Ecircumflextilde;
kernLeft = E;
kernRight = E;
lastChange = "2023-04-06 13:37:29 +0000";
layers = (
{
background = {
shapes = (
{
closed = 1;
nodes = (
(87,272,l),
(352,272,l),
(352,298,l),
(87,298,l),
(87,537,l),
(413,537,l),
(413,563,l),
(60,563,l),
(60,0,l),
(422,0,l),
(422,25,l),
(87,25,l)
);
},
{
closed = 1;
nodes = (
(160,639,l),
(235,721,l),
(237,721,l),
(313,639,l),
(344,639,l),
(344,645,l),
(243,743,l),
(229,743,l),
(129,645,l),
(129,639,l)
);
},
{
closed = 1;
nodes = (
(230,794,o),
(284,794,cs),
(324,794,o),
(337,824,o),
(334,868,c),
(309,868,l),
(309,833,o),
(308,814,o),
(284,814,cs),
(245,814,o),
(242,867,o),
(187,867,cs),
(146,867,o),
(135,838,o),
(137,794,c),
(162,794,l),
(161,827,o),
(164,847,o),
(187,847,cs),
(224,847,o)
);
}
);
};
guides = (
{
pos = (365,617);
}
);
layerId = "D86F237C-A043-4FD6-9305-0CC5F899F330";
shapes = (
{
ref = E;
},
{
pos = (47,159);
ref = circumflexcomb_tildecomb;
}
);
width = 457;
},
{
background = {
shapes = (
{
closed = 1;
nodes = (
(187,229,l),
(402,229,l),
(402,341,l),
(187,341,l),
(187,444,l),
(476,444,l),
(476,563,l),
(50,563,l),
(50,0,l),
(487,0,l),
(487,111,l),
(187,111,l)
);
},
{
closed = 1;
nodes = (
(226,618,l),
(255,654,l),
(261,654,l),
(293,618,l),
(413,618,l),
(413,628,l),
(287,742,l),
(229,742,l),
(102,628,l),
(102,618,l)
);
},
{
closed = 1;
nodes = (
(235,766,o),
(311,766,cs),
(401,766,o),
(401,849,o),
(401,899,c),
(323,899,l),
(323,865,o),
(323,845,o),
(303,845,cs),
(270,845,o),
(266,903,o),
(192,903,cs),
(94,903,o),
(102,802,o),
(102,771,c),
(180,771,l),
(180,805,o),
(180,824,o),
(201,824,cs),
(237,824,o)
);
}
);
};
guides = (
{
angle = 90;
pos = (258,579);
}
);
layerId = "F5474A38-5AEA-454E-84E5-A62166EBBEA7";
shapes = (
{
ref = E;
},
{
pos = (18,149);
ref = circumflexcomb_tildecomb;
}
);
width = 523;
}
);
unicode = 7876;
},
{
glyphname = Edieresis;
kernLeft = E;
kernRight = E;
lastChange = "2023-04-06 13:28:58 +0000";
layers = (
{
background = {
shapes = (
{
closed = 1;
nodes = (
(87,272,l),
(352,272,l),
(352,298,l),
(87,298,l),
(87,537,l),
(413,537,l),
(413,563,l),
(60,563,l),
(60,0,l),
(422,0,l),
(422,25,l),
(87,25,l)
);
},
{
closed = 1;
nodes = (
(197,620,o),
(203,636,o),
(203,654,c),
(203,671,o),
(197,687,o),
(170,687,c),
(143,687,o),
(136,671,o),
(136,654,c),
(136,636,o),
(143,620,o),
(170,620,c)
);
},
{
closed = 1;
nodes = (
(329,620,o),
(335,636,o),
(335,654,c),
(335,671,o),
(329,687,o),
(302,687,c),
(275,687,o),
(268,671,o),
(268,654,c),
(268,636,o),
(275,620,o),
(302,620,c)
);
}
);
};
layerId = "D86F237C-A043-4FD6-9305-0CC5F899F330";
shapes = (
{
ref = E;
},
{
pos = (84,159);
ref = dieresiscomb;
}
);
width = 457;
},
{
background = {
shapes = (
{
closed = 1;
nodes = (
(187,229,l),
(402,229,l),
(402,341,l),
(187,341,l),
(187,444,l),
(476,444,l),
(476,563,l),
(50,563,l),
(50,0,l),
(487,0,l),
(487,111,l),
(187,111,l)
);
},
{
closed = 1;
nodes = (
(227,625,o),
(241,660,o),
(241,701,c),
(241,740,o),
(227,775,o),
(167,775,c),
(107,775,o),
(91,740,o),
(91,701,c),
(91,660,o),
(107,625,o),
(167,625,c)
);
},
{
closed = 1;
nodes = (
(433,625,o),
(447,660,o),
(447,701,c),
(447,740,o),
(433,775,o),
(373,775,c),
(313,775,o),
(297,740,o),
(297,701,c),
(297,660,o),
(313,625,o),
(373,625,c)
);
}
);
};
layerId = "F5474A38-5AEA-454E-84E5-A62166EBBEA7";
shapes = (
{
ref = E;
},
{
pos = (39,149);
ref = dieresiscomb;
}
);
width = 523;
}
);
unicode = 203;
},
{
glyphname = Edotaccent;
kernLeft = E;
kernRight = E;
lastChange = "2023-04-06 14:11:08 +0000";
layers = (
{
background = {
shapes = (
{
closed = 1;
nodes = (
(87,272,l),
(352,272,l),
(352,298,l),
(87,298,l),
(87,537,l),
(413,537,l),
(413,563,l),
(60,563,l),
(60,0,l),
(422,0,l),
(422,25,l),
(87,25,l)
);
},
{
closed = 1;
nodes = (
(263,620,o),
(269,636,o),
(269,654,c),
(269,671,o),
(263,687,o),
(236,687,c),
(209,687,o),
(202,671,o),
(202,654,c),
(202,636,o),
(209,620,o),
(236,620,c)
);
}
);
};
layerId = "D86F237C-A043-4FD6-9305-0CC5F899F330";
shapes = (
{
ref = E;
},
{
pos = (150,159);
ref = dotaccentcomb;
}
);
width = 457;
},
{
background = {
shapes = (
{
closed = 1;
nodes = (
(187,229,l),
(402,229,l),
(402,341,l),
(187,341,l),
(187,444,l),
(476,444,l),
(476,563,l),
(50,563,l),
(50,0,l),
(487,0,l),
(487,111,l),
(187,111,l)
);
},
{
closed = 1;
nodes = (
(330,625,o),
(344,660,o),
(344,701,c),
(344,740,o),
(330,775,o),
(270,775,c),
(210,775,o),
(194,740,o),
(194,701,c),
(194,660,o),
(210,625,o),
(270,625,c)
);
}
);
};
layerId = "F5474A38-5AEA-454E-84E5-A62166EBBEA7";
shapes = (
{
ref = E;
},
{
pos = (142,149);
ref = dotaccentcomb;
}
);
width = 523;
}
);
unicode = 278;
},
{
glyphname = Edotbelow;
kernLeft = E;
kernRight = E;
lastChange = "2023-04-06 13:28:22 +0000";
layers = (
{
background = {
shapes = (
{
closed = 1;
nodes = (
(87,272,l),
(352,272,l),
(352,298,l),
(87,298,l),
(87,537,l),
(413,537,l),
(413,563,l),
(60,563,l),
(60,0,l),
(422,0,l),
(422,25,l),
(87,25,l)
);
},
{
closed = 1;
nodes = (
(262,-123,o),
(267,-110,o),
(267,-95,c),
(267,-81,o),
(262,-68,o),
(240,-68,c),
(218,-68,o),
(212,-81,o),
(212,-95,c),
(212,-110,o),
(218,-123,o),
(240,-123,c)
);
}
);
};
layerId = "D86F237C-A043-4FD6-9305-0CC5F899F330";
shapes = (
{
ref = E;
},
{
pos = (156,0);
ref = dotbelowcomb;
}
);
width = 457;
},
{
background = {
shapes = (
{
closed = 1;
nodes = (
(187,229,l),
(402,229,l),
(402,341,l),
(187,341,l),
(187,444,l),
(476,444,l),
(476,563,l),
(50,563,l),
(50,0,l),
(487,0,l),
(487,111,l),
(187,111,l)
);
},
{
closed = 1;
nodes = (
(309,-201,o),
(321,-171,o),
(321,-135,c),
(321,-101,o),
(309,-71,o),
(257,-71,c),
(205,-71,o),
(191,-101,o),
(191,-135,c),
(191,-171,o),
(205,-201,o),
(257,-201,c)
);
}
);
};
layerId = "F5474A38-5AEA-454E-84E5-A62166EBBEA7";
shapes = (
{
ref = E;
},
{
pos = (152,0);
ref = dotbelowcomb;
}
);
width = 523;
}
);
unicode = 7864;
},
{
glyphname = Egrave;
kernLeft = E;
kernRight = E;
lastChange = "2023-04-06 13:27:59 +0000";
layers = (
{
background = {
shapes = (
{
closed = 1;
nodes = (
(87,272,l),
(352,272,l),
(352,298,l),
(87,298,l),
(87,537,l),
(413,537,l),
(413,563,l),
(60,563,l),
(60,0,l),
(422,0,l),
(422,25,l),
(87,25,l)
);
},
{
closed = 1;
nodes = (
(229,610,l),
(229,616,l),
(172,722,l),
(142,722,l),
(142,711,l),
(213,610,l)
);
}
);
};
guides = (
{
pos = (132,618);
},
{
pos = (132,563);
},
{
pos = (132,563);
}
);
layerId = "D86F237C-A043-4FD6-9305-0CC5F899F330";
shapes = (
{
ref = E;
},
{
pos = (124,159);
ref = gravecomb;
}
);
width = 457;
},
{
background = {
shapes = (
{
closed = 1;
nodes = (
(187,229,l),
(402,229,l),
(402,341,l),
(187,341,l),
(187,444,l),
(476,444,l),
(476,563,l),
(50,563,l),
(50,0,l),
(487,0,l),
(487,111,l),
(187,111,l)
);
},
{
closed = 1;
nodes = (
(274,610,l),
(274,627,l),
(235,724,l),
(120,724,l),
(120,702,l),
(212,610,l)
);
}
);
};
guides = (
{
pos = (365,626);
},
{
pos = (365,563);
},
{
angle = 90;
pos = (258,579);
}
);
layerId = "F5474A38-5AEA-454E-84E5-A62166EBBEA7";
shapes = (
{
ref = E;
},
{
pos = (101,149);
ref = gravecomb;
}
);
width = 523;
}
);
unicode = 200;
},
{
glyphname = Ehookabove;
kernLeft = E;
kernRight = E;
lastChange = "2023-04-13 13:31:27 +0000";
layers = (
{
background = {
shapes = (
{
closed = 1;
nodes = (
(87,272,l),
(352,272,l),
(352,298,l),
(87,298,l),
(87,537,l),
(413,537,l),
(413,563,l),
(60,563,l),
(60,0,l),
(422,0,l),
(422,25,l),
(87,25,l)
);
},
{
closed = 1;
nodes = (
(240,617,l),
(240,644,o),
(291,650,o),
(291,696,cs),
(291,757,o),
(193,760,o),
(176,696,c),
(198,690,l),
(213,736,o),
(268,727,o),
(268,693,cs),
(268,660,o),
(219,651,o),
(213,623,c),
(213,617,l)
);
}
);
};
layerId = "D86F237C-A043-4FD6-9305-0CC5F899F330";
shapes = (
{
ref = E;
},
{
pos = (143,159);
ref = hookabovecomb;
}
);
width = 457;
},
{
background = {
shapes = (
{
closed = 1;
nodes = (
(187,229,l),
(402,229,l),
(402,341,l),
(187,341,l),
(187,444,l),
(476,444,l),
(476,563,l),
(50,563,l),
(50,0,l),
(487,0,l),
(487,111,l),
(187,111,l)
);
},
{
closed = 1;
nodes = (
(306,620,l),
(321,650,o),
(371,660,o),
(371,726,cs),
(371,843,o),
(191,848,o),
(162,746,c),
(214,709,l),
(229,741,o),
(289,742,o),
(289,711,cs),
(289,674,o),
(234,666,o),
(221,640,c),
(221,620,l)
);
}
);
};
layerId = "F5474A38-5AEA-454E-84E5-A62166EBBEA7";
shapes = (
{
ref = E;
},
{
pos = (112,149);
ref = hookabovecomb;
}
);
width = 523;
}
);
unicode = 7866;
},
{
glyphname = Emacron;
kernLeft = E;
kernRight = E;
lastChange = "2023-04-06 14:26:35 +0000";
layers = (
{
background = {
shapes = (
{
closed = 1;
nodes = (
(87,272,l),
(352,272,l),
(352,298,l),
(87,298,l),
(87,537,l),
(413,537,l),
(413,563,l),
(60,563,l),
(60,0,l),
(422,0,l),
(422,25,l),
(87,25,l)
);
},
{
closed = 1;
nodes = (
(347,617,l),
(347,643,l),
(125,643,l),
(125,617,l)
);
}
);
};
guides = (
{
pos = (370,617);
}
);
layerId = "D86F237C-A043-4FD6-9305-0CC5F899F330";
shapes = (
{
ref = E;
},
{
pos = (78,159);
ref = macroncomb;
}
);
width = 457;
},
{
background = {
shapes = (
{
closed = 1;
nodes = (
(187,229,l),
(402,229,l),
(402,341,l),
(187,341,l),
(187,444,l),
(476,444,l),
(476,563,l),
(50,563,l),
(50,0,l),
(487,0,l),
(487,111,l),
(187,111,l)
);
},
{
closed = 1;
nodes = (
(409,626,l),
(409,720,l),
(107,720,l),
(107,626,l)
);
}
);
};
guides = (
{
angle = 90;
pos = (258,579);
}
);
layerId = "F5474A38-5AEA-454E-84E5-A62166EBBEA7";
shapes = (
{
ref = E;
},
{
pos = (71,149);
ref = macroncomb;
}
);
width = 523;
}
);
unicode = 274;
},
{
glyphname = Eogonek;
kernLeft = E;
kernRight = E;
lastChange = "2023-04-06 13:47:51 +0000";
layers = (
{
background = {
shapes = (
{
closed = 1;
nodes = (
(422,-198,o),
(444,-155,o),
(444,-155,c),
(422,-140,l),
(422,-140,o),
(413,-174,o),
(372,-174,c),
(338,-174,o),
(320,-152,o),
(320,-123,c),
(320,-49,o),
(422,0,o),
(422,0,c),
(417,13,l),
(417,13,o),
(296,-37,o),
(296,-123,c),
(296,-165,o),
(323,-198,o),
(372,-198,c)
);
},
{
closed = 1;
nodes = (
(87,272,l),
(352,272,l),
(352,298,l),
(87,298,l),
(87,537,l),
(413,537,l),
(413,563,l),
(60,563,l),
(60,0,l),
(422,0,l),
(422,25,l),
(87,25,l)
);
}
);
};
layerId = "D86F237C-A043-4FD6-9305-0CC5F899F330";
shapes = (
{
ref = E;
},
{
pos = (258,2);
ref = ogonekcomb;
}
);
width = 457;
},
{
background = {
shapes = (
{
closed = 1;
nodes = (
(514,-180,o),
(553,-120,o),
(553,-120,c),
(482,-56,l),
(482,-56,o),
(465,-82,o),
(442,-82,c),
(427,-82,o),
(417,-74,o),
(417,-60,cs),
(417,-21,o),
(487,0,o),
(487,0,c),
(487,62,l),
(487,62,o),
(317,20,o),
(317,-85,c),
(317,-157,o),
(380,-180,o),
(429,-180,c)
);
},
{
closed = 1;
nodes = (
(187,229,l),
(402,229,l),
(402,341,l),
(187,341,l),
(187,444,l),
(476,444,l),
(476,563,l),
(50,563,l),
(50,0,l),
(487,0,l),
(487,111,l),
(187,111,l)
);
}
);
};
layerId = "F5474A38-5AEA-454E-84E5-A62166EBBEA7";
shapes = (
{
ref = E;
},
{
pos = (272,19);
ref = ogonekcomb;
}
);
width = 523;
}
);
unicode = 280;
},
{
glyphname = Etilde;
kernLeft = E;
kernRight = E;
lastChange = "2023-04-06 13:25:51 +0000";
layers = (
{
background = {
shapes = (
{
closed = 1;
nodes = (
(87,272,l),
(352,272,l),
(352,298,l),
(87,298,l),
(87,537,l),
(413,537,l),
(413,563,l),
(60,563,l),
(60,0,l),
(422,0,l),
(422,25,l),
(87,25,l)
);
},
{
closed = 1;
nodes = (
(225,623,o),
(279,623,cs),
(319,623,o),
(332,653,o),
(329,697,c),
(304,697,l),
(304,662,o),
(303,643,o),
(279,643,cs),
(240,643,o),
(237,696,o),
(182,696,cs),
(141,696,o),
(130,667,o),
(132,623,c),
(157,623,l),
(156,656,o),
(159,676,o),
(182,676,cs),
(219,676,o)
);
}
);
};
guides = (
{
pos = (132,618);
},
{
pos = (132,563);
}
);
layerId = "D86F237C-A043-4FD6-9305-0CC5F899F330";
shapes = (
{
ref = E;
},
{
pos = (52,159);
ref = tildecomb;
}
);
width = 457;
},
{
background = {
shapes = (
{
closed = 1;
nodes = (
(187,229,l),
(402,229,l),
(402,341,l),
(187,341,l),
(187,444,l),
(476,444,l),
(476,563,l),
(50,563,l),
(50,0,l),
(487,0,l),
(487,111,l),
(187,111,l)
);
},
{
closed = 1;
nodes = (
(242,627,o),
(318,627,cs),
(408,627,o),
(408,710,o),
(408,760,c),
(330,760,l),
(330,726,o),
(330,706,o),
(310,706,cs),
(277,706,o),
(273,764,o),
(199,764,cs),
(101,764,o),
(109,663,o),
(109,632,c),
(187,632,l),
(187,666,o),
(187,685,o),
(208,685,cs),
(244,685,o)
);
}
);
};
guides = (
{
pos = (365,626);
},
{
pos = (365,563);
},
{
angle = 90;
pos = (258,579);
}
);
layerId = "F5474A38-5AEA-454E-84E5-A62166EBBEA7";
shapes = (
{
ref = E;
},
{
pos = (69,149);
ref = tildecomb;
}
);
width = 523;
}
);
unicode = 7868;
},
{
glyphname = F;
lastChange = "2023-04-13 12:22:50 +0000";
layers = (
{
anchors = (
{
name = bottom;
pos = (242,0);
},
{
name = top;
pos = (242,563);
}
);
background = {
shapes = (
{
closed = 1;
nodes = (
(102,290,l),
(385,290,l),
(385,316,l),
(102,316,l),
(102,537,l),
(453,537,l),
(453,563,l),
(75,563,l),
(75,0,l),
(102,0,l)
);
}
);
};
layerId = "D86F237C-A043-4FD6-9305-0CC5F899F330";
shapes = (
{
closed = 1;
nodes = (
(102,290,l),
(385,290,l),
(385,316,l),
(102,316,l),
(102,537,l),
(453,537,l),
(453,563,l),
(75,563,l),
(75,0,l),
(102,0,l)
);
}
);
width = 483;
},
{
anchors = (
{
name = bottom;
pos = (235,0);
},
{
name = top;
pos = (235,563);
}
);
background = {
shapes = (
{
closed = 1;
nodes = (
(197,236,l),
(400,236,l),
(400,347,l),
(197,347,l),
(197,444,l),
(472,444,l),
(472,563,l),
(60,563,l),
(60,0,l),
(197,0,l)
);
}
);
};
layerId = "F5474A38-5AEA-454E-84E5-A62166EBBEA7";
shapes = (
{
closed = 1;
nodes = (
(197,236,l),
(400,236,l),
(400,347,l),
(197,347,l),
(197,444,l),
(472,444,l),
(472,563,l),
(60,563,l),
(60,0,l),
(197,0,l)
);
}
);
width = 470;
}
);
unicode = 70;
},
{
glyphname = G;
kernLeft = G;
kernRight = G;
lastChange = "2023-04-13 12:36:34 +0000";
layers = (
{
anchors = (
{
name = bottom;
pos = (298,0);
},
{
name = top;
pos = (298,563);
}
);
background = {
shapes = (
{
closed = 1;
nodes = (
(448,-14,o),
(511,91,o),
(523,150,c),
(525,150,l),
(533,0,l),
(555,0,l),
(555,251,l),
(329,251,l),
(329,226,l),
(517,226,l),
(510,89,o),
(425,10,o),
(293,10,cs),
(144,10,o),
(54,111,o),
(54,279,c),
(61,452,o),
(140,548,o),
(298,548,cs),
(419,548,o),
(493,492,o),
(518,379,c),
(543,380,l),
(521,506,o),
(428,573,o),
(298,573,cs),
(131,573,o),
(30,463,o),
(30,279,cs),
(30,96,o),
(131,-14,o),
(291,-14,cs)
);
}
);
};
guides = (
{
pos = (491,-14);
}
);
layerId = "D86F237C-A043-4FD6-9305-0CC5F899F330";
shapes = (
{
closed = 1;
nodes = (
(448,-14,o),
(511,91,o),
(523,150,c),
(525,150,l),
(533,0,l),
(555,0,l),
(555,251,l),
(329,251,l),
(329,226,l),
(517,226,l),
(510,89,o),
(425,10,o),
(293,10,cs),
(144,10,o),
(54,111,o),
(54,279,cs),
(54,447,o),
(140,548,o),
(298,548,cs),
(419,548,o),
(493,493,o),
(518,380,c),
(543,380,l),
(521,506,o),
(428,573,o),
(298,573,cs),
(131,573,o),
(30,463,o),
(30,279,cs),
(30,96,o),
(131,-14,o),
(291,-14,cs)
);
}
);
width = 596;
},
{
anchors = (
{
name = bottom;
pos = (318,0);
},
{
name = top;
pos = (318,563);
}
);
background = {
shapes = (
{
closed = 1;
nodes = (
(380,-10,o),
(443,27,o),
(468,72,c),
(470,72,l),
(500,0,l),
(593,0,l),
(593,292,l),
(376,292,l),
(376,192,l),
(467,192,l),
(443,138,o),
(380,126,o),
(330,126,cs),
(216,126,o),
(154,181,o),
(154,289,c),
(153,377,o),
(199,442,o),
(311,442,cs),
(363,442,o),
(431,426,o),
(447,356,c),
(582,377,l),
(552,505,o),
(476,573,o),
(311,573,cs),
(144,573,o),
(21,470,o),
(16,278,cs),
(11,88,o),
(123,-10,o),
(290,-10,cs)
);
}
);
};
guides = (
{
pos = (527,355);
},
{
pos = (398,573);
},
{
pos = (398,436);
}
);
layerId = "F5474A38-5AEA-454E-84E5-A62166EBBEA7";
shapes = (
{
closed = 1;
nodes = (
(380,-10,o),
(443,27,o),
(468,72,c),
(470,72,l),
(500,0,l),
(593,0,l),
(593,292,l),
(376,292,l),
(376,192,l),
(467,192,l),
(443,138,o),
(380,126,o),
(330,126,cs),
(216,126,o),
(154,181,o),
(154,289,c),
(153,377,o),
(199,442,o),
(311,442,cs),
(363,442,o),
(431,426,o),
(447,356,c),
(582,377,l),
(552,505,o),
(476,573,o),
(311,573,cs),
(144,573,o),
(21,470,o),
(16,278,cs),
(11,88,o),
(123,-10,o),
(290,-10,cs)
);
}
);
width = 636;
}
);
unicode = 71;
},
{
glyphname = Gbreve;
kernLeft = G;
kernRight = G;
lastChange = "2023-04-06 13:30:59 +0000";
layers = (
{
background = {
shapes = (
{
closed = 1;
nodes = (
(448,-14,o),
(511,91,o),
(523,150,c),
(525,150,l),
(533,0,l),
(555,0,l),
(555,251,l),
(329,251,l),
(329,226,l),
(517,226,l),
(510,89,o),
(425,10,o),
(293,10,cs),
(144,10,o),
(54,111,o),
(54,279,c),
(61,452,o),
(140,548,o),
(298,548,cs),
(419,548,o),
(493,492,o),
(518,379,c),
(543,380,l),
(521,506,o),
(428,573,o),
(298,573,cs),
(131,573,o),
(30,463,o),
(30,279,cs),
(30,96,o),
(131,-14,o),
(291,-14,cs)
);
},
{
closed = 1;
nodes = (
(351,620,o),
(390,651,o),
(390,696,c),
(367,696,l),
(367,651,o),
(331,645,o),
(288,645,cs),
(245,645,o),
(208,651,o),
(208,696,c),
(186,696,l),
(186,651,o),
(226,620,o),
(289,620,cs)
);
}
);
};
layerId = "D86F237C-A043-4FD6-9305-0CC5F899F330";
shapes = (
{
ref = G;
},
{
pos = (143,159);
ref = brevecomb;
}
);
width = 596;
},
{
background = {
shapes = (
{
closed = 1;
nodes = (
(380,-10,o),
(443,27,o),
(468,72,c),
(470,72,l),
(500,0,l),
(593,0,l),
(593,292,l),
(376,292,l),
(376,192,l),
(467,192,l),
(443,138,o),
(380,126,o),
(330,126,cs),
(216,126,o),
(154,181,o),
(154,289,c),
(153,377,o),
(199,442,o),
(311,442,cs),
(363,442,o),
(431,426,o),
(447,356,c),
(582,377,l),
(552,505,o),
(476,573,o),
(311,573,cs),
(144,573,o),
(21,470,o),
(16,278,cs),
(11,88,o),
(123,-10,o),
(290,-10,cs)
);
},
{
closed = 1;
nodes = (
(406,625,o),
(457,671,o),
(457,744,c),
(360,744,l),
(360,709,o),
(341,698,o),
(311,698,cs),
(282,698,o),
(261,711,o),
(261,744,c),
(164,744,l),
(164,670,o),
(218,625,o),
(311,625,cs)
);
}
);
};
layerId = "F5474A38-5AEA-454E-84E5-A62166EBBEA7";
shapes = (
{
ref = G;
},
{
pos = (117,149);
ref = brevecomb;
}
);
width = 636;
}
);
unicode = 286;
},
{
glyphname = Gcommaaccent;
kernLeft = G;
kernRight = G;
lastChange = "2023-04-06 13:24:03 +0000";
layers = (
{
background = {
shapes = (
{
closed = 1;
nodes = (
(448,-14,o),
(511,91,o),
(523,150,c),
(525,150,l),
(533,0,l),
(555,0,l),
(555,251,l),
(329,251,l),
(329,226,l),
(517,226,l),
(510,89,o),
(425,10,o),
(293,10,cs),
(144,10,o),
(54,111,o),
(54,279,c),
(61,452,o),
(140,548,o),
(298,548,cs),
(419,548,o),
(493,492,o),
(518,379,c),
(543,380,l),
(521,506,o),
(428,573,o),
(298,573,cs),
(131,573,o),
(30,463,o),
(30,279,cs),
(30,96,o),
(131,-14,o),
(291,-14,cs)
);
},
{
closed = 1;
nodes = (
(260,-199,ls),
(295,-199,o),
(304,-169,o),
(304,-107,cs),
(304,-81,o),
(300,-68,o),
(278,-68,cs),
(257,-68,o),
(252,-81,o),
(252,-96,cs),
(252,-121,o),
(265,-131,o),
(287,-126,c),
(287,-146,o),
(288,-169,o),
(257,-169,cs),
(246,-169,l),
(246,-199,l)
);
}
);
};
layerId = "D86F237C-A043-4FD6-9305-0CC5F899F330";
shapes = (
{
ref = G;
},
{
pos = (224,0);
ref = commaaccentcomb;
}
);
width = 596;
},
{
background = {
shapes = (
{
closed = 1;
nodes = (
(380,-10,o),
(443,27,o),
(468,72,c),
(470,72,l),
(500,0,l),
(593,0,l),
(593,292,l),
(376,292,l),
(376,192,l),
(467,192,l),
(443,138,o),
(380,126,o),
(330,126,cs),
(216,126,o),
(154,181,o),
(154,289,c),
(153,377,o),
(199,442,o),
(311,442,cs),
(363,442,o),
(431,426,o),
(447,356,c),
(582,377,l),
(552,505,o),
(476,573,o),
(311,573,cs),
(144,573,o),
(21,470,o),
(16,278,cs),
(11,88,o),
(123,-10,o),
(290,-10,cs)
);
},
{
closed = 1;
nodes = (
(275,-296,ls),
(356,-296,o),
(388,-217,o),
(388,-135,cs),
(388,-55,o),
(358,-38,o),
(318,-38,cs),
(264,-38,o),
(244,-69,o),
(244,-109,cs),
(244,-148,o),
(264,-180,o),
(328,-180,c),
(328,-208,o),
(311,-211,o),
(275,-211,cs),
(244,-211,l),
(244,-296,l)
);
}
);
};
layerId = "F5474A38-5AEA-454E-84E5-A62166EBBEA7";
shapes = (
{
ref = G;
},
{
pos = (187,0);
ref = commaaccentcomb;
}
);
width = 636;
}
);
unicode = 290;
},
{
glyphname = Gdotaccent;
kernLeft = G;
kernRight = G;
lastChange = "2023-04-06 14:11:08 +0000";
layers = (
{
background = {
shapes = (
{
closed = 1;
nodes = (
(448,-14,o),
(511,91,o),
(523,150,c),
(525,150,l),
(533,0,l),
(555,0,l),
(555,251,l),
(329,251,l),
(329,226,l),
(517,226,l),
(510,89,o),
(425,10,o),
(293,10,cs),
(144,10,o),
(54,111,o),
(54,279,c),
(61,452,o),
(140,548,o),
(298,548,cs),
(419,548,o),
(493,492,o),
(518,379,c),
(543,380,l),
(521,506,o),
(428,573,o),
(298,573,cs),
(131,573,o),
(30,463,o),
(30,279,cs),
(30,96,o),
(131,-14,o),
(291,-14,cs)
);
},
{
closed = 1;
nodes = (
(316,620,o),
(322,636,o),
(322,654,c),
(322,671,o),
(316,687,o),
(289,687,c),
(262,687,o),
(255,671,o),
(255,654,c),
(255,636,o),
(262,620,o),
(289,620,c)
);
}
);
};
layerId = "D86F237C-A043-4FD6-9305-0CC5F899F330";
shapes = (
{
ref = G;
},
{
pos = (219,159);
ref = dotaccentcomb;
}
);
width = 596;
},
{
background = {
shapes = (
{
closed = 1;
nodes = (
(380,-10,o),
(443,27,o),
(468,72,c),
(470,72,l),
(500,0,l),
(593,0,l),
(593,292,l),
(376,292,l),
(376,192,l),
(467,192,l),
(443,138,o),
(380,126,o),
(330,126,cs),
(216,126,o),
(154,181,o),
(154,289,c),
(153,377,o),
(199,442,o),
(311,442,cs),
(363,442,o),
(431,426,o),
(447,356,c),
(582,377,l),
(552,505,o),
(476,573,o),
(311,573,cs),
(144,573,o),
(21,470,o),
(16,278,cs),
(11,88,o),
(123,-10,o),
(290,-10,cs)
);
},
{
closed = 1;
nodes = (
(372,625,o),
(386,660,o),
(386,701,c),
(386,740,o),
(372,775,o),
(312,775,c),
(252,775,o),
(236,740,o),
(236,701,c),
(236,660,o),
(252,625,o),
(312,625,c)
);
}
);
};
layerId = "F5474A38-5AEA-454E-84E5-A62166EBBEA7";
shapes = (
{
ref = G;
},
{
pos = (198,149);
ref = dotaccentcomb;
}
);
width = 636;
}
);
unicode = 288;
},
{
glyphname = H;
lastChange = "2023-04-13 12:22:50 +0000";
layers = (
{
anchors = (
{
name = bottom;
pos = (287,0);
},
{
name = center;
pos = (287,282);
},
{
name = top;
pos = (287,563);
},
{
name = topleft;
pos = (20,563);
}
);
background = {
shapes = (
{
closed = 1;
nodes = (
(102,563,l),
(75,563,l),
(75,0,l),
(102,0,l)
);
},
{
closed = 1;
nodes = (
(474,0,l),
(499,0,l),
(499,563,l),
(474,563,l)
);
},
{
closed = 1;
nodes = (
(480,306,l),
(96,306,l),
(96,281,l),
(480,281,l)
);
}
);
};
layerId = "D86F237C-A043-4FD6-9305-0CC5F899F330";
shapes = (
{
closed = 1;
nodes = (
(102,563,l),
(75,563,l),
(75,0,l),
(102,0,l)
);
},
{
closed = 1;
nodes = (
(474,0,l),
(499,0,l),
(499,563,l),
(474,563,l)
);
},
{
closed = 1;
nodes = (
(480,306,l),
(96,306,l),
(96,281,l),
(480,281,l)
);
}
);
width = 574;
},
{
anchors = (
{
name = bottom;
pos = (298,0);
},
{
name = center;
pos = (298,282);
},
{
name = top;
pos = (298,563);
},
{
name = topleft;
pos = (20,563);
}
);
background = {
shapes = (
{
closed = 1;
nodes = (
(190,563,l),
(50,563,l),
(50,0,l),
(190,0,l)
);
},
{
closed = 1;
nodes = (
(405,0,l),
(545,0,l),
(545,563,l),
(405,563,l)
);
},
{
closed = 1;
nodes = (
(494,336,l),
(110,336,l),
(110,230,l),
(494,230,l)
);
}
);
};
layerId = "F5474A38-5AEA-454E-84E5-A62166EBBEA7";
shapes = (
{
closed = 1;
nodes = (
(190,563,l),
(50,563,l),
(50,0,l),
(190,0,l)
);
},
{
closed = 1;
nodes = (
(405,0,l),
(545,0,l),
(545,563,l),
(405,563,l)
);
},
{
closed = 1;
nodes = (
(494,336,l),
(110,336,l),
(110,230,l),
(494,230,l)
);
}
);
width = 595;
}
);
unicode = 72;
},
{
glyphname = Hbar;
lastChange = "2023-04-13 12:22:50 +0000";
layers = (
{
background = {
shapes = (
{
closed = 1;
nodes = (
(499,0,l),
(499,563,l),
(474,563,l),
(474,0,l)
);
},
{
closed = 1;
nodes = (
(102,0,l),
(102,563,l),
(75,563,l),
(75,0,l)
);
},
{
closed = 1;
nodes = (
(480,281,l),
(480,306,l),
(96,306,l),
(96,281,l)
);
},
{
closed = 1;
nodes = (
(549,434,l),
(549,459,l),
(25,459,l),
(25,434,l)
);
}
);
};
guides = (
{
angle = 90;
pos = (499,380);
},
{
angle = 90;
pos = (534,380);
},
{
angle = 90;
pos = (40,380);
},
{
angle = 90;
pos = (75,380);
}
);
layerId = "D86F237C-A043-4FD6-9305-0CC5F899F330";
shapes = (
{
closed = 1;
nodes = (
(549,434,l),
(549,459,l),
(25,459,l),
(25,434,l)
);
},
{
ref = H;
}
);
width = 579;
},
{
background = {
shapes = (
{
closed = 1;
nodes = (
(545,0,l),
(545,563,l),
(405,563,l),
(405,0,l)
);
},
{
closed = 1;
nodes = (
(190,0,l),
(190,563,l),
(50,563,l),
(50,0,l)
);
},
{
closed = 1;
nodes = (
(494,230,l),
(494,336,l),
(110,336,l),
(110,230,l)
);
},
{
closed = 1;
nodes = (
(591,404,l),
(591,500,l),
(4,500,l),
(4,404,l)
);
}
);
};
guides = (
{
angle = 90;
pos = (545,380);
},
{
angle = 90;
pos = (591,380);
},
{
angle = 90;
pos = (4,380);
},
{
angle = 90;
pos = (50,380);
}
);
layerId = "F5474A38-5AEA-454E-84E5-A62166EBBEA7";
shapes = (
{
closed = 1;
nodes = (
(591,404,l),
(591,500,l),
(4,500,l),
(4,404,l)
);
},
{
ref = H;
}
);
width = 600;
}
);
unicode = 294;
},
{
glyphname = I;
kernLeft = I;
kernRight = I;
lastChange = "2023-04-13 12:22:50 +0000";
layers = (
{
anchors = (
{
name = bottom;
pos = (153,0);
},
{
name = ogonek;
pos = (193,0);
},
{
name = top;
pos = (148,563);
},
{
name = topleft;
pos = (20,563);
}
);
background = {
shapes = (
{
closed = 1;
nodes = (
(55,24,l),
(55,0,l),
(240,0,l),
(240,24,l)
);
},
{
closed = 1;
nodes = (
(240,538,l),
(240,563,l),
(55,563,l),
(55,538,l)
);
},
{
closed = 1;
nodes = (
(161,18,l),
(161,545,l),
(135,545,l),
(135,18,l)
);
}
);
};
layerId = "D86F237C-A043-4FD6-9305-0CC5F899F330";
shapes = (
{
closed = 1;
nodes = (
(161,18,l),
(161,545,l),
(135,545,l),
(135,18,l)
);
},
{
closed = 1;
nodes = (
(240,0,l),
(240,24,l),
(55,24,l),
(55,0,l)
);
},
{
closed = 1;
nodes = (
(240,538,l),
(240,563,l),
(55,563,l),
(55,538,l)
);
}
);
width = 305;
},
{
anchors = (
{
name = bottom;
pos = (208,0);
},
{
name = ogonek;
pos = (264,0);
},
{
name = top;
pos = (206,563);
},
{
name = topleft;
pos = (20,563);
}
);
background = {
shapes = (
{
closed = 1;
nodes = (
(63,119,l),
(63,0,l),
(347,0,l),
(347,119,l)
);
},
{
closed = 1;
nodes = (
(347,444,l),
(347,563,l),
(63,563,l),
(63,444,l)
);
},
{
closed = 1;
nodes = (
(275,18,l),
(275,545,l),
(136,545,l),
(136,18,l)
);
}
);
};
layerId = "F5474A38-5AEA-454E-84E5-A62166EBBEA7";
shapes = (
{
closed = 1;
nodes = (
(275,18,l),
(275,545,l),
(136,545,l),
(136,18,l)
);
},
{
closed = 1;
nodes = (
(347,0,l),
(347,119,l),
(63,119,l),
(63,0,l)
);
},
{
closed = 1;
nodes = (
(347,444,l),
(347,563,l),
(63,563,l),
(63,444,l)
);
}
);
width = 415;
}
);
unicode = 73;
},
{
color = 9;
glyphname = IJ;
lastChange = "2023-04-06 13:24:03 +0000";
layers = (
{
background = {
shapes = (
{
closed = 1;
nodes = (
(55,24,l),
(55,0,l),
(240,0,l),
(240,24,l)
);
},
{
closed = 1;
nodes = (
(240,538,l),
(240,563,l),
(55,563,l),
(55,538,l)
);
},
{
closed = 1;
nodes = (
(161,18,l),
(161,545,l),
(135,545,l),
(135,18,l)
);
},
{
closed = 1;
nodes = (
(584,-10,o),
(634,42,o),
(634,142,c),
(634,545,l),
(608,545,l),
(608,142,l),
(608,53,o),
(571,14,o),
(492,14,c),
(397,14,o),
(374,78,o),
(374,124,c),
(350,124,l),
(350,4,o),
(457,-10,o),
(492,-10,c)
);
},
{
closed = 1;
nodes = (
(634,538,l),
(634,562,l),
(501,562,l),
(501,538,l)
);
}
);
};
layerId = "D86F237C-A043-4FD6-9305-0CC5F899F330";
shapes = (
{
ref = I;
},
{
pos = (305,0);
ref = J;
}
);
width = 699;
},
{
background = {
shapes = (
{
closed = 1;
nodes = (
(63,119,l),
(63,0,l),
(347,0,l),
(347,119,l)
);
},
{
closed = 1;
nodes = (
(347,444,l),
(347,563,l),
(63,563,l),
(63,444,l)
);
},
{
closed = 1;
nodes = (
(275,18,l),
(275,545,l),
(136,545,l),
(136,18,l)
);
},
{
closed = 1;
nodes = (
(836,-10,o),
(863,90,o),
(863,246,c),
(863,545,l),
(723,545,l),
(723,222,l),
(723,133,o),
(701,110,o),
(653,110,c),
(597,110,o),
(582,149,o),
(582,195,c),
(450,195,l),
(450,75,o),
(507,-10,o),
(658,-10,c)
);
},
{
closed = 1;
nodes = (
(863,457,l),
(863,563,l),
(605,563,l),
(605,457,l)
);
}
);
};
layerId = "F5474A38-5AEA-454E-84E5-A62166EBBEA7";
shapes = (
{
ref = I;
},
{
pos = (415,0);
ref = J;
}
);
width = 923;
}
);
unicode = 306;
},
{
glyphname = Iacute;
kernLeft = I;
kernRight = I;
lastChange = "2023-04-06 14:13:06 +0000";
layers = (
{
background = {
shapes = (
{
closed = 1;
nodes = (
(55,24,l),
(55,0,l),
(240,0,l),
(240,24,l)
);
},
{
closed = 1;
nodes = (
(240,538,l),
(240,563,l),
(55,563,l),
(55,538,l)
);
},
{
closed = 1;
nodes = (
(161,18,l),
(161,545,l),
(135,545,l),
(135,18,l)
);
},
{
closed = 1;
nodes = (
(217,711,l),
(217,722,l),
(187,722,l),
(130,616,l),
(130,610,l),
(146,610,l)
);
}
);
};
layerId = "D86F237C-A043-4FD6-9305-0CC5F899F330";
shapes = (
{
ref = I;
},
{
pos = (101,159);
ref = acutecomb;
}
);
width = 305;
},
{
background = {
shapes = (
{
closed = 1;
nodes = (
(63,119,l),
(63,0,l),
(347,0,l),
(347,119,l)
);
},
{
closed = 1;
nodes = (
(347,444,l),
(347,563,l),
(63,563,l),
(63,444,l)
);
},
{
closed = 1;
nodes = (
(275,18,l),
(275,545,l),
(136,545,l),
(136,18,l)
);
},
{
closed = 1;
nodes = (
(318,702,l),
(318,724,l),
(203,724,l),
(164,627,l),
(164,610,l),
(226,610,l)
);
}
);
};
guides = (
{
pos = (310,626);
},
{
angle = 90;
pos = (203,579);
}
);
layerId = "F5474A38-5AEA-454E-84E5-A62166EBBEA7";
shapes = (
{
ref = I;
},
{
pos = (143,149);
ref = acutecomb;
}
);
width = 415;
}
);
unicode = 205;
},
{
glyphname = Icircumflex;
kernLeft = I;
kernRight = I;
lastChange = "2023-04-06 14:13:06 +0000";
layers = (
{
background = {
shapes = (
{
closed = 1;
nodes = (
(55,24,l),
(55,0,l),
(240,0,l),
(240,24,l)
);
},
{
closed = 1;
nodes = (
(240,538,l),
(240,563,l),
(55,563,l),
(55,538,l)
);
},
{
closed = 1;
nodes = (
(161,18,l),
(161,545,l),
(135,545,l),
(135,18,l)
);
},
{
closed = 1;
nodes = (
(73,639,l),
(148,721,l),
(150,721,l),
(226,639,l),
(257,639,l),
(257,645,l),
(156,743,l),
(142,743,l),
(42,645,l),
(42,639,l)
);
}
);
};
guides = (
{
angle = 90;
pos = (149,437);
}
);
layerId = "D86F237C-A043-4FD6-9305-0CC5F899F330";
shapes = (
{
ref = I;
},
{
pos = (-45,159);
ref = circumflexcomb;
}
);
width = 305;
},
{
background = {
shapes = (
{
closed = 1;
nodes = (
(63,119,l),
(63,0,l),
(347,0,l),
(347,119,l)
);
},
{
closed = 1;
nodes = (
(347,444,l),
(347,563,l),
(63,563,l),
(63,444,l)
);
},
{
closed = 1;
nodes = (
(275,18,l),
(275,545,l),
(136,545,l),
(136,18,l)
);
},
{
closed = 1;
nodes = (
(170,617,l),
(199,653,l),
(205,653,l),
(237,617,l),
(357,617,l),
(357,627,l),
(231,741,l),
(173,741,l),
(46,627,l),
(46,617,l)
);
}
);
};
guides = (
{
angle = 90;
pos = (203,579);
},
{
pos = (310,626);
}
);
layerId = "F5474A38-5AEA-454E-84E5-A62166EBBEA7";
shapes = (
{
ref = I;
},
{
pos = (-39,149);
ref = circumflexcomb;
}
);
width = 415;
}
);
unicode = 206;
},
{
glyphname = Idieresis;
kernLeft = I;
kernRight = I;
lastChange = "2023-04-06 14:13:06 +0000";
layers = (
{
background = {
shapes = (
{
closed = 1;
nodes = (
(55,24,l),
(55,0,l),
(240,0,l),
(240,24,l)
);
},
{
closed = 1;
nodes = (
(240,538,l),
(240,563,l),
(55,563,l),
(55,538,l)
);
},
{
closed = 1;
nodes = (
(161,18,l),
(161,545,l),
(135,545,l),
(135,18,l)
);
},
{
closed = 1;
nodes = (
(111,620,o),
(117,636,o),
(117,654,c),
(117,671,o),
(111,687,o),
(84,687,c),
(57,687,o),
(50,671,o),
(50,654,c),
(50,636,o),
(57,620,o),
(84,620,c)
);
},
{
closed = 1;
nodes = (
(243,620,o),
(249,636,o),
(249,654,c),
(249,671,o),
(243,687,o),
(216,687,c),
(189,687,o),
(182,671,o),
(182,654,c),
(182,636,o),
(189,620,o),
(216,620,c)
);
}
);
};
guides = (
{
angle = 90;
pos = (149,437);
},
{
pos = (253,563);
},
{
pos = (255,617);
}
);
layerId = "D86F237C-A043-4FD6-9305-0CC5F899F330";
shapes = (
{
ref = I;
},
{
pos = (3,159);
ref = dieresiscomb;
}
);
width = 305;
},
{
background = {
shapes = (
{
closed = 1;
nodes = (
(63,119,l),
(63,0,l),
(347,0,l),
(347,119,l)
);
},
{
closed = 1;
nodes = (
(347,444,l),
(347,563,l),
(63,563,l),
(63,444,l)
);
},
{
closed = 1;
nodes = (
(275,18,l),
(275,545,l),
(136,545,l),
(136,18,l)
);
},
{
closed = 1;
nodes = (
(161,624,o),
(175,659,o),
(175,700,c),
(175,739,o),
(161,774,o),
(101,774,c),
(41,774,o),
(25,739,o),
(25,700,c),
(25,659,o),
(41,624,o),
(101,624,c)
);
},
{
closed = 1;
nodes = (
(367,624,o),
(381,659,o),
(381,700,c),
(381,739,o),
(367,774,o),
(307,774,c),
(247,774,o),
(231,739,o),
(231,700,c),
(231,659,o),
(247,624,o),
(307,624,c)
);
}
);
};
guides = (
{
angle = 90;
pos = (203,579);
},
{
pos = (310,626);
}
);
layerId = "F5474A38-5AEA-454E-84E5-A62166EBBEA7";
shapes = (
{
ref = I;
},
{
pos = (-17,149);
ref = dieresiscomb;
}
);
width = 415;
}
);
unicode = 207;
},
{
glyphname = Idotaccent;
kernLeft = I;
kernRight = I;
lastChange = "2023-04-06 14:13:06 +0000";
layers = (
{
background = {
shapes = (
{
closed = 1;
nodes = (
(55,24,l),
(55,0,l),
(240,0,l),
(240,24,l)
);
},
{
closed = 1;
nodes = (
(240,538,l),
(240,563,l),
(55,563,l),
(55,538,l)
);
},
{
closed = 1;
nodes = (
(161,18,l),
(161,545,l),
(135,545,l),
(135,18,l)
);
},
{
closed = 1;
nodes = (
(175,620,o),
(181,636,o),
(181,654,c),
(181,671,o),
(175,687,o),
(148,687,c),
(121,687,o),
(114,671,o),
(114,654,c),
(114,636,o),
(121,620,o),
(148,620,c)
);
}
);
};
layerId = "D86F237C-A043-4FD6-9305-0CC5F899F330";
shapes = (
{
ref = I;
},
{
pos = (69,159);
ref = dotaccentcomb;
}
);
width = 305;
},
{
background = {
shapes = (
{
closed = 1;
nodes = (
(63,119,l),
(63,0,l),
(347,0,l),
(347,119,l)
);
},
{
closed = 1;
nodes = (
(347,444,l),
(347,563,l),
(63,563,l),
(63,444,l)
);
},
{
closed = 1;
nodes = (
(275,18,l),
(275,545,l),
(136,545,l),
(136,18,l)
);
},
{
closed = 1;
nodes = (
(181,670,o),
(195,705,o),
(195,746,c),
(195,785,o),
(181,820,o),
(121,820,c),
(61,820,o),
(45,785,o),
(45,746,c),
(45,705,o),
(61,670,o),
(121,670,c)
);
}
);
};
layerId = "F5474A38-5AEA-454E-84E5-A62166EBBEA7";
shapes = (
{
ref = I;
},
{
pos = (86,149);
ref = dotaccentcomb;
}
);
width = 415;
}
);
unicode = 304;
},
{
glyphname = Idotbelow;
kernLeft = I;
kernRight = I;
lastChange = "2023-04-06 13:28:22 +0000";
layers = (
{
background = {
shapes = (
{
closed = 1;
nodes = (
(55,24,l),
(55,0,l),
(240,0,l),
(240,24,l)
);
},
{
closed = 1;
nodes = (
(240,538,l),
(240,563,l),
(55,563,l),
(55,538,l)
);
},
{
closed = 1;
nodes = (
(161,18,l),
(161,545,l),
(135,545,l),
(135,18,l)
);
},
{
closed = 1;
nodes = (
(171,-123,o),
(176,-110,o),
(176,-95,c),
(176,-81,o),
(171,-68,o),
(149,-68,c),
(127,-68,o),
(121,-81,o),
(121,-95,c),
(121,-110,o),
(127,-123,o),
(149,-123,c)
);
}
);
};
guides = (
{
angle = 90;
pos = (148,-56);
}
);
layerId = "D86F237C-A043-4FD6-9305-0CC5F899F330";
shapes = (
{
ref = I;
},
{
pos = (80,0);
ref = dotbelowcomb;
}
);
width = 305;
},
{
background = {
shapes = (
{
closed = 1;
nodes = (
(63,119,l),
(63,0,l),
(347,0,l),
(347,119,l)
);
},
{
closed = 1;
nodes = (
(347,444,l),
(347,563,l),
(63,563,l),
(63,444,l)
);
},
{
closed = 1;
nodes = (
(275,18,l),
(275,545,l),
(136,545,l),
(136,18,l)
);
},
{
closed = 1;
nodes = (
(249,-201,o),
(261,-171,o),
(261,-135,c),
(261,-101,o),
(249,-71,o),
(197,-71,c),
(145,-71,o),
(131,-101,o),
(131,-135,c),
(131,-171,o),
(145,-201,o),
(197,-201,c)
);
}
);
};
layerId = "F5474A38-5AEA-454E-84E5-A62166EBBEA7";
shapes = (
{
ref = I;
},
{
pos = (98,0);
ref = dotbelowcomb;
}
);
width = 415;
}
);
unicode = 7882;
},
{
glyphname = Igrave;
kernLeft = I;
kernRight = I;
lastChange = "2023-04-06 14:13:06 +0000";
layers = (
{
background = {
shapes = (
{
closed = 1;
nodes = (
(55,24,l),
(55,0,l),
(240,0,l),
(240,24,l)
);
},
{
closed = 1;
nodes = (
(240,538,l),
(240,563,l),
(55,563,l),
(55,538,l)
);
},
{
closed = 1;
nodes = (
(161,18,l),
(161,545,l),
(135,545,l),
(135,18,l)
);
},
{
closed = 1;
nodes = (
(145,610,l),
(145,616,l),
(88,722,l),
(58,722,l),
(58,711,l),
(129,610,l)
);
}
);
};
layerId = "D86F237C-A043-4FD6-9305-0CC5F899F330";
shapes = (
{
ref = I;
},
{
pos = (43,159);
ref = gravecomb;
}
);
width = 305;
},
{
background = {
shapes = (
{
closed = 1;
nodes = (
(63,119,l),
(63,0,l),
(347,0,l),
(347,119,l)
);
},
{
closed = 1;
nodes = (
(347,444,l),
(347,563,l),
(63,563,l),
(63,444,l)
);
},
{
closed = 1;
nodes = (
(275,18,l),
(275,545,l),
(136,545,l),
(136,18,l)
);
},
{
closed = 1;
nodes = (
(220,610,l),
(220,627,l),
(181,724,l),
(66,724,l),
(66,702,l),
(158,610,l)
);
}
);
};
layerId = "F5474A38-5AEA-454E-84E5-A62166EBBEA7";
shapes = (
{
ref = I;
},
{
pos = (45,149);
ref = gravecomb;
}
);
width = 415;
}
);
unicode = 204;
},
{
glyphname = Ihookabove;
kernLeft = I;
kernRight = I;
lastChange = "2023-04-13 13:31:27 +0000";
layers = (
{
background = {
shapes = (
{
closed = 1;
nodes = (
(55,24,l),
(55,0,l),
(240,0,l),
(240,24,l)
);
},
{
closed = 1;
nodes = (
(240,538,l),
(240,563,l),
(55,563,l),
(55,538,l)
);
},
{
closed = 1;
nodes = (
(161,18,l),
(161,545,l),
(135,545,l),
(135,18,l)
);
},
{
closed = 1;
nodes = (
(158,617,l),
(158,644,o),
(209,650,o),
(209,696,cs),
(209,757,o),
(111,760,o),
(94,696,c),
(116,690,l),
(131,736,o),
(186,727,o),
(186,693,cs),
(186,660,o),
(137,651,o),
(131,623,c),
(131,617,l)
);
}
);
};
layerId = "D86F237C-A043-4FD6-9305-0CC5F899F330";
shapes = (
{
ref = I;
},
{
pos = (62,159);
ref = hookabovecomb;
}
);
width = 305;
},
{
background = {
shapes = (
{
closed = 1;
nodes = (
(63,119,l),
(63,0,l),
(347,0,l),
(347,119,l)
);
},
{
closed = 1;
nodes = (
(347,444,l),
(347,563,l),
(63,563,l),
(63,444,l)
);
},
{
closed = 1;
nodes = (
(275,18,l),
(275,545,l),
(136,545,l),
(136,18,l)
);
},
{
closed = 1;
nodes = (
(246,620,l),
(261,650,o),
(311,660,o),
(311,726,cs),
(311,843,o),
(131,848,o),
(102,746,c),
(154,709,l),
(169,741,o),
(229,742,o),
(229,711,cs),
(229,674,o),
(174,666,o),
(161,640,c),
(161,620,l)
);
}
);
};
layerId = "F5474A38-5AEA-454E-84E5-A62166EBBEA7";
shapes = (
{
ref = I;
},
{
pos = (56,149);
ref = hookabovecomb;
}
);
width = 415;
}
);
unicode = 7880;
},
{
glyphname = Imacron;
kernLeft = I;
kernRight = I;
lastChange = "2023-04-06 14:26:35 +0000";
layers = (
{
background = {
shapes = (
{
closed = 1;
nodes = (
(55,24,l),
(55,0,l),
(240,0,l),
(240,24,l)
);
},
{
closed = 1;
nodes = (
(240,538,l),
(240,563,l),
(55,563,l),
(55,538,l)
);
},
{
closed = 1;
nodes = (
(161,18,l),
(161,545,l),
(135,545,l),
(135,18,l)
);
},
{
closed = 1;
nodes = (
(260,617,l),
(260,643,l),
(38,643,l),
(38,617,l)
);
}
);
};
guides = (
{
angle = 90;
pos = (149,437);
}
);
layerId = "D86F237C-A043-4FD6-9305-0CC5F899F330";
shapes = (
{
ref = I;
},
{
pos = (-3,159);
ref = macroncomb;
}
);
width = 305;
},
{
background = {
shapes = (
{
closed = 1;
nodes = (
(63,119,l),
(63,0,l),
(347,0,l),
(347,119,l)
);
},
{
closed = 1;
nodes = (
(347,444,l),
(347,563,l),
(63,563,l),
(63,444,l)
);
},
{
closed = 1;
nodes = (
(275,18,l),
(275,545,l),
(136,545,l),
(136,18,l)
);
},
{
closed = 1;
nodes = (
(354,626,l),
(354,720,l),
(52,720,l),
(52,626,l)
);
}
);
};
guides = (
{
angle = 90;
pos = (203,579);
}
);
layerId = "F5474A38-5AEA-454E-84E5-A62166EBBEA7";
shapes = (
{
ref = I;
},
{
pos = (15,149);
ref = macroncomb;
}
);
width = 415;
}
);
unicode = 298;
},
{
glyphname = Iogonek;
kernLeft = I;
kernRight = I;
lastChange = "2023-04-06 13:47:35 +0000";
layers = (
{
background = {
shapes = (
{
closed = 1;
nodes = (
(198,-198,o),
(220,-155,o),
(220,-155,c),
(198,-140,l),
(198,-140,o),
(189,-174,o),
(148,-174,c),
(114,-174,o),
(96,-152,o),
(96,-123,c),
(96,-49,o),
(198,0,o),
(198,0,c),
(193,13,l),
(193,13,o),
(72,-37,o),
(72,-123,c),
(72,-165,o),
(99,-198,o),
(148,-198,c)
);
},
{
closed = 1;
nodes = (
(55,24,l),
(55,0,l),
(240,0,l),
(240,24,l)
);
},
{
closed = 1;
nodes = (
(240,538,l),
(240,563,l),
(55,563,l),
(55,538,l)
);
},
{
closed = 1;
nodes = (
(161,18,l),
(161,545,l),
(135,545,l),
(135,18,l)
);
}
);
};
layerId = "D86F237C-A043-4FD6-9305-0CC5F899F330";
shapes = (
{
ref = I;
},
{
pos = (34,1);
ref = ogonekcomb;
}
);
width = 305;
},
{
background = {
shapes = (
{
closed = 1;
nodes = (
(295,-180,o),
(334,-120,o),
(334,-120,c),
(263,-56,l),
(263,-56,o),
(246,-82,o),
(223,-82,c),
(208,-82,o),
(198,-74,o),
(198,-60,cs),
(198,-21,o),
(268,0,o),
(268,0,c),
(268,62,l),
(268,62,o),
(98,20,o),
(98,-85,c),
(98,-157,o),
(161,-180,o),
(210,-180,c)
);
},
{
closed = 1;
nodes = (
(63,119,l),
(63,0,l),
(347,0,l),
(347,119,l)
);
},
{
closed = 1;
nodes = (
(347,444,l),
(347,563,l),
(63,563,l),
(63,444,l)
);
},
{
closed = 1;
nodes = (
(275,18,l),
(275,545,l),
(136,545,l),
(136,18,l)
);
}
);
};
layerId = "F5474A38-5AEA-454E-84E5-A62166EBBEA7";
shapes = (
{
ref = I;
},
{
pos = (53,19);
ref = ogonekcomb;
}
);
width = 415;
}
);
unicode = 302;
},
{
glyphname = Itilde;
kernLeft = I;
kernRight = I;
lastChange = "2023-04-06 14:13:06 +0000";
layers = (
{
background = {
shapes = (
{
closed = 1;
nodes = (
(55,24,l),
(55,0,l),
(240,0,l),
(240,24,l)
);
},
{
closed = 1;
nodes = (
(240,538,l),
(240,563,l),
(55,563,l),
(55,538,l)
);
},
{
closed = 1;
nodes = (
(161,18,l),
(161,545,l),
(135,545,l),
(135,18,l)
);
},
{
closed = 1;
nodes = (
(143,618,o),
(197,618,cs),
(237,618,o),
(250,648,o),
(247,692,c),
(222,692,l),
(222,657,o),
(221,638,o),
(197,638,cs),
(158,638,o),
(155,691,o),
(100,691,cs),
(59,691,o),
(48,662,o),
(50,618,c),
(75,618,l),
(74,651,o),
(77,671,o),
(100,671,cs),
(137,671,o)
);
}
);
};
guides = (
{
angle = 90;
pos = (148,-56);
}
);
layerId = "D86F237C-A043-4FD6-9305-0CC5F899F330";
shapes = (
{
ref = I;
},
{
pos = (-29,159);
ref = tildecomb;
}
);
width = 305;
},
{
background = {
shapes = (
{
closed = 1;
nodes = (
(63,119,l),
(63,0,l),
(347,0,l),
(347,119,l)
);
},
{
closed = 1;
nodes = (
(347,444,l),
(347,563,l),
(63,563,l),
(63,444,l)
);
},
{
closed = 1;
nodes = (
(275,18,l),
(275,545,l),
(136,545,l),
(136,18,l)
);
},
{
closed = 1;
nodes = (
(188,628,o),
(264,628,cs),
(354,628,o),
(354,711,o),
(354,761,c),
(276,761,l),
(276,727,o),
(276,707,o),
(256,707,cs),
(223,707,o),
(219,765,o),
(145,765,cs),
(47,765,o),
(55,664,o),
(55,633,c),
(133,633,l),
(133,667,o),
(133,686,o),
(154,686,cs),
(190,686,o)
);
}
);
};
guides = (
{
angle = 90;
pos = (205,345);
}
);
layerId = "F5474A38-5AEA-454E-84E5-A62166EBBEA7";
shapes = (
{
ref = I;
},
{
pos = (13,149);
ref = tildecomb;
}
);
width = 415;
}
);
unicode = 296;
},
{
glyphname = J;
lastChange = "2023-04-13 12:22:50 +0000";
layers = (
{
anchors = (
{
name = bottom;
pos = (197,0);
},
{
name = top;
pos = (197,563);
}
);
background = {
shapes = (
{
closed = 1;
nodes = (
(279,-10,o),
(329,42,o),
(329,142,c),
(329,545,l),
(303,545,l),
(303,142,l),
(303,53,o),
(266,14,o),
(187,14,c),
(92,14,o),
(69,78,o),
(69,124,c),
(45,124,l),
(45,4,o),
(152,-10,o),
(187,-10,c)
);
},
{
closed = 1;
nodes = (
(329,538,l),
(329,562,l),
(196,562,l),
(196,538,l)
);
}
);
};
guides = (
{
pos = (279,-14);
},
{
pos = (181,138);
}
);
layerId = "D86F237C-A043-4FD6-9305-0CC5F899F330";
shapes = (
{
closed = 1;
nodes = (
(279,-10,o),
(329,42,o),
(329,142,c),
(329,545,l),
(303,545,l),
(303,142,l),
(303,53,o),
(266,14,o),
(187,14,c),
(92,14,o),
(69,78,o),
(69,124,c),
(45,124,l),
(45,4,o),
(152,-10,o),
(187,-10,c)
);
},
{
closed = 1;
nodes = (
(329,538,l),
(329,562,l),
(196,562,l),
(196,538,l)
);
}
);
width = 394;
},
{
anchors = (
{
name = bottom;
pos = (254,0);
},
{
name = top;
pos = (254,563);
}
);
background = {
shapes = (
{
closed = 1;
nodes = (
(421,-10,o),
(448,90,o),
(448,246,c),
(448,545,l),
(308,545,l),
(308,222,l),
(308,133,o),
(286,110,o),
(238,110,c),
(182,110,o),
(167,149,o),
(167,195,c),
(35,195,l),
(35,75,o),
(92,-10,o),
(243,-10,c)
);
},
{
closed = 1;
nodes = (
(448,457,l),
(448,563,l),
(190,563,l),
(190,457,l)
);
}
);
};
guides = (
{
pos = (128,181);
}
);
layerId = "F5474A38-5AEA-454E-84E5-A62166EBBEA7";
shapes = (
{
closed = 1;
nodes = (
(421,-10,o),
(448,90,o),
(448,246,c),
(448,545,l),
(308,545,l),
(308,222,l),
(308,133,o),
(286,110,o),
(238,110,c),
(182,110,o),
(167,149,o),
(167,195,c),
(35,195,l),
(35,75,o),
(92,-10,o),
(243,-10,c)
);
},
{
closed = 1;
nodes = (
(448,457,l),
(448,563,l),
(190,563,l),
(190,457,l)
);
}
);
width = 508;
}
);
unicode = 74;
},
{
glyphname = K;
kernLeft = K;
kernRight = K;
lastChange = "2023-04-13 12:22:50 +0000";
layers = (
{
anchors = (
{
name = bottom;
pos = (264,0);
},
{
name = top;
pos = (264,563);
}
);
background = {
shapes = (
{
closed = 1;
nodes = (
(481,554,l),
(481,563,l),
(446,563,l),
(96,236,l),
(96,199,l)
);
},
{
closed = 1;
nodes = (
(103,-1,l),
(103,563,l),
(75,563,l),
(75,-1,l)
);
},
{
closed = 1;
nodes = (
(493,0,l),
(493,9,l),
(218,322,l),
(199,304,l),
(460,0,l)
);
}
);
};
guides = (
{
angle = 90;
pos = (493,277);
},
{
pos = (473,9);
},
{
pos = (473,0);
}
);
layerId = "D86F237C-A043-4FD6-9305-0CC5F899F330";
shapes = (
{
closed = 1;
nodes = (
(481,554,l),
(481,563,l),
(446,563,l),
(96,236,l),
(96,199,l)
);
},
{
closed = 1;
nodes = (
(103,-1,l),
(103,563,l),
(75,563,l),
(75,-1,l)
);
},
{
closed = 1;
nodes = (
(493,0,l),
(493,9,l),
(218,322,l),
(199,304,l),
(460,0,l)
);
}
);
width = 527;
},
{
anchors = (
{
name = bottom;
pos = (302,0);
},
{
name = top;
pos = (302,563);
}
);
background = {
shapes = (
{
closed = 1;
nodes = (
(583,550,l),
(583,563,l),
(401,563,l),
(197,322,l),
(197,169,l)
);
},
{
closed = 1;
nodes = (
(199,0,l),
(199,563,l),
(60,563,l),
(60,0,l)
);
},
{
closed = 1;
nodes = (
(595,0,l),
(595,13,l),
(350,385,l),
(249,286,l),
(436,0,l)
);
}
);
};
guides = (
{
angle = 90;
pos = (588,0);
}
);
layerId = "F5474A38-5AEA-454E-84E5-A62166EBBEA7";
shapes = (
{
closed = 1;
nodes = (
(583,550,l),
(583,563,l),
(401,563,l),
(197,322,l),
(197,169,l)
);
},
{
closed = 1;
nodes = (
(199,0,l),
(199,563,l),
(60,563,l),
(60,0,l)
);
},
{
closed = 1;
nodes = (
(595,0,l),
(595,13,l),
(350,385,l),
(249,286,l),
(436,0,l)
);
}
);
width = 604;
}
);
unicode = 75;
},
{
glyphname = Kcommaaccent;
kernLeft = K;
kernRight = K;
lastChange = "2023-04-06 13:24:03 +0000";
layers = (
{
background = {
shapes = (
{
closed = 1;
nodes = (
(481,563,l),
(442,563,l),
(96,236,l),
(96,199,l)
);
},
{
closed = 1;
nodes = (
(103,-1,l),
(103,563,l),
(75,563,l),
(75,-1,l)
);
},
{
closed = 1;
nodes = (
(493,0,l),
(218,322,l),
(199,304,l),
(456,0,l)
);
},
{
closed = 1;
nodes = (
(217,-199,ls),
(252,-199,o),
(261,-169,o),
(261,-107,cs),
(261,-81,o),
(257,-68,o),
(235,-68,cs),
(214,-68,o),
(209,-81,o),
(209,-96,cs),
(209,-121,o),
(222,-131,o),
(244,-126,c),
(244,-146,o),
(245,-169,o),
(214,-169,cs),
(203,-169,l),
(203,-199,l)
);
}
);
};
layerId = "D86F237C-A043-4FD6-9305-0CC5F899F330";
shapes = (
{
ref = K;
},
{
pos = (190,0);
ref = commaaccentcomb;
}
);
width = 527;
},
{
background = {
shapes = (
{
closed = 1;
nodes = (
(607,563,l),
(411,563,l),
(197,322,l),
(197,169,l)
);
},
{
closed = 1;
nodes = (
(199,0,l),
(199,563,l),
(60,563,l),
(60,0,l)
);
},
{
closed = 1;
nodes = (
(609,0,l),
(353,385,l),
(252,286,l),
(446,0,l)
);
},
{
closed = 1;
nodes = (
(277,-296,ls),
(358,-296,o),
(390,-217,o),
(390,-135,cs),
(390,-55,o),
(360,-38,o),
(320,-38,cs),
(266,-38,o),
(246,-69,o),
(246,-109,cs),
(246,-148,o),
(266,-180,o),
(330,-180,c),
(330,-208,o),
(313,-211,o),
(277,-211,cs),
(246,-211,l),
(246,-296,l)
);
}
);
};
layerId = "F5474A38-5AEA-454E-84E5-A62166EBBEA7";
shapes = (
{
ref = K;
},
{
pos = (171,0);
ref = commaaccentcomb;
}
);
width = 604;
}
);
unicode = 310;
},
{
glyphname = L;
kernLeft = L;
kernRight = L;
lastChange = "2023-04-13 12:59:50 +0000";
layers = (
{
anchors = (
{
name = bottom;
pos = (233,0);
},
{
name = center;
pos = (233,282);
},
{
name = top;
pos = (93,570);
},
{
name = topright;
pos = (345,563);
}
);
background = {
shapes = (
{
closed = 1;
nodes = (
(96,15,l),
(96,563,l),
(70,563,l),
(70,15,l)
);
},
{
closed = 1;
nodes = (
(443,0,l),
(443,24,l),
(70,24,l),
(70,0,l)
);
}
);
};
guides = (
{
pos = (103,23);
}
);
layerId = "D86F237C-A043-4FD6-9305-0CC5F899F330";
shapes = (
{
closed = 1;
nodes = (
(96,15,l),
(96,563,l),
(70,563,l),
(70,15,l)
);
},
{
closed = 1;
nodes = (
(443,0,l),
(443,24,l),
(70,24,l),
(70,0,l)
);
}
);
width = 465;
},
{
anchors = (
{
name = bottom;
pos = (237,0);
},
{
name = center;
pos = (237,282);
},
{
name = top;
pos = (116,563);
},
{
name = topright;
pos = (313,563);
}
);
background = {
shapes = (
{
closed = 1;
nodes = (
(200,0,l),
(200,563,l),
(60,563,l),
(60,0,l)
);
},
{
closed = 1;
nodes = (
(443,0,l),
(443,119,l),
(60,119,l),
(60,0,l)
);
}
);
};
layerId = "F5474A38-5AEA-454E-84E5-A62166EBBEA7";
shapes = (
{
closed = 1;
nodes = (
(200,0,l),
(200,563,l),
(60,563,l),
(60,0,l)
);
},
{
closed = 1;
nodes = (
(443,0,l),
(443,119,l),
(60,119,l),
(60,0,l)
);
}
);
width = 473;
}
);
unicode = 76;
},
{
glyphname = Lacute;
kernLeft = L;
kernRight = L;
lastChange = "2023-04-13 12:59:50 +0000";
layers = (
{
background = {
shapes = (
{
closed = 1;
nodes = (
(96,15,l),
(96,563,l),
(70,563,l),
(70,15,l)
);
},
{
closed = 1;
nodes = (
(443,0,l),
(443,24,l),
(70,24,l),
(70,0,l)
);
},
{
closed = 1;
nodes = (
(171,711,l),
(171,722,l),
(141,722,l),
(84,616,l),
(84,610,l),
(100,610,l)
);
}
);
};
layerId = "D86F237C-A043-4FD6-9305-0CC5F899F330";
shapes = (
{
ref = L;
},
{
pos = (46,166);
ref = acutecomb;
}
);
width = 465;
},
{
background = {
shapes = (
{
closed = 1;
nodes = (
(200,0,l),
(200,563,l),
(60,563,l),
(60,0,l)
);
},
{
closed = 1;
nodes = (
(443,0,l),
(443,119,l),
(60,119,l),
(60,0,l)
);
},
{
closed = 1;
nodes = (
(240,702,l),
(240,724,l),
(125,724,l),
(86,627,l),
(86,610,l),
(148,610,l)
);
}
);
};
layerId = "F5474A38-5AEA-454E-84E5-A62166EBBEA7";
shapes = (
{
ref = L;
},
{
pos = (53,149);
ref = acutecomb;
}
);
width = 473;
}
);
unicode = 313;
},
{
glyphname = Lcaron;
kernLeft = L;
kernRight = L;
lastChange = "2023-04-06 13:24:03 +0000";
layers = (
{
background = {
shapes = (
{
closed = 1;
nodes = (
(96,15,l),
(96,563,l),
(70,563,l),
(70,15,l)
);
},
{
closed = 1;
nodes = (
(443,0,l),
(443,24,l),
(70,24,l),
(70,0,l)
);
},
{
closed = 1;
nodes = (
(76,610,l),
(90,610,l),
(221,746,l),
(189,746,l),
(83,631,l),
(-23,746,l),
(-54,746,l)
);
}
);
};
layerId = "D86F237C-A043-4FD6-9305-0CC5F899F330";
shapes = (
{
ref = L;
},
{
pos = (184,-12);
ref = caroncomb.alt;
}
);
width = 465;
},
{
background = {
shapes = (
{
closed = 1;
nodes = (
(200,0,l),
(200,563,l),
(60,563,l),
(60,0,l)
);
},
{
closed = 1;
nodes = (
(443,0,l),
(443,119,l),
(60,119,l),
(60,0,l)
);
},
{
closed = 1;
nodes = (
(102,618,l),
(160,618,l),
(305,754,l),
(166,754,l),
(131,675,l),
(99,754,l),
(-44,754,l)
);
}
);
};
layerId = "F5474A38-5AEA-454E-84E5-A62166EBBEA7";
shapes = (
{
ref = L;
},
{
pos = (204,0);
ref = caroncomb.alt;
}
);
width = 473;
}
);
unicode = 317;
},
{
glyphname = Lcommaaccent;
kernLeft = L;
kernRight = L;
lastChange = "2023-04-06 13:24:03 +0000";
layers = (
{
background = {
shapes = (
{
closed = 1;
nodes = (
(96,15,l),
(96,563,l),
(70,563,l),
(70,15,l)
);
},
{
closed = 1;
nodes = (
(443,0,l),
(443,24,l),
(70,24,l),
(70,0,l)
);
},
{
closed = 1;
nodes = (
(217,-199,ls),
(252,-199,o),
(261,-169,o),
(261,-107,cs),
(261,-81,o),
(257,-68,o),
(235,-68,cs),
(214,-68,o),
(209,-81,o),
(209,-96,cs),
(209,-121,o),
(222,-131,o),
(244,-126,c),
(244,-146,o),
(245,-169,o),
(214,-169,cs),
(203,-169,l),
(203,-199,l)
);
}
);
};
layerId = "D86F237C-A043-4FD6-9305-0CC5F899F330";
shapes = (
{
ref = L;
},
{
pos = (159,0);
ref = commaaccentcomb;
}
);
width = 465;
},
{
background = {
shapes = (
{
closed = 1;
nodes = (
(200,0,l),
(200,563,l),
(60,563,l),
(60,0,l)
);
},
{
closed = 1;
nodes = (
(443,0,l),
(443,119,l),
(60,119,l),
(60,0,l)
);
},
{
closed = 1;
nodes = (
(216,-296,ls),
(297,-296,o),
(329,-217,o),
(329,-135,cs),
(329,-55,o),
(299,-38,o),
(259,-38,cs),
(205,-38,o),
(185,-69,o),
(185,-109,cs),
(185,-148,o),
(205,-180,o),
(269,-180,c),
(269,-208,o),
(252,-211,o),
(216,-211,cs),
(185,-211,l),
(185,-296,l)
);
}
);
};
layerId = "F5474A38-5AEA-454E-84E5-A62166EBBEA7";
shapes = (
{
ref = L;
},
{
pos = (106,0);
ref = commaaccentcomb;
}
);
width = 473;
}
);
unicode = 315;
},
{
glyphname = Lslash;
kernLeft = L;
kernRight = L;
lastChange = "2023-04-13 12:22:50 +0000";
layers = (
{
background = {
shapes = (
{
closed = 1;
nodes = (
(246,374,l),
(246,404,l),
(-6,270,l),
(-6,240,l)
);
},
{
closed = 1;
nodes = (
(96,15,l),
(96,563,l),
(70,563,l),
(70,15,l)
);
},
{
closed = 1;
nodes = (
(443,0,l),
(443,24,l),
(70,24,l),
(70,0,l)
);
}
);
};
layerId = "D86F237C-A043-4FD6-9305-0CC5F899F330";
shapes = (
{
closed = 1;
nodes = (
(246,374,l),
(246,400,l),
(-6,266,l),
(-6,240,l)
);
},
{
ref = L;
}
);
width = 465;
},
{
background = {
shapes = (
{
closed = 1;
nodes = (
(303,294,l),
(303,414,l),
(1,280,l),
(1,160,l)
);
},
{
closed = 1;
nodes = (
(200,0,l),
(200,563,l),
(60,563,l),
(60,0,l)
);
},
{
closed = 1;
nodes = (
(443,0,l),
(443,119,l),
(60,119,l),
(60,0,l)
);
}
);
};
layerId = "F5474A38-5AEA-454E-84E5-A62166EBBEA7";
shapes = (
{
closed = 1;
nodes = (
(303,294,l),
(303,414,l),
(1,280,l),
(1,160,l)
);
},
{
ref = L;
}
);
width = 473;
}
);
unicode = 321;
},
{
glyphname = M;
lastChange = "2023-04-13 12:22:50 +0000";
layers = (
{
anchors = (
{
name = bottom;
pos = (336,0);
},
{
name = top;
pos = (336,563);
}
);
background = {
shapes = (
{
closed = 1;
nodes = (
(81,0,l),
(81,543,l),
(83,543,l),
(312,0,l),
(354,0,l),
(583,543,l),
(585,543,l),
(585,0,l),
(611,0,l),
(611,563,l),
(565,563,l),
(335,15,l),
(333,15,l),
(101,563,l),
(55,563,l),
(55,0,l)
);
}
);
};
layerId = "D86F237C-A043-4FD6-9305-0CC5F899F330";
shapes = (
{
closed = 1;
nodes = (
(81,0,l),
(81,543,l),
(83,543,l),
(312,0,l),
(354,0,l),
(583,543,l),
(585,543,l),
(585,0,l),
(611,0,l),
(611,563,l),
(565,563,l),
(335,15,l),
(333,15,l),
(101,563,l),
(55,563,l),
(55,0,l)
);
}
);
width = 671;
},
{
anchors = (
{
name = bottom;
pos = (383,0);
},
{
name = top;
pos = (383,563);
}
);
background = {
shapes = (
{
closed = 1;
nodes = (
(205,0,l),
(196,504,l),
(198,504,l),
(284,0,l),
(487,0,l),
(575,504,l),
(576,504,l),
(566,0,l),
(711,0,l),
(711,563,l),
(469,563,l),
(388,58,l),
(386,58,l),
(303,563,l),
(60,563,l),
(60,0,l)
);
}
);
};
guides = (
{
pos = (351,501);
}
);
layerId = "F5474A38-5AEA-454E-84E5-A62166EBBEA7";
shapes = (
{
closed = 1;
nodes = (
(205,0,l),
(196,504,l),
(198,504,l),
(284,0,l),
(487,0,l),
(575,504,l),
(576,504,l),
(566,0,l),
(711,0,l),
(711,563,l),
(469,563,l),
(388,58,l),
(386,58,l),
(303,563,l),
(60,563,l),
(60,0,l)
);
}
);
width = 766;
}
);
unicode = 77;
},
{
glyphname = N;
kernLeft = N;
kernRight = N;
lastChange = "2023-04-13 12:22:50 +0000";
layers = (
{
anchors = (
{
name = bottom;
pos = (279,0);
},
{
name = top;
pos = (279,563);
}
);
background = {
shapes = (
{
closed = 1;
nodes = (
(472,13,l),
(470,13,l),
(100,563,l),
(55,563,l),
(55,0,l),
(80,0,l),
(80,550,l),
(82,550,l),
(450,0,l),
(497,0,l),
(497,563,l),
(472,563,l)
);
}
);
};
layerId = "D86F237C-A043-4FD6-9305-0CC5F899F330";
shapes = (
{
closed = 1;
nodes = (
(472,13,l),
(470,13,l),
(100,563,l),
(55,563,l),
(55,0,l),
(80,0,l),
(80,550,l),
(82,550,l),
(450,0,l),
(497,0,l),
(497,563,l),
(472,563,l)
);
}
);
width = 557;
},
{
anchors = (
{
name = bottom;
pos = (315,0);
},
{
name = top;
pos = (315,563);
}
);
background = {
shapes = (
{
closed = 1;
nodes = (
(429,61,l),
(427,61,l),
(303,563,l),
(55,563,l),
(55,0,l),
(200,0,l),
(200,502,l),
(202,502,l),
(307,0,l),
(575,0,l),
(575,563,l),
(429,563,l)
);
}
);
};
layerId = "F5474A38-5AEA-454E-84E5-A62166EBBEA7";
shapes = (
{
closed = 1;
nodes = (
(429,61,l),
(427,61,l),
(303,563,l),
(55,563,l),
(55,0,l),
(200,0,l),
(200,502,l),
(202,502,l),
(307,0,l),
(575,0,l),
(575,563,l),
(429,563,l)
);
}
);
width = 630;
}
);
unicode = 78;
},
{
glyphname = Nacute;
kernLeft = N;
kernRight = N;
lastChange = "2023-04-06 13:31:22 +0000";
layers = (
{
background = {
shapes = (
{
closed = 1;
nodes = (
(472,13,l),
(470,13,l),
(100,563,l),
(55,563,l),
(55,0,l),
(80,0,l),
(80,550,l),
(82,550,l),
(450,0,l),
(497,0,l),
(497,563,l),
(472,563,l)
);
},
{
closed = 1;
nodes = (
(353,711,l),
(353,722,l),
(323,722,l),
(266,616,l),
(266,610,l),
(282,610,l)
);
}
);
};
layerId = "D86F237C-A043-4FD6-9305-0CC5F899F330";
shapes = (
{
ref = N;
},
{
pos = (232,159);
ref = acutecomb;
}
);
width = 557;
},
{
background = {
shapes = (
{
closed = 1;
nodes = (
(429,61,l),
(427,61,l),
(303,563,l),
(55,563,l),
(55,0,l),
(200,0,l),
(200,502,l),
(202,502,l),
(307,0,l),
(575,0,l),
(575,563,l),
(429,563,l)
);
},
{
closed = 1;
nodes = (
(397,702,l),
(397,724,l),
(282,724,l),
(243,627,l),
(243,610,l),
(305,610,l)
);
}
);
};
layerId = "F5474A38-5AEA-454E-84E5-A62166EBBEA7";
shapes = (
{
ref = N;
},
{
pos = (252,149);
ref = acutecomb;
}
);
width = 630;
}
);
unicode = 323;
},
{
glyphname = Ncaron;
kernLeft = N;
kernRight = N;
lastChange = "2023-04-13 13:34:59 +0000";
layers = (
{
background = {
shapes = (
{
closed = 1;
nodes = (
(472,13,l),
(470,13,l),
(100,563,l),
(55,563,l),
(55,0,l),
(80,0,l),
(80,550,l),
(82,550,l),
(450,0,l),
(497,0,l),
(497,563,l),
(472,563,l)
);
},
{
closed = 1;
nodes = (
(273,610,l),
(287,610,l),
(418,746,l),
(386,746,l),
(280,631,l),
(174,746,l),
(143,746,l)
);
}
);
};
layerId = "D86F237C-A043-4FD6-9305-0CC5F899F330";
shapes = (
{
ref = N;
},
{
pos = (86,159);
ref = caroncomb;
}
);
width = 557;
},
{
background = {
shapes = (
{
closed = 1;
nodes = (
(429,61,l),
(427,61,l),
(303,563,l),
(55,563,l),
(55,0,l),
(200,0,l),
(200,502,l),
(202,502,l),
(307,0,l),
(575,0,l),
(575,563,l),
(429,563,l)
);
},
{
closed = 1;
nodes = (
(289,618,l),
(347,618,l),
(492,754,l),
(353,754,l),
(318,675,l),
(286,754,l),
(143,754,l)
);
}
);
};
layerId = "F5474A38-5AEA-454E-84E5-A62166EBBEA7";
shapes = (
{
ref = N;
},
{
pos = (90,149);
ref = caroncomb;
}
);
width = 630;
}
);
unicode = 327;
},
{
glyphname = Ncommaaccent;
kernLeft = N;
kernRight = N;
lastChange = "2023-04-06 13:24:03 +0000";
layers = (
{
background = {
shapes = (
{
closed = 1;
nodes = (
(472,13,l),
(470,13,l),
(100,563,l),
(55,563,l),
(55,0,l),
(80,0,l),
(80,550,l),
(82,550,l),
(450,0,l),
(497,0,l),
(497,563,l),
(472,563,l)
);
},
{
closed = 1;
nodes = (
(248,-199,ls),
(283,-199,o),
(292,-169,o),
(292,-107,cs),
(292,-81,o),
(288,-68,o),
(266,-68,cs),
(245,-68,o),
(240,-81,o),
(240,-96,cs),
(240,-121,o),
(253,-131,o),
(275,-126,c),
(275,-146,o),
(276,-169,o),
(245,-169,cs),
(234,-169,l),
(234,-199,l)
);
}
);
};
layerId = "D86F237C-A043-4FD6-9305-0CC5F899F330";
shapes = (
{
ref = N;
},
{
pos = (205,0);
ref = commaaccentcomb;
}
);
width = 557;
},
{
background = {
shapes = (
{
closed = 1;
nodes = (
(429,61,l),
(427,61,l),
(303,563,l),
(55,563,l),
(55,0,l),
(200,0,l),
(200,502,l),
(202,502,l),
(307,0,l),
(575,0,l),
(575,563,l),
(429,563,l)
);
},
{
closed = 1;
nodes = (
(279,-296,ls),
(360,-296,o),
(392,-217,o),
(392,-135,cs),
(392,-55,o),
(362,-38,o),
(322,-38,cs),
(268,-38,o),
(248,-69,o),
(248,-109,cs),
(248,-148,o),
(268,-180,o),
(332,-180,c),
(332,-208,o),
(315,-211,o),
(279,-211,cs),
(248,-211,l),
(248,-296,l)
);
}
);
};
layerId = "F5474A38-5AEA-454E-84E5-A62166EBBEA7";
shapes = (
{
ref = N;
},
{
pos = (184,0);
ref = commaaccentcomb;
}
);
width = 630;
}
);
unicode = 325;
},
{
glyphname = Ntilde;
kernLeft = N;
kernRight = N;
lastChange = "2023-04-06 13:25:51 +0000";
layers = (
{
background = {
shapes = (
{
closed = 1;
nodes = (
(472,13,l),
(470,13,l),
(100,563,l),
(55,563,l),
(55,0,l),
(80,0,l),
(80,550,l),
(82,550,l),
(450,0,l),
(497,0,l),
(497,563,l),
(472,563,l)
);
},
{
closed = 1;
nodes = (
(277,618,o),
(331,618,cs),
(371,618,o),
(384,648,o),
(381,692,c),
(356,692,l),
(356,657,o),
(355,638,o),
(331,638,cs),
(292,638,o),
(289,691,o),
(234,691,cs),
(193,691,o),
(182,662,o),
(184,618,c),
(209,618,l),
(208,651,o),
(211,671,o),
(234,671,cs),
(271,671,o)
);
}
);
};
layerId = "D86F237C-A043-4FD6-9305-0CC5F899F330";
shapes = (
{
ref = N;
},
{
pos = (102,159);
ref = tildecomb;
}
);
width = 557;
},
{
background = {
shapes = (
{
closed = 1;
nodes = (
(429,61,l),
(427,61,l),
(303,563,l),
(55,563,l),
(55,0,l),
(200,0,l),
(200,502,l),
(202,502,l),
(307,0,l),
(575,0,l),
(575,563,l),
(429,563,l)
);
},
{
closed = 1;
nodes = (
(284,621,o),
(360,621,cs),
(450,621,o),
(450,704,o),
(450,754,c),
(372,754,l),
(372,720,o),
(372,700,o),
(352,700,cs),
(319,700,o),
(315,758,o),
(241,758,cs),
(143,758,o),
(151,657,o),
(151,626,c),
(229,626,l),
(229,660,o),
(229,679,o),
(250,679,cs),
(286,679,o)
);
}
);
};
layerId = "F5474A38-5AEA-454E-84E5-A62166EBBEA7";
shapes = (
{
ref = N;
},
{
pos = (122,149);
ref = tildecomb;
}
);
width = 630;
}
);
unicode = 209;
},
{
glyphname = Eng;
kernLeft = N;
kernRight = N;
lastChange = "2023-04-13 12:22:50 +0000";
layers = (
{
background = {
shapes = (
{
closed = 1;
nodes = (
(472,-199,o),
(498,-154,o),
(497,-88,c),
(497,33,l),
(472,33,l),
(472,-93,l),
(473,-152,o),
(451,-177,o),
(404,-177,c),
(383,-177,o),
(366,-168,o),
(356,-156,c),
(337,-175,l),
(354,-191,o),
(375,-199,o),
(404,-199,c)
);
},
{
closed = 1;
nodes = (
(472,13,l),
(470,13,l),
(100,563,l),
(55,563,l),
(55,0,l),
(80,0,l),
(80,550,l),
(82,550,l),
(450,0,l),
(497,0,l),
(497,563,l),
(472,563,l)
);
}
);
};
layerId = "D86F237C-A043-4FD6-9305-0CC5F899F330";
shapes = (
{
closed = 1;
nodes = (
(472,-199,o),
(498,-154,o),
(497,-88,c),
(497,33,l),
(472,33,l),
(472,-93,l),
(473,-152,o),
(451,-177,o),
(404,-177,c),
(383,-177,o),
(366,-168,o),
(356,-156,c),
(337,-175,l),
(354,-191,o),
(375,-199,o),
(404,-199,c)
);
},
{
ref = N;
}
);
width = 600;
},
{
background = {
shapes = (
{
closed = 1;
nodes = (
(529,-207,o),
(575,-138,o),
(575,-65,c),
(575,0,l),
(435,0,l),
(435,-43,l),
(435,-71,o),
(418,-79,o),
(405,-79,c),
(384,-79,o),
(370,-63,o),
(370,-63,c),
(295,-156,l),
(295,-156,o),
(337,-207,o),
(418,-207,c)
);
},
{
closed = 1;
nodes = (
(429,61,l),
(427,61,l),
(303,563,l),
(55,563,l),
(55,0,l),
(200,0,l),
(200,502,l),
(202,502,l),
(307,0,l),
(575,0,l),
(575,563,l),
(429,563,l)
);
}
);
};
layerId = "F5474A38-5AEA-454E-84E5-A62166EBBEA7";
shapes = (
{
closed = 1;
nodes = (
(529,-207,o),
(575,-138,o),
(575,-65,c),
(575,0,l),
(435,0,l),
(435,-43,l),
(435,-71,o),
(418,-79,o),
(405,-79,c),
(384,-79,o),
(370,-63,o),
(370,-63,c),
(295,-156,l),
(295,-156,o),
(337,-207,o),
(418,-207,c)
);
},
{
ref = N;
}
);
width = 600;
}
);
unicode = 330;
},
{
glyphname = O;
kernLeft = O;
kernRight = O;
lastChange = "2023-04-13 13:02:26 +0000";
layers = (
{
anchors = (
{
name = bottom;
pos = (299,0);
},
{
name = center;
pos = (299,282);
},
{
name = ogonek;
pos = (411,10);
},
{
name = top;
pos = (299,563);
},
{
name = topleft;
pos = (20,563);
},
{
name = topright;
pos = (349,309);
}
);
background = {
shapes = (
{
closed = 1;
nodes = (
(466,-14,o),
(557,106,o),
(557,280,c),
(557,458,o),
(466,573,o),
(291,573,c),
(113,573,o),
(25,457,o),
(25,280,c),
(25,100,o),
(118,-14,o),
(291,-14,c)
);
},
{
closed = 1;
nodes = (
(129,11,o),
(51,117,o),
(51,280,c),
(51,450,o),
(133,548,o),
(291,548,c),
(453,548,o),
(531,443,o),
(531,280,c),
(531,116,o),
(450,11,o),
(291,11,c)
);
}
);
};
guides = (
{
pos = (389,-14);
}
);
layerId = "D86F237C-A043-4FD6-9305-0CC5F899F330";
shapes = (
{
closed = 1;
nodes = (
(466,-14,o),
(557,106,o),
(557,280,cs),
(557,458,o),
(466,573,o),
(291,573,cs),
(113,573,o),
(25,457,o),
(25,280,cs),
(25,100,o),
(118,-14,o),
(291,-14,cs)
);
},
{
closed = 1;
nodes = (
(129,11,o),
(51,117,o),
(51,280,cs),
(51,450,o),
(133,548,o),
(291,548,cs),
(453,548,o),
(531,443,o),
(531,280,cs),
(531,116,o),
(450,11,o),
(291,11,cs)
);
}
);
width = 597;
},
{
anchors = (
{
name = bottom;
pos = (310,0);
},
{
name = center;
pos = (310,282);
},
{
name = ogonek;
pos = (431,10);
},
{
name = top;
pos = (310,563);
},
{
name = topleft;
pos = (20,563);
},
{
name = topright;
pos = (356,319);
}
);
background = {
shapes = (
{
closed = 1;
nodes = (
(489,-14,o),
(588,106,o),
(588,280,cs),
(588,458,o),
(489,573,o),
(302,573,cs),
(110,573,o),
(14,457,o),
(14,280,cs),
(14,100,o),
(115,-14,o),
(302,-14,cs)
);
},
{
closed = 1;
nodes = (
(199,121,o),
(150,195,o),
(150,280,cs),
(150,373,o),
(202,442,o),
(300,442,cs),
(401,442,o),
(451,368,o),
(451,280,cs),
(451,193,o),
(401,121,o),
(300,121,cs)
);
}
);
};
guides = (
{
pos = (538,275);
},
{
pos = (382,573);
},
{
pos = (382,436);
}
);
layerId = "F5474A38-5AEA-454E-84E5-A62166EBBEA7";
shapes = (
{
closed = 1;
nodes = (
(489,-14,o),
(588,106,o),
(588,280,cs),
(588,458,o),
(489,573,o),
(302,573,cs),
(110,573,o),
(14,457,o),
(14,280,cs),
(14,100,o),
(115,-14,o),
(302,-14,cs)
);
},
{
closed = 1;
nodes = (
(199,121,o),
(150,195,o),
(150,280,cs),
(150,373,o),
(202,442,o),
(300,442,cs),
(401,442,o),
(451,368,o),
(451,280,cs),
(451,193,o),
(401,121,o),
(300,121,cs)
);
}
);
width = 619;
}
);
unicode = 79;
},
{
glyphname = Oacute;
kernLeft = O;
kernRight = O;
lastChange = "2023-04-06 13:31:22 +0000";
layers = (
{
background = {
shapes = (
{
closed = 1;
nodes = (
(466,-14,o),
(557,106,o),
(557,280,c),
(557,458,o),
(466,573,o),
(291,573,c),
(113,573,o),
(25,457,o),
(25,280,c),
(25,100,o),
(118,-14,o),
(291,-14,c)
);
},
{
closed = 1;
nodes = (
(129,11,o),
(51,117,o),
(51,280,c),
(51,450,o),
(133,548,o),
(291,548,c),
(453,548,o),
(531,443,o),
(531,280,c),
(531,116,o),
(450,11,o),
(291,11,c)
);
},
{
closed = 1;
nodes = (
(363,711,l),
(363,722,l),
(333,722,l),
(276,616,l),
(276,610,l),
(292,610,l)
);
}
);
};
guides = (
{
pos = (363,563);
},
{
pos = (365,617);
},
{
angle = 90;
pos = (293,404);
}
);
layerId = "D86F237C-A043-4FD6-9305-0CC5F899F330";
shapes = (
{
ref = O;
},
{
pos = (252,159);
ref = acutecomb;
}
);
width = 597;
},
{
background = {
shapes = (
{
closed = 1;
nodes = (
(489,-14,o),
(588,106,o),
(588,280,cs),
(588,458,o),
(489,573,o),
(302,573,cs),
(110,573,o),
(14,457,o),
(14,280,cs),
(14,100,o),
(115,-14,o),
(302,-14,cs)
);
},
{
closed = 1;
nodes = (
(199,121,o),
(150,195,o),
(150,280,cs),
(150,373,o),
(202,442,o),
(300,442,cs),
(401,442,o),
(451,368,o),
(451,280,cs),
(451,193,o),
(401,121,o),
(300,121,cs)
);
},
{
closed = 1;
nodes = (
(439,702,l),
(439,724,l),
(324,724,l),
(285,627,l),
(285,610,l),
(347,610,l)
);
}
);
};
guides = (
{
angle = 90;
pos = (311,345);
}
);
layerId = "F5474A38-5AEA-454E-84E5-A62166EBBEA7";
shapes = (
{
ref = O;
},
{
pos = (247,149);
ref = acutecomb;
}
);
width = 619;
}
);
unicode = 211;
},
{
glyphname = Ocircumflex;
kernLeft = O;
kernRight = O;
lastChange = "2023-04-06 13:31:48 +0000";
layers = (
{
background = {
shapes = (
{
closed = 1;
nodes = (
(466,-14,o),
(557,106,o),
(557,280,c),
(557,458,o),
(466,573,o),
(291,573,c),
(113,573,o),
(25,457,o),
(25,280,c),
(25,100,o),
(118,-14,o),
(291,-14,c)
);
},
{
closed = 1;
nodes = (
(129,11,o),
(51,117,o),
(51,280,c),
(51,450,o),
(133,548,o),
(291,548,c),
(453,548,o),
(531,443,o),
(531,280,c),
(531,116,o),
(450,11,o),
(291,11,c)
);
},
{
closed = 1;
nodes = (
(218,639,l),
(293,721,l),
(295,721,l),
(371,639,l),
(402,639,l),
(402,645,l),
(301,743,l),
(287,743,l),
(187,645,l),
(187,639,l)
);
}
);
};
guides = (
{
pos = (363,563);
},
{
pos = (365,639);
},
{
angle = 90;
pos = (293,437);
},
{
pos = (365,617);
},
{
angle = 90;
pos = (293,404);
}
);
layerId = "D86F237C-A043-4FD6-9305-0CC5F899F330";
shapes = (
{
ref = O;
},
{
pos = (106,159);
ref = circumflexcomb;
}
);
width = 597;
},
{
background = {
shapes = (
{
closed = 1;
nodes = (
(489,-14,o),
(588,106,o),
(588,280,cs),
(588,458,o),
(489,573,o),
(302,573,cs),
(110,573,o),
(14,457,o),
(14,280,cs),
(14,100,o),
(115,-14,o),
(302,-14,cs)
);
},
{
closed = 1;
nodes = (
(199,121,o),
(150,195,o),
(150,280,cs),
(150,373,o),
(202,442,o),
(300,442,cs),
(401,442,o),
(451,368,o),
(451,280,cs),
(451,193,o),
(401,121,o),
(300,121,cs)
);
},
{
closed = 1;
nodes = (
(270,617,l),
(299,653,l),
(305,653,l),
(337,617,l),
(457,617,l),
(457,627,l),
(331,741,l),
(273,741,l),
(146,627,l),
(146,617,l)
);
}
);
};
guides = (
{
pos = (365,626);
},
{
pos = (365,563);
},
{
angle = 90;
pos = (311,345);
}
);
layerId = "F5474A38-5AEA-454E-84E5-A62166EBBEA7";
shapes = (
{
ref = O;
},
{
pos = (65,149);
ref = circumflexcomb;
}
);
width = 619;
}
);
unicode = 212;
},
{
glyphname = Ocircumflexacute;
kernLeft = O;
kernRight = O;
lastChange = "2023-04-06 13:32:39 +0000";
layers = (
{
background = {
shapes = (
{
closed = 1;
nodes = (
(466,-14,o),
(557,106,o),
(557,280,c),
(557,458,o),
(466,573,o),
(291,573,c),
(113,573,o),
(25,457,o),
(25,280,c),
(25,100,o),
(118,-14,o),
(291,-14,c)
);
},
{
closed = 1;
nodes = (
(129,11,o),
(51,117,o),
(51,280,c),
(51,450,o),
(133,548,o),
(291,548,c),
(453,548,o),
(531,443,o),
(531,280,c),
(531,116,o),
(450,11,o),
(291,11,c)
);
},
{
closed = 1;
nodes = (
(217,639,l),
(292,721,l),
(294,721,l),
(370,639,l),
(401,639,l),
(401,645,l),
(300,743,l),
(286,743,l),
(186,645,l),
(186,639,l)
);
},
{
closed = 1;
nodes = (
(484,823,l),
(484,834,l),
(454,834,l),
(397,728,l),
(397,722,l),
(413,722,l)
);
}
);
};
guides = (
{
pos = (365,617);
},
{
angle = 90;
pos = (293,404);
},
{
pos = (365,639);
}
);
layerId = "D86F237C-A043-4FD6-9305-0CC5F899F330";
shapes = (
{
ref = O;
},
{
pos = (107,159);
ref = circumflexcomb_acutecomb;
}
);
width = 597;
},
{
background = {
shapes = (
{
closed = 1;
nodes = (
(489,-14,o),
(588,106,o),
(588,280,cs),
(588,458,o),
(489,573,o),
(302,573,cs),
(110,573,o),
(14,457,o),
(14,280,cs),
(14,100,o),
(115,-14,o),
(302,-14,cs)
);
},
{
closed = 1;
nodes = (
(199,121,o),
(150,195,o),
(150,280,cs),
(150,373,o),
(202,442,o),
(300,442,cs),
(401,442,o),
(451,368,o),
(451,280,cs),
(451,193,o),
(401,121,o),
(300,121,cs)
);
},
{
closed = 1;
nodes = (
(270,617,l),
(299,653,l),
(305,653,l),
(337,617,l),
(457,617,l),
(457,627,l),
(331,741,l),
(273,741,l),
(146,627,l),
(146,617,l)
);
},
{
closed = 1;
nodes = (
(551,809,l),
(551,831,l),
(436,831,l),
(397,734,l),
(397,717,l),
(459,717,l)
);
}
);
};
guides = (
{
angle = 90;
pos = (311,345);
}
);
layerId = "F5474A38-5AEA-454E-84E5-A62166EBBEA7";
shapes = (
{
ref = O;
},
{
pos = (93,149);
ref = circumflexcomb_acutecomb;
}
);
width = 619;
}
);
unicode = 7888;
},
{
glyphname = Ocircumflexdotbelow;
kernLeft = O;
kernRight = O;
lastChange = "2023-04-06 13:31:48 +0000";
layers = (
{
background = {
shapes = (
{
closed = 1;
nodes = (
(466,-14,o),
(557,106,o),
(557,280,c),
(557,458,o),
(466,573,o),
(291,573,c),
(113,573,o),
(25,457,o),
(25,280,c),
(25,100,o),
(118,-14,o),
(291,-14,c)
);
},
{
closed = 1;
nodes = (
(129,11,o),
(51,117,o),
(51,280,c),
(51,450,o),
(133,548,o),
(291,548,c),
(453,548,o),
(531,443,o),
(531,280,c),
(531,116,o),
(450,11,o),
(291,11,c)
);
},
{
closed = 1;
nodes = (
(314,-123,o),
(319,-110,o),
(319,-95,c),
(319,-81,o),
(314,-68,o),
(292,-68,c),
(270,-68,o),
(264,-81,o),
(264,-95,c),
(264,-110,o),
(270,-123,o),
(292,-123,c)
);
},
{
closed = 1;
nodes = (
(215,639,l),
(290,721,l),
(292,721,l),
(368,639,l),
(399,639,l),
(399,645,l),
(298,743,l),
(284,743,l),
(184,645,l),
(184,639,l)
);
}
);
};
guides = (
{
angle = 90;
pos = (293,437);
},
{
pos = (365,617);
}
);
layerId = "D86F237C-A043-4FD6-9305-0CC5F899F330";
shapes = (
{
ref = O;
},
{
pos = (226,0);
ref = dotbelowcomb;
},
{
pos = (106,159);
ref = circumflexcomb;
}
);
width = 597;
},
{
background = {
shapes = (
{
closed = 1;
nodes = (
(489,-14,o),
(588,106,o),
(588,280,cs),
(588,458,o),
(489,573,o),
(302,573,cs),
(110,573,o),
(14,457,o),
(14,280,cs),
(14,100,o),
(115,-14,o),
(302,-14,cs)
);
},
{
closed = 1;
nodes = (
(199,121,o),
(150,195,o),
(150,280,cs),
(150,373,o),
(202,442,o),
(300,442,cs),
(401,442,o),
(451,368,o),
(451,280,cs),
(451,193,o),
(401,121,o),
(300,121,cs)
);
},
{
closed = 1;
nodes = (
(354,-200,o),
(366,-170,o),
(366,-134,c),
(366,-100,o),
(354,-70,o),
(302,-70,c),
(250,-70,o),
(236,-100,o),
(236,-134,c),
(236,-170,o),
(250,-200,o),
(302,-200,c)
);
},
{
closed = 1;
nodes = (
(270,617,l),
(299,653,l),
(305,653,l),
(337,617,l),
(457,617,l),
(457,627,l),
(331,741,l),
(273,741,l),
(146,627,l),
(146,617,l)
);
}
);
};
guides = (
{
angle = 90;
pos = (311,345);
},
{
angle = 90;
pos = (311,345);
}
);
layerId = "F5474A38-5AEA-454E-84E5-A62166EBBEA7";
shapes = (
{
ref = O;
},
{
pos = (200,0);
ref = dotbelowcomb;
},
{
pos = (65,149);
ref = circumflexcomb;
}
);
width = 619;
}
);
unicode = 7896;
},
{
glyphname = Ocircumflexgrave;
kernLeft = O;
kernRight = O;
lastChange = "2023-04-06 14:10:27 +0000";
layers = (
{
background = {
shapes = (
{
closed = 1;
nodes = (
(466,-14,o),
(557,106,o),
(557,280,c),
(557,458,o),
(466,573,o),
(291,573,c),
(113,573,o),
(25,457,o),
(25,280,c),
(25,100,o),
(118,-14,o),
(291,-14,c)
);
},
{
closed = 1;
nodes = (
(129,11,o),
(51,117,o),
(51,280,c),
(51,450,o),
(133,548,o),
(291,548,c),
(453,548,o),
(531,443,o),
(531,280,c),
(531,116,o),
(450,11,o),
(291,11,c)
);
},
{
closed = 1;
nodes = (
(186,723,l),
(186,729,l),
(129,835,l),
(99,835,l),
(99,824,l),
(170,723,l)
);
},
{
closed = 1;
nodes = (
(217,639,l),
(292,721,l),
(294,721,l),
(370,639,l),
(401,639,l),
(401,645,l),
(300,743,l),
(286,743,l),
(186,645,l),
(186,639,l)
);
}
);
};
guides = (
{
pos = (365,617);
},
{
angle = 90;
pos = (293,404);
},
{
pos = (365,639);
}
);
layerId = "D86F237C-A043-4FD6-9305-0CC5F899F330";
shapes = (
{
ref = O;
},
{
pos = (134,159);
ref = circumflexcomb_gravecomb;
}
);
width = 597;
},
{
background = {
shapes = (
{
closed = 1;
nodes = (
(489,-14,o),
(588,106,o),
(588,280,cs),
(588,458,o),
(489,573,o),
(302,573,cs),
(110,573,o),
(14,457,o),
(14,280,cs),
(14,100,o),
(115,-14,o),
(302,-14,cs)
);
},
{
closed = 1;
nodes = (
(199,121,o),
(150,195,o),
(150,280,cs),
(150,373,o),
(202,442,o),
(300,442,cs),
(401,442,o),
(451,368,o),
(451,280,cs),
(451,193,o),
(401,121,o),
(300,121,cs)
);
},
{
closed = 1;
nodes = (
(188,716,l),
(188,733,l),
(149,830,l),
(34,830,l),
(34,808,l),
(126,716,l)
);
},
{
closed = 1;
nodes = (
(270,617,l),
(299,653,l),
(305,653,l),
(337,617,l),
(457,617,l),
(457,627,l),
(331,741,l),
(273,741,l),
(146,627,l),
(146,617,l)
);
}
);
};
guides = (
{
angle = 90;
pos = (311,345);
}
);
layerId = "F5474A38-5AEA-454E-84E5-A62166EBBEA7";
shapes = (
{
ref = O;
},
{
pos = (104,149);
ref = circumflexcomb_gravecomb;
}
);
width = 619;
}
);
unicode = 7890;
},
{
glyphname = Ocircumflexhookabove;
kernLeft = O;
kernRight = O;
lastChange = "2023-04-06 13:35:45 +0000";
layers = (
{
background = {
shapes = (
{
closed = 1;
nodes = (
(466,-14,o),
(557,106,o),
(557,280,c),
(557,458,o),
(466,573,o),
(291,573,c),
(113,573,o),
(25,457,o),
(25,280,c),
(25,100,o),
(118,-14,o),
(291,-14,c)
);
},
{
closed = 1;
nodes = (
(129,11,o),
(51,117,o),
(51,280,c),
(51,450,o),
(133,548,o),
(291,548,c),
(453,548,o),
(531,443,o),
(531,280,c),
(531,116,o),
(450,11,o),
(291,11,c)
);
},
{
closed = 1;
nodes = (
(217,639,l),
(292,721,l),
(294,721,l),
(370,639,l),
(401,639,l),
(401,645,l),
(300,743,l),
(286,743,l),
(186,645,l),
(186,639,l)
);
},
{
closed = 1;
nodes = (
(412,720,l),
(412,747,o),
(463,753,o),
(463,799,cs),
(463,860,o),
(365,863,o),
(348,799,c),
(370,793,l),
(385,839,o),
(440,830,o),
(440,796,cs),
(440,763,o),
(391,754,o),
(385,726,c),
(385,720,l)
);
}
);
};
guides = (
{
angle = 90;
pos = (293,404);
}
);
layerId = "D86F237C-A043-4FD6-9305-0CC5F899F330";
shapes = (
{
ref = O;
},
{
pos = (134,159);
ref = circumflexcomb_hookabovecomb;
}
);
width = 597;
},
{
background = {
shapes = (
{
closed = 1;
nodes = (
(489,-14,o),
(588,106,o),
(588,280,cs),
(588,458,o),
(489,573,o),
(302,573,cs),
(110,573,o),
(14,457,o),
(14,280,cs),
(14,100,o),
(115,-14,o),
(302,-14,cs)
);
},
{
closed = 1;
nodes = (
(199,121,o),
(150,195,o),
(150,280,cs),
(150,373,o),
(202,442,o),
(300,442,cs),
(401,442,o),
(451,368,o),
(451,280,cs),
(451,193,o),
(401,121,o),
(300,121,cs)
);
},
{
closed = 1;
nodes = (
(270,617,l),
(299,653,l),
(305,653,l),
(337,617,l),
(457,617,l),
(457,627,l),
(331,741,l),
(273,741,l),
(146,627,l),
(146,617,l)
);
},
{
closed = 1;
nodes = (
(473,716,l),
(488,746,o),
(538,756,o),
(538,822,cs),
(538,939,o),
(358,944,o),
(329,842,c),
(381,805,l),
(396,837,o),
(456,838,o),
(456,807,cs),
(456,770,o),
(401,762,o),
(388,736,c),
(388,716,l)
);
}
);
};
layerId = "F5474A38-5AEA-454E-84E5-A62166EBBEA7";
shapes = (
{
ref = O;
},
{
pos = (41,149);
ref = circumflexcomb_hookabovecomb;
}
);
width = 619;
}
);
unicode = 7892;
},
{
glyphname = Ocircumflextilde;
kernLeft = O;
kernRight = O;
lastChange = "2023-04-06 13:37:29 +0000";
layers = (
{
background = {
shapes = (
{
closed = 1;
nodes = (
(466,-14,o),
(557,106,o),
(557,280,c),
(557,458,o),
(466,573,o),
(291,573,c),
(113,573,o),
(25,457,o),
(25,280,c),
(25,100,o),
(118,-14,o),
(291,-14,c)
);
},
{
closed = 1;
nodes = (
(129,11,o),
(51,117,o),
(51,280,c),
(51,450,o),
(133,548,o),
(291,548,c),
(453,548,o),
(531,443,o),
(531,280,c),
(531,116,o),
(450,11,o),
(291,11,c)
);
},
{
closed = 1;
nodes = (
(215,639,l),
(290,721,l),
(292,721,l),
(368,639,l),
(399,639,l),
(399,645,l),
(298,743,l),
(284,743,l),
(184,645,l),
(184,639,l)
);
},
{
closed = 1;
nodes = (
(285,794,o),
(339,794,cs),
(379,794,o),
(392,824,o),
(389,868,c),
(364,868,l),
(364,833,o),
(363,814,o),
(339,814,cs),
(300,814,o),
(297,867,o),
(242,867,cs),
(201,867,o),
(190,838,o),
(192,794,c),
(217,794,l),
(216,827,o),
(219,847,o),
(242,847,cs),
(279,847,o)
);
}
);
};
guides = (
{
pos = (365,617);
},
{
angle = 90;
pos = (293,404);
}
);
layerId = "D86F237C-A043-4FD6-9305-0CC5F899F330";
shapes = (
{
ref = O;
},
{
pos = (117,159);
ref = circumflexcomb_tildecomb;
}
);
width = 597;
},
{
background = {
shapes = (
{
closed = 1;
nodes = (
(489,-14,o),
(588,106,o),
(588,280,cs),
(588,458,o),
(489,573,o),
(302,573,cs),
(110,573,o),
(14,457,o),
(14,280,cs),
(14,100,o),
(115,-14,o),
(302,-14,cs)
);
},
{
closed = 1;
nodes = (
(199,121,o),
(150,195,o),
(150,280,cs),
(150,373,o),
(202,442,o),
(300,442,cs),
(401,442,o),
(451,368,o),
(451,280,cs),
(451,193,o),
(401,121,o),
(300,121,cs)
);
},
{
closed = 1;
nodes = (
(270,617,l),
(299,653,l),
(305,653,l),
(337,617,l),
(457,617,l),
(457,627,l),
(331,741,l),
(273,741,l),
(146,627,l),
(146,617,l)
);
},
{
closed = 1;
nodes = (
(279,765,o),
(355,765,cs),
(445,765,o),
(445,848,o),
(445,898,c),
(367,898,l),
(367,864,o),
(367,844,o),
(347,844,cs),
(314,844,o),
(310,902,o),
(236,902,cs),
(138,902,o),
(146,801,o),
(146,770,c),
(224,770,l),
(224,804,o),
(224,823,o),
(245,823,cs),
(281,823,o)
);
}
);
};
guides = (
{
angle = 90;
pos = (311,345);
}
);
layerId = "F5474A38-5AEA-454E-84E5-A62166EBBEA7";
shapes = (
{
ref = O;
},
{
pos = (66,149);
ref = circumflexcomb_tildecomb;
}
);
width = 619;
}
);
unicode = 7894;
},
{
glyphname = Odieresis;
kernLeft = O;
kernRight = O;
lastChange = "2023-04-06 13:28:58 +0000";
layers = (
{
background = {
shapes = (
{
closed = 1;
nodes = (
(466,-14,o),
(557,106,o),
(557,280,c),
(557,458,o),
(466,573,o),
(291,573,c),
(113,573,o),
(25,457,o),
(25,280,c),
(25,100,o),
(118,-14,o),
(291,-14,c)
);
},
{
closed = 1;
nodes = (
(129,11,o),
(51,117,o),
(51,280,c),
(51,450,o),
(133,548,o),
(291,548,c),
(453,548,o),
(531,443,o),
(531,280,c),
(531,116,o),
(450,11,o),
(291,11,c)
);
},
{
closed = 1;
nodes = (
(256,620,o),
(262,636,o),
(262,654,c),
(262,671,o),
(256,687,o),
(229,687,c),
(202,687,o),
(195,671,o),
(195,654,c),
(195,636,o),
(202,620,o),
(229,620,c)
);
},
{
closed = 1;
nodes = (
(388,620,o),
(394,636,o),
(394,654,c),
(394,671,o),
(388,687,o),
(361,687,c),
(334,687,o),
(327,671,o),
(327,654,c),
(327,636,o),
(334,620,o),
(361,620,c)
);
}
);
};
guides = (
{
angle = 90;
pos = (293,437);
}
);
layerId = "D86F237C-A043-4FD6-9305-0CC5F899F330";
shapes = (
{
ref = O;
},
{
pos = (154,159);
ref = dieresiscomb;
}
);
width = 597;
},
{
background = {
shapes = (
{
closed = 1;
nodes = (
(489,-14,o),
(588,106,o),
(588,280,cs),
(588,458,o),
(489,573,o),
(302,573,cs),
(110,573,o),
(14,457,o),
(14,280,cs),
(14,100,o),
(115,-14,o),
(302,-14,cs)
);
},
{
closed = 1;
nodes = (
(199,121,o),
(150,195,o),
(150,280,cs),
(150,373,o),
(202,442,o),
(300,442,cs),
(401,442,o),
(451,368,o),
(451,280,cs),
(451,193,o),
(401,121,o),
(300,121,cs)
);
},
{
closed = 1;
nodes = (
(270,625,o),
(284,660,o),
(284,701,c),
(284,740,o),
(270,775,o),
(210,775,c),
(150,775,o),
(134,740,o),
(134,701,c),
(134,660,o),
(150,625,o),
(210,625,c)
);
},
{
closed = 1;
nodes = (
(476,625,o),
(490,660,o),
(490,701,c),
(490,740,o),
(476,775,o),
(416,775,c),
(356,775,o),
(340,740,o),
(340,701,c),
(340,660,o),
(356,625,o),
(416,625,c)
);
}
);
};
guides = (
{
angle = 90;
pos = (311,345);
}
);
layerId = "F5474A38-5AEA-454E-84E5-A62166EBBEA7";
shapes = (
{
ref = O;
},
{
pos = (87,149);
ref = dieresiscomb;
}
);
width = 619;
}
);
unicode = 214;
},
{
glyphname = Odotbelow;
kernLeft = O;
kernRight = O;
lastChange = "2023-04-06 13:28:22 +0000";
layers = (
{
background = {
shapes = (
{
closed = 1;
nodes = (
(466,-14,o),
(557,106,o),
(557,280,c),
(557,458,o),
(466,573,o),
(291,573,c),
(113,573,o),
(25,457,o),
(25,280,c),
(25,100,o),
(118,-14,o),
(291,-14,c)
);
},
{
closed = 1;
nodes = (
(129,11,o),
(51,117,o),
(51,280,c),
(51,450,o),
(133,548,o),
(291,548,c),
(453,548,o),
(531,443,o),
(531,280,c),
(531,116,o),
(450,11,o),
(291,11,c)
);
},
{
closed = 1;
nodes = (
(316,-123,o),
(321,-110,o),
(321,-95,c),
(321,-81,o),
(316,-68,o),
(294,-68,c),
(272,-68,o),
(266,-81,o),
(266,-95,c),
(266,-110,o),
(272,-123,o),
(294,-123,c)
);
}
);
};
guides = (
{
angle = 90;
pos = (293,437);
}
);
layerId = "D86F237C-A043-4FD6-9305-0CC5F899F330";
shapes = (
{
ref = O;
},
{
pos = (226,0);
ref = dotbelowcomb;
}
);
width = 597;
},
{
background = {
shapes = (
{
closed = 1;
nodes = (
(489,-14,o),
(588,106,o),
(588,280,cs),
(588,458,o),
(489,573,o),
(302,573,cs),
(110,573,o),
(14,457,o),
(14,280,cs),
(14,100,o),
(115,-14,o),
(302,-14,cs)
);
},
{
closed = 1;
nodes = (
(199,121,o),
(150,195,o),
(150,280,cs),
(150,373,o),
(202,442,o),
(300,442,cs),
(401,442,o),
(451,368,o),
(451,280,cs),
(451,193,o),
(401,121,o),
(300,121,cs)
);
},
{
closed = 1;
nodes = (
(363,-200,o),
(375,-170,o),
(375,-134,c),
(375,-100,o),
(363,-70,o),
(311,-70,c),
(259,-70,o),
(245,-100,o),
(245,-134,c),
(245,-170,o),
(259,-200,o),
(311,-200,c)
);
}
);
};
guides = (
{
angle = 90;
pos = (311,345);
}
);
layerId = "F5474A38-5AEA-454E-84E5-A62166EBBEA7";
shapes = (
{
ref = O;
},
{
pos = (200,0);
ref = dotbelowcomb;
}
);
width = 619;
}
);
unicode = 7884;
},
{
glyphname = Ograve;
kernLeft = O;
kernRight = O;
lastChange = "2023-04-06 13:27:59 +0000";
layers = (
{
background = {
shapes = (
{
closed = 1;
nodes = (
(466,-14,o),
(557,106,o),
(557,280,c),
(557,458,o),
(466,573,o),
(291,573,c),
(113,573,o),
(25,457,o),
(25,280,c),
(25,100,o),
(118,-14,o),
(291,-14,c)
);
},
{
closed = 1;
nodes = (
(129,11,o),
(51,117,o),
(51,280,c),
(51,450,o),
(133,548,o),
(291,548,c),
(453,548,o),
(531,443,o),
(531,280,c),
(531,116,o),
(450,11,o),
(291,11,c)
);
},
{
closed = 1;
nodes = (
(299,610,l),
(299,616,l),
(242,722,l),
(212,722,l),
(212,711,l),
(283,610,l)
);
}
);
};
guides = (
{
pos = (363,563);
},
{
pos = (365,617);
},
{
angle = 90;
pos = (293,437);
}
);
layerId = "D86F237C-A043-4FD6-9305-0CC5F899F330";
shapes = (
{
ref = O;
},
{
pos = (194,159);
ref = gravecomb;
}
);
width = 597;
},
{
background = {
shapes = (
{
closed = 1;
nodes = (
(489,-14,o),
(588,106,o),
(588,280,cs),
(588,458,o),
(489,573,o),
(302,573,cs),
(110,573,o),
(14,457,o),
(14,280,cs),
(14,100,o),
(115,-14,o),
(302,-14,cs)
);
},
{
closed = 1;
nodes = (
(199,121,o),
(150,195,o),
(150,280,cs),
(150,373,o),
(202,442,o),
(300,442,cs),
(401,442,o),
(451,368,o),
(451,280,cs),
(451,193,o),
(401,121,o),
(300,121,cs)
);
},
{
closed = 1;
nodes = (
(324,610,l),
(324,627,l),
(285,724,l),
(170,724,l),
(170,702,l),
(262,610,l)
);
}
);
};
guides = (
{
angle = 90;
pos = (311,345);
}
);
layerId = "F5474A38-5AEA-454E-84E5-A62166EBBEA7";
shapes = (
{
ref = O;
},
{
pos = (149,149);
ref = gravecomb;
}
);
width = 619;
}
);
unicode = 210;
},
{
glyphname = Ohookabove;
kernLeft = O;
kernRight = O;
lastChange = "2023-04-13 13:31:27 +0000";
layers = (
{
background = {
shapes = (
{
closed = 1;
nodes = (
(466,-14,o),
(557,106,o),
(557,280,c),
(557,458,o),
(466,573,o),
(291,573,c),
(113,573,o),
(25,457,o),
(25,280,c),
(25,100,o),
(118,-14,o),
(291,-14,c)
);
},
{
closed = 1;
nodes = (
(129,11,o),
(51,117,o),
(51,280,c),
(51,450,o),
(133,548,o),
(291,548,c),
(453,548,o),
(531,443,o),
(531,280,c),
(531,116,o),
(450,11,o),
(291,11,c)
);
},
{
closed = 1;
nodes = (
(301,622,l),
(301,649,o),
(352,655,o),
(352,701,cs),
(352,762,o),
(254,765,o),
(237,701,c),
(259,695,l),
(274,741,o),
(329,732,o),
(329,698,cs),
(329,665,o),
(280,656,o),
(274,628,c),
(274,622,l)
);
}
);
};
guides = (
{
pos = (365,617);
},
{
angle = 90;
pos = (293,437);
}
);
layerId = "D86F237C-A043-4FD6-9305-0CC5F899F330";
shapes = (
{
ref = O;
},
{
pos = (213,159);
ref = hookabovecomb;
}
);
width = 597;
},
{
background = {
shapes = (
{
closed = 1;
nodes = (
(489,-14,o),
(588,106,o),
(588,280,cs),
(588,458,o),
(489,573,o),
(302,573,cs),
(110,573,o),
(14,457,o),
(14,280,cs),
(14,100,o),
(115,-14,o),
(302,-14,cs)
);
},
{
closed = 1;
nodes = (
(199,121,o),
(150,195,o),
(150,280,cs),
(150,373,o),
(202,442,o),
(300,442,cs),
(401,442,o),
(451,368,o),
(451,280,cs),
(451,193,o),
(401,121,o),
(300,121,cs)
);
},
{
closed = 1;
nodes = (
(353,620,l),
(368,650,o),
(418,660,o),
(418,726,cs),
(418,843,o),
(238,848,o),
(209,746,c),
(261,709,l),
(276,741,o),
(336,742,o),
(336,711,cs),
(336,674,o),
(281,666,o),
(268,640,c),
(268,620,l)
);
}
);
};
guides = (
{
angle = 90;
pos = (311,345);
}
);
layerId = "F5474A38-5AEA-454E-84E5-A62166EBBEA7";
shapes = (
{
ref = O;
},
{
pos = (160,149);
ref = hookabovecomb;
}
);
width = 619;
}
);
unicode = 7886;
},
{
glyphname = Ohorn;
kernLeft = O;
kernRight = O;
lastChange = "2023-04-06 14:14:11 +0000";
layers = (
{
background = {
shapes = (
{
closed = 1;
nodes = (
(466,-14,o),
(557,106,o),
(557,280,c),
(557,458,o),
(466,573,o),
(291,573,c),
(113,573,o),
(25,457,o),
(25,280,c),
(25,100,o),
(118,-14,o),
(291,-14,c)
);
},
{
closed = 1;
nodes = (
(129,11,o),
(51,117,o),
(51,280,c),
(51,450,o),
(133,548,o),
(291,548,c),
(453,548,o),
(531,443,o),
(531,280,c),
(531,116,o),
(450,11,o),
(291,11,c)
);
},
{
closed = 1;
nodes = (
(390,540,ls),
(428,540,o),
(455,555,o),
(455,593,c),
(414,593,l),
(414,569,o),
(409,563,o),
(387,563,cs),
(372,563,l),
(369,540,l)
);
}
);
};
layerId = "D86F237C-A043-4FD6-9305-0CC5F899F330";
shapes = (
{
ref = O;
},
{
pos = (324,-95);
ref = horncomb;
}
);
width = 597;
},
{
background = {
shapes = (
{
closed = 1;
nodes = (
(489,-14,o),
(588,106,o),
(588,280,cs),
(588,458,o),
(489,573,o),
(302,573,cs),
(110,573,o),
(14,457,o),
(14,280,cs),
(14,100,o),
(115,-14,o),
(302,-14,cs)
);
},
{
closed = 1;
nodes = (
(199,121,o),
(150,195,o),
(150,280,cs),
(150,373,o),
(202,442,o),
(300,442,cs),
(401,442,o),
(451,368,o),
(451,280,cs),
(451,193,o),
(401,121,o),
(300,121,cs)
);
},
{
closed = 1;
nodes = (
(415,484,ls),
(522,484,o),
(547,518,o),
(547,623,c),
(461,623,l),
(460,569,o),
(463,563,o),
(430,563,cs),
(376,563,l),
(376,484,l)
);
}
);
};
layerId = "F5474A38-5AEA-454E-84E5-A62166EBBEA7";
shapes = (
{
ref = O;
},
{
pos = (332,-95);
ref = horncomb;
}
);
width = 619;
}
);
unicode = 416;
},
{
glyphname = Ohornacute;
kernLeft = O;
kernRight = O;
lastChange = "2023-04-06 13:31:22 +0000";
layers = (
{
background = {
shapes = (
{
closed = 1;
nodes = (
(466,-14,o),
(557,106,o),
(557,280,c),
(557,458,o),
(466,573,o),
(291,573,c),
(113,573,o),
(25,457,o),
(25,280,c),
(25,100,o),
(118,-14,o),
(291,-14,c)
);
},
{
closed = 1;
nodes = (
(129,11,o),
(51,117,o),
(51,280,c),
(51,450,o),
(133,548,o),
(291,548,c),
(453,548,o),
(531,443,o),
(531,280,c),
(531,116,o),
(450,11,o),
(291,11,c)
);
},
{
closed = 1;
nodes = (
(390,540,ls),
(428,540,o),
(455,555,o),
(455,593,c),
(414,593,l),
(414,569,o),
(409,563,o),
(387,563,cs),
(372,563,l),
(369,540,l)
);
},
{
closed = 1;
nodes = (
(363,711,l),
(363,722,l),
(333,722,l),
(276,616,l),
(276,610,l),
(292,610,l)
);
}
);
};
layerId = "D86F237C-A043-4FD6-9305-0CC5F899F330";
shapes = (
{
ref = Ohorn;
},
{
pos = (252,159);
ref = acutecomb;
}
);
width = 597;
},
{
background = {
shapes = (
{
closed = 1;
nodes = (
(489,-14,o),
(588,106,o),
(588,280,cs),
(588,458,o),
(489,573,o),
(302,573,cs),
(110,573,o),
(14,457,o),
(14,280,cs),
(14,100,o),
(115,-14,o),
(302,-14,cs)
);
},
{
closed = 1;
nodes = (
(199,121,o),
(150,195,o),
(150,280,cs),
(150,373,o),
(202,442,o),
(300,442,cs),
(401,442,o),
(451,368,o),
(451,280,cs),
(451,193,o),
(401,121,o),
(300,121,cs)
);
},
{
closed = 1;
nodes = (
(415,484,ls),
(522,484,o),
(547,518,o),
(547,623,c),
(461,623,l),
(460,569,o),
(463,563,o),
(430,563,cs),
(376,563,l),
(376,484,l)
);
},
{
closed = 1;
nodes = (
(439,702,l),
(439,724,l),
(324,724,l),
(285,627,l),
(285,610,l),
(347,610,l)
);
}
);
};
layerId = "F5474A38-5AEA-454E-84E5-A62166EBBEA7";
shapes = (
{
ref = Ohorn;
},
{
pos = (247,149);
ref = acutecomb;
}
);
width = 619;
}
);
unicode = 7898;
},
{
glyphname = Ohorndotbelow;
kernLeft = O;
kernRight = O;
lastChange = "2023-04-06 13:28:22 +0000";
layers = (
{
background = {
shapes = (
{
closed = 1;
nodes = (
(466,-14,o),
(557,106,o),
(557,280,c),
(557,458,o),
(466,573,o),
(291,573,c),
(113,573,o),
(25,457,o),
(25,280,c),
(25,100,o),
(118,-14,o),
(291,-14,c)
);
},
{
closed = 1;
nodes = (
(129,11,o),
(51,117,o),
(51,280,c),
(51,450,o),
(133,548,o),
(291,548,c),
(453,548,o),
(531,443,o),
(531,280,c),
(531,116,o),
(450,11,o),
(291,11,c)
);
},
{
closed = 1;
nodes = (
(390,540,ls),
(428,540,o),
(455,555,o),
(455,593,c),
(414,593,l),
(414,569,o),
(409,563,o),
(387,563,cs),
(372,563,l),
(369,540,l)
);
},
{
closed = 1;
nodes = (
(315,-123,o),
(320,-110,o),
(320,-95,c),
(320,-81,o),
(315,-68,o),
(293,-68,c),
(271,-68,o),
(265,-81,o),
(265,-95,c),
(265,-110,o),
(271,-123,o),
(293,-123,c)
);
}
);
};
layerId = "D86F237C-A043-4FD6-9305-0CC5F899F330";
shapes = (
{
ref = Ohorn;
},
{
pos = (226,0);
ref = dotbelowcomb;
}
);
width = 597;
},
{
background = {
shapes = (
{
closed = 1;
nodes = (
(489,-14,o),
(588,106,o),
(588,280,cs),
(588,458,o),
(489,573,o),
(302,573,cs),
(110,573,o),
(14,457,o),
(14,280,cs),
(14,100,o),
(115,-14,o),
(302,-14,cs)
);
},
{
closed = 1;
nodes = (
(199,121,o),
(150,195,o),
(150,280,cs),
(150,373,o),
(202,442,o),
(300,442,cs),
(401,442,o),
(451,368,o),
(451,280,cs),
(451,193,o),
(401,121,o),
(300,121,cs)
);
},
{
closed = 1;
nodes = (
(415,484,ls),
(522,484,o),
(547,518,o),
(547,623,c),
(461,623,l),
(460,569,o),
(463,563,o),
(430,563,cs),
(376,563,l),
(376,484,l)
);
},
{
closed = 1;
nodes = (
(355,-200,o),
(367,-170,o),
(367,-134,c),
(367,-100,o),
(355,-70,o),
(303,-70,c),
(251,-70,o),
(237,-100,o),
(237,-134,c),
(237,-170,o),
(251,-200,o),
(303,-200,c)
);
}
);
};
layerId = "F5474A38-5AEA-454E-84E5-A62166EBBEA7";
shapes = (
{
ref = Ohorn;
},
{
pos = (200,0);
ref = dotbelowcomb;
}
);
width = 619;
}
);
unicode = 7906;
},
{
glyphname = Ohorngrave;
kernLeft = O;
kernRight = O;
lastChange = "2023-04-06 13:27:59 +0000";
layers = (
{
background = {
shapes = (
{
closed = 1;
nodes = (
(466,-14,o),
(557,106,o),
(557,280,c),
(557,458,o),
(466,573,o),
(291,573,c),
(113,573,o),
(25,457,o),
(25,280,c),
(25,100,o),
(118,-14,o),
(291,-14,c)
);
},
{
closed = 1;
nodes = (
(129,11,o),
(51,117,o),
(51,280,c),
(51,450,o),
(133,548,o),
(291,548,c),
(453,548,o),
(531,443,o),
(531,280,c),
(531,116,o),
(450,11,o),
(291,11,c)
);
},
{
closed = 1;
nodes = (
(390,540,ls),
(428,540,o),
(455,555,o),
(455,593,c),
(414,593,l),
(414,569,o),
(409,563,o),
(387,563,cs),
(372,563,l),
(369,540,l)
);
},
{
closed = 1;
nodes = (
(299,610,l),
(299,616,l),
(242,722,l),
(212,722,l),
(212,711,l),
(283,610,l)
);
}
);
};
layerId = "D86F237C-A043-4FD6-9305-0CC5F899F330";
shapes = (
{
ref = Ohorn;
},
{
pos = (194,159);
ref = gravecomb;
}
);
width = 597;
},
{
background = {
shapes = (
{
closed = 1;
nodes = (
(489,-14,o),
(588,106,o),
(588,280,cs),
(588,458,o),
(489,573,o),
(302,573,cs),
(110,573,o),
(14,457,o),
(14,280,cs),
(14,100,o),
(115,-14,o),
(302,-14,cs)
);
},
{
closed = 1;
nodes = (
(199,121,o),
(150,195,o),
(150,280,cs),
(150,373,o),
(202,442,o),
(300,442,cs),
(401,442,o),
(451,368,o),
(451,280,cs),
(451,193,o),
(401,121,o),
(300,121,cs)
);
},
{
closed = 1;
nodes = (
(415,484,ls),
(522,484,o),
(547,518,o),
(547,623,c),
(461,623,l),
(460,569,o),
(463,563,o),
(430,563,cs),
(376,563,l),
(376,484,l)
);
},
{
closed = 1;
nodes = (
(324,610,l),
(324,627,l),
(285,724,l),
(170,724,l),
(170,702,l),
(262,610,l)
);
}
);
};
layerId = "F5474A38-5AEA-454E-84E5-A62166EBBEA7";
shapes = (
{
ref = Ohorn;
},
{
pos = (149,149);
ref = gravecomb;
}
);
width = 619;
}
);
unicode = 7900;
},
{
glyphname = Ohornhookabove;
kernLeft = O;
kernRight = O;
lastChange = "2023-04-13 13:31:27 +0000";
layers = (
{
background = {
shapes = (
{
closed = 1;
nodes = (
(466,-14,o),
(557,106,o),
(557,280,c),
(557,458,o),
(466,573,o),
(291,573,c),
(113,573,o),
(25,457,o),
(25,280,c),
(25,100,o),
(118,-14,o),
(291,-14,c)
);
},
{
closed = 1;
nodes = (
(129,11,o),
(51,117,o),
(51,280,c),
(51,450,o),
(133,548,o),
(291,548,c),
(453,548,o),
(531,443,o),
(531,280,c),
(531,116,o),
(450,11,o),
(291,11,c)
);
},
{
closed = 1;
nodes = (
(390,540,ls),
(428,540,o),
(455,555,o),
(455,593,c),
(414,593,l),
(414,569,o),
(409,563,o),
(387,563,cs),
(372,563,l),
(369,540,l)
);
},
{
closed = 1;
nodes = (
(301,622,l),
(301,649,o),
(352,655,o),
(352,701,cs),
(352,762,o),
(254,765,o),
(237,701,c),
(259,695,l),
(274,741,o),
(329,732,o),
(329,698,cs),
(329,665,o),
(280,656,o),
(274,628,c),
(274,622,l)
);
}
);
};
layerId = "D86F237C-A043-4FD6-9305-0CC5F899F330";
shapes = (
{
ref = Ohorn;
},
{
pos = (213,159);
ref = hookabovecomb;
}
);
width = 597;
},
{
background = {
shapes = (
{
closed = 1;
nodes = (
(489,-14,o),
(588,106,o),
(588,280,cs),
(588,458,o),
(489,573,o),
(302,573,cs),
(110,573,o),
(14,457,o),
(14,280,cs),
(14,100,o),
(115,-14,o),
(302,-14,cs)
);
},
{
closed = 1;
nodes = (
(199,121,o),
(150,195,o),
(150,280,cs),
(150,373,o),
(202,442,o),
(300,442,cs),
(401,442,o),
(451,368,o),
(451,280,cs),
(451,193,o),
(401,121,o),
(300,121,cs)
);
},
{
closed = 1;
nodes = (
(415,484,ls),
(522,484,o),
(547,518,o),
(547,623,c),
(461,623,l),
(460,569,o),
(463,563,o),
(430,563,cs),
(376,563,l),
(376,484,l)
);
},
{
closed = 1;
nodes = (
(353,620,l),
(368,650,o),
(418,660,o),
(418,726,cs),
(418,843,o),
(238,848,o),
(209,746,c),
(261,709,l),
(276,741,o),
(336,742,o),
(336,711,cs),
(336,674,o),
(281,666,o),
(268,640,c),
(268,620,l)
);
}
);
};
layerId = "F5474A38-5AEA-454E-84E5-A62166EBBEA7";
shapes = (
{
ref = Ohorn;
},
{
pos = (160,149);
ref = hookabovecomb;
}
);
width = 619;
}
);
unicode = 7902;
},
{
glyphname = Ohorntilde;
kernLeft = O;
kernRight = O;
lastChange = "2023-04-06 13:25:51 +0000";
layers = (
{
background = {
shapes = (
{
closed = 1;
nodes = (
(466,-14,o),
(557,106,o),
(557,280,c),
(557,458,o),
(466,573,o),
(291,573,c),
(113,573,o),
(25,457,o),
(25,280,c),
(25,100,o),
(118,-14,o),
(291,-14,c)
);
},
{
closed = 1;
nodes = (
(129,11,o),
(51,117,o),
(51,280,c),
(51,450,o),
(133,548,o),
(291,548,c),
(453,548,o),
(531,443,o),
(531,280,c),
(531,116,o),
(450,11,o),
(291,11,c)
);
},
{
closed = 1;
nodes = (
(390,540,ls),
(428,540,o),
(455,555,o),
(455,593,c),
(414,593,l),
(414,569,o),
(409,563,o),
(387,563,cs),
(372,563,l),
(369,540,l)
);
},
{
closed = 1;
nodes = (
(286,618,o),
(340,618,cs),
(380,618,o),
(393,648,o),
(390,692,c),
(365,692,l),
(365,657,o),
(364,638,o),
(340,638,cs),
(301,638,o),
(298,691,o),
(243,691,cs),
(202,691,o),
(191,662,o),
(193,618,c),
(218,618,l),
(217,651,o),
(220,671,o),
(243,671,cs),
(280,671,o)
);
}
);
};
layerId = "D86F237C-A043-4FD6-9305-0CC5F899F330";
shapes = (
{
ref = Ohorn;
},
{
pos = (122,159);
ref = tildecomb;
}
);
width = 597;
},
{
background = {
shapes = (
{
closed = 1;
nodes = (
(489,-14,o),
(588,106,o),
(588,280,cs),
(588,458,o),
(489,573,o),
(302,573,cs),
(110,573,o),
(14,457,o),
(14,280,cs),
(14,100,o),
(115,-14,o),
(302,-14,cs)
);
},
{
closed = 1;
nodes = (
(199,121,o),
(150,195,o),
(150,280,cs),
(150,373,o),
(202,442,o),
(300,442,cs),
(401,442,o),
(451,368,o),
(451,280,cs),
(451,193,o),
(401,121,o),
(300,121,cs)
);
},
{
closed = 1;
nodes = (
(415,484,ls),
(522,484,o),
(547,518,o),
(547,623,c),
(461,623,l),
(460,569,o),
(463,563,o),
(430,563,cs),
(376,563,l),
(376,484,l)
);
},
{
closed = 1;
nodes = (
(294,627,o),
(370,627,cs),
(460,627,o),
(460,710,o),
(460,760,c),
(382,760,l),
(382,726,o),
(382,706,o),
(362,706,cs),
(329,706,o),
(325,764,o),
(251,764,cs),
(153,764,o),
(161,663,o),
(161,632,c),
(239,632,l),
(239,666,o),
(239,685,o),
(260,685,cs),
(296,685,o)
);
}
);
};
layerId = "F5474A38-5AEA-454E-84E5-A62166EBBEA7";
shapes = (
{
ref = Ohorn;
},
{
pos = (117,149);
ref = tildecomb;
}
);
width = 619;
}
);
unicode = 7904;
},
{
glyphname = Ohungarumlaut;
kernLeft = O;
kernRight = O;
lastChange = "2023-04-13 13:33:45 +0000";
layers = (
{
background = {
shapes = (
{
closed = 1;
nodes = (
(239,632,l),
(335,753,l),
(305,766,l),
(223,639,l)
);
},
{
closed = 1;
nodes = (
(349,632,l),
(445,753,l),
(415,766,l),
(333,639,l)
);
},
{
closed = 1;
nodes = (
(466,-14,o),
(557,106,o),
(557,280,c),
(557,458,o),
(466,573,o),
(291,573,c),
(113,573,o),
(25,457,o),
(25,280,c),
(25,100,o),
(118,-14,o),
(291,-14,c)
);
},
{
closed = 1;
nodes = (
(129,11,o),
(51,117,o),
(51,280,c),
(51,450,o),
(133,548,o),
(291,548,c),
(453,548,o),
(531,443,o),
(531,280,c),
(531,116,o),
(450,11,o),
(291,11,c)
);
}
);
};
layerId = "D86F237C-A043-4FD6-9305-0CC5F899F330";
shapes = (
{
ref = O;
},
{
pos = (192,159);
ref = hungarumlautcomb;
}
);
width = 597;
},
{
background = {
shapes = (
{
closed = 1;
nodes = (
(216,610,l),
(328,745,l),
(221,798,l),
(154,640,l)
);
},
{
closed = 1;
nodes = (
(417,610,l),
(529,745,l),
(422,798,l),
(355,640,l)
);
},
{
closed = 1;
nodes = (
(489,-14,o),
(588,106,o),
(588,280,cs),
(588,458,o),
(489,573,o),
(302,573,cs),
(110,573,o),
(14,457,o),
(14,280,cs),
(14,100,o),
(115,-14,o),
(302,-14,cs)
);
},
{
closed = 1;
nodes = (
(199,121,o),
(150,195,o),
(150,280,cs),
(150,373,o),
(202,442,o),
(300,442,cs),
(401,442,o),
(451,368,o),
(451,280,cs),
(451,193,o),
(401,121,o),
(300,121,cs)
);
}
);
};
layerId = "F5474A38-5AEA-454E-84E5-A62166EBBEA7";
shapes = (
{
ref = O;
},
{
pos = (121,149);
ref = hungarumlautcomb;
}
);
width = 619;
}
);
unicode = 336;
},
{
glyphname = Omacron;
kernLeft = O;
kernRight = O;
lastChange = "2023-04-06 14:26:35 +0000";
layers = (
{
background = {
shapes = (
{
closed = 1;
nodes = (
(466,-14,o),
(557,106,o),
(557,280,c),
(557,458,o),
(466,573,o),
(291,573,c),
(113,573,o),
(25,457,o),
(25,280,c),
(25,100,o),
(118,-14,o),
(291,-14,c)
);
},
{
closed = 1;
nodes = (
(129,11,o),
(51,117,o),
(51,280,c),
(51,450,o),
(133,548,o),
(291,548,c),
(453,548,o),
(531,443,o),
(531,280,c),
(531,116,o),
(450,11,o),
(291,11,c)
);
},
{
closed = 1;
nodes = (
(402,617,l),
(402,643,l),
(180,643,l),
(180,617,l)
);
}
);
};
layerId = "D86F237C-A043-4FD6-9305-0CC5F899F330";
shapes = (
{
ref = O;
},
{
pos = (148,159);
ref = macroncomb;
}
);
width = 597;
},
{
background = {
shapes = (
{
closed = 1;
nodes = (
(489,-14,o),
(588,106,o),
(588,280,cs),
(588,458,o),
(489,573,o),
(302,573,cs),
(110,573,o),
(14,457,o),
(14,280,cs),
(14,100,o),
(115,-14,o),
(302,-14,cs)
);
},
{
closed = 1;
nodes = (
(199,121,o),
(150,195,o),
(150,280,cs),
(150,373,o),
(202,442,o),
(300,442,cs),
(401,442,o),
(451,368,o),
(451,280,cs),
(451,193,o),
(401,121,o),
(300,121,cs)
);
},
{
closed = 1;
nodes = (
(464,626,l),
(464,720,l),
(162,720,l),
(162,626,l)
);
}
);
};
guides = (
{
angle = 90;
pos = (311,345);
}
);
layerId = "F5474A38-5AEA-454E-84E5-A62166EBBEA7";
shapes = (
{
ref = O;
},
{
pos = (119,149);
ref = macroncomb;
}
);
width = 619;
}
);
unicode = 332;
},
{
glyphname = Oslash;
kernLeft = O;
kernRight = O;
lastChange = "2023-04-13 12:22:50 +0000";
layers = (
{
background = {
shapes = (
{
closed = 1;
nodes = (
(110,-34,l),
(532,577,l),
(512,589,l),
(90,-22,l)
);
},
{
closed = 1;
nodes = (
(466,-14,o),
(557,106,o),
(557,280,c),
(557,458,o),
(466,573,o),
(291,573,c),
(113,573,o),
(25,457,o),
(25,280,c),
(25,100,o),
(118,-14,o),
(291,-14,c)
);
},
{
closed = 1;
nodes = (
(129,11,o),
(51,117,o),
(51,280,c),
(51,450,o),
(133,548,o),
(291,548,c),
(453,548,o),
(531,443,o),
(531,280,c),
(531,116,o),
(450,11,o),
(291,11,c)
);
}
);
};
guides = (
{
angle = 90;
pos = (311,277);
},
{
pos = (396,277);
}
);
layerId = "D86F237C-A043-4FD6-9305-0CC5F899F330";
shapes = (
{
closed = 1;
nodes = (
(110,-34,l),
(532,577,l),
(512,589,l),
(90,-22,l)
);
},
{
ref = O;
}
);
width = 600;
},
{
background = {
shapes = (
{
closed = 1;
nodes = (
(111,-44,l),
(541,578,l),
(511,595,l),
(81,-27,l)
);
},
{
closed = 1;
nodes = (
(489,-14,o),
(588,106,o),
(588,280,cs),
(588,458,o),
(489,573,o),
(302,573,cs),
(110,573,o),
(14,457,o),
(14,280,cs),
(14,100,o),
(115,-14,o),
(302,-14,cs)
);
},
{
closed = 1;
nodes = (
(199,121,o),
(150,195,o),
(150,280,cs),
(150,373,o),
(202,442,o),
(300,442,cs),
(401,442,o),
(451,368,o),
(451,280,cs),
(451,193,o),
(401,121,o),
(300,121,cs)
);
}
);
};
guides = (
{
angle = 90;
pos = (311,277);
},
{
pos = (396,277);
}
);
layerId = "F5474A38-5AEA-454E-84E5-A62166EBBEA7";
shapes = (
{
closed = 1;
nodes = (
(111,-44,l),
(541,578,l),
(511,595,l),
(81,-27,l)
);
},
{
ref = O;
}
);
width = 600;
}
);
unicode = 216;
},
{
glyphname = Otilde;
kernLeft = O;
kernRight = O;
lastChange = "2023-04-06 13:25:51 +0000";
layers = (
{
background = {
shapes = (
{
closed = 1;
nodes = (
(466,-14,o),
(557,106,o),
(557,280,c),
(557,458,o),
(466,573,o),
(291,573,c),
(113,573,o),
(25,457,o),
(25,280,c),
(25,100,o),
(118,-14,o),
(291,-14,c)
);
},
{
closed = 1;
nodes = (
(129,11,o),
(51,117,o),
(51,280,c),
(51,450,o),
(133,548,o),
(291,548,c),
(453,548,o),
(531,443,o),
(531,280,c),
(531,116,o),
(450,11,o),
(291,11,c)
);
},
{
closed = 1;
nodes = (
(286,618,o),
(340,618,cs),
(380,618,o),
(393,648,o),
(390,692,c),
(365,692,l),
(365,657,o),
(364,638,o),
(340,638,cs),
(301,638,o),
(298,691,o),
(243,691,cs),
(202,691,o),
(191,662,o),
(193,618,c),
(218,618,l),
(217,651,o),
(220,671,o),
(243,671,cs),
(280,671,o)
);
}
);
};
guides = (
{
pos = (363,563);
},
{
pos = (365,617);
},
{
angle = 90;
pos = (293,437);
}
);
layerId = "D86F237C-A043-4FD6-9305-0CC5F899F330";
shapes = (
{
ref = O;
},
{
pos = (122,159);
ref = tildecomb;
}
);
width = 597;
},
{
background = {
shapes = (
{
closed = 1;
nodes = (
(489,-14,o),
(588,106,o),
(588,280,cs),
(588,458,o),
(489,573,o),
(302,573,cs),
(110,573,o),
(14,457,o),
(14,280,cs),
(14,100,o),
(115,-14,o),
(302,-14,cs)
);
},
{
closed = 1;
nodes = (
(199,121,o),
(150,195,o),
(150,280,cs),
(150,373,o),
(202,442,o),
(300,442,cs),
(401,442,o),
(451,368,o),
(451,280,cs),
(451,193,o),
(401,121,o),
(300,121,cs)
);
},
{
closed = 1;
nodes = (
(287,627,o),
(363,627,cs),
(453,627,o),
(453,710,o),
(453,760,c),
(375,760,l),
(375,726,o),
(375,706,o),
(355,706,cs),
(322,706,o),
(318,764,o),
(244,764,cs),
(146,764,o),
(154,663,o),
(154,632,c),
(232,632,l),
(232,666,o),
(232,685,o),
(253,685,cs),
(289,685,o)
);
}
);
};
guides = (
{
angle = 90;
pos = (311,345);
}
);
layerId = "F5474A38-5AEA-454E-84E5-A62166EBBEA7";
shapes = (
{
ref = O;
},
{
pos = (117,149);
ref = tildecomb;
}
);
width = 619;
}
);
unicode = 213;
},
{
glyphname = OE;
lastChange = "2023-04-13 12:38:45 +0000";
layers = (
{
anchors = (
{
name = bottom;
pos = (413,0);
},
{
name = top;
pos = (413,563);
}
);
background = {
shapes = (
{
closed = 1;
nodes = (
(376,0,o),
(373,0,o),
(455,0,c),
(455,563,l),
(368,563,o),
(374,563,o),
(356,563,c),
(161,563,o),
(30,469,o),
(30,282,c),
(30,60,o),
(161,0,o),
(356,0,c)
);
},
{
closed = 1;
nodes = (
(177,25,o),
(58,70,o),
(58,282,c),
(58,458,o),
(177,538,o),
(356,538,c),
(428,538,l),
(428,25,l),
(362,25,o),
(373,25,o),
(356,25,c)
);
},
{
closed = 1;
nodes = (
(790,0,l),
(790,25,l),
(455,25,l),
(455,272,l),
(720,272,l),
(720,298,l),
(455,298,l),
(455,537,l),
(781,537,l),
(781,563,l),
(428,563,l),
(428,0,l)
);
}
);
};
layerId = "D86F237C-A043-4FD6-9305-0CC5F899F330";
shapes = (
{
closed = 1;
nodes = (
(376,0,o),
(373,0,o),
(455,0,c),
(455,563,l),
(368,563,o),
(374,563,o),
(356,563,cs),
(161,563,o),
(30,469,o),
(30,282,cs),
(30,60,o),
(161,0,o),
(356,0,cs)
);
},
{
closed = 1;
nodes = (
(177,25,o),
(58,70,o),
(58,282,cs),
(58,458,o),
(177,538,o),
(356,538,cs),
(428,538,l),
(428,25,l),
(362,25,o),
(373,25,o),
(356,25,cs)
);
},
{
closed = 1;
nodes = (
(790,0,l),
(790,25,l),
(455,25,l),
(455,272,l),
(720,272,l),
(720,298,l),
(455,298,l),
(455,537,l),
(781,537,l),
(781,563,l),
(428,563,l),
(428,0,l)
);
}
);
width = 825;
},
{
anchors = (
{
name = bottom;
pos = (429,0);
},
{
name = top;
pos = (429,563);
}
);
background = {
shapes = (
{
closed = 1;
nodes = (
(418,0,o),
(431,0,o),
(523,0,c),
(523,563,l),
(425,563,o),
(416,563,o),
(395,563,c),
(173,563,o),
(40,469,o),
(40,282,c),
(40,60,o),
(173,0,o),
(395,0,c)
);
},
{
closed = 1;
nodes = (
(253,114,o),
(189,144,o),
(189,283,c),
(189,389,o),
(253,443,o),
(361,443,c),
(385,443,l),
(385,114,l),
(346,114,o),
(369,114,o),
(361,114,c)
);
},
{
closed = 1;
nodes = (
(822,0,l),
(822,111,l),
(522,111,l),
(522,229,l),
(737,229,l),
(737,341,l),
(522,341,l),
(522,444,l),
(811,444,l),
(811,563,l),
(385,563,l),
(385,0,l)
);
}
);
};
layerId = "F5474A38-5AEA-454E-84E5-A62166EBBEA7";
shapes = (
{
closed = 1;
nodes = (
(418,0,o),
(431,0,o),
(523,0,c),
(523,563,l),
(425,563,o),
(416,563,o),
(395,563,c),
(173,563,o),
(40,469,o),
(40,282,c),
(40,60,o),
(173,0,o),
(395,0,c)
);
},
{
closed = 1;
nodes = (
(253,114,o),
(189,144,o),
(189,283,c),
(189,389,o),
(253,443,o),
(361,443,c),
(385,443,l),
(385,114,l),
(346,114,o),
(369,114,o),
(361,114,c)
);
},
{
closed = 1;
nodes = (
(822,0,l),
(822,111,l),
(522,111,l),
(522,229,l),
(737,229,l),
(737,341,l),
(522,341,l),
(522,444,l),
(811,444,l),
(811,563,l),
(385,563,l),
(385,0,l)
);
}
);
width = 858;
}
);
unicode = 338;
},
{
glyphname = P;
lastChange = "2023-04-13 12:22:50 +0000";
layers = (
{
anchors = (
{
name = bottom;
pos = (240,0);
},
{
name = top;
pos = (240,563);
}
);
background = {
shapes = (
{
closed = 1;
nodes = (
(96,563,l),
(70,563,l),
(70,0,l),
(96,0,l)
);
},
{
closed = 1;
nodes = (
(90,537,l),
(272,537,l),
(379,537,o),
(429,492,o),
(429,393,c),
(429,297,o),
(376,251,o),
(272,251,c),
(89,251,l),
(89,224,l),
(272,224,l),
(389,224,o),
(454,283,o),
(454,393,c),
(454,506,o),
(393,563,o),
(272,563,c),
(90,563,l)
);
}
);
};
guides = (
{
angle = 90;
pos = (341,232);
},
{
angle = 90;
pos = (96,540);
}
);
layerId = "D86F237C-A043-4FD6-9305-0CC5F899F330";
shapes = (
{
closed = 1;
nodes = (
(96,563,l),
(70,563,l),
(70,0,l),
(96,0,l)
);
},
{
closed = 1;
nodes = (
(90,537,l),
(272,537,l),
(379,537,o),
(429,492,o),
(429,393,c),
(429,297,o),
(376,251,o),
(272,251,c),
(89,251,l),
(89,224,l),
(272,224,l),
(389,224,o),
(454,283,o),
(454,393,c),
(454,506,o),
(393,563,o),
(272,563,c),
(90,563,l)
);
}
);
width = 479;
},
{
anchors = (
{
name = bottom;
pos = (254,0);
},
{
name = top;
pos = (254,563);
}
);
background = {
shapes = (
{
closed = 1;
nodes = (
(190,563,l),
(50,563,l),
(50,0,l),
(190,0,l)
);
},
{
closed = 1;
nodes = (
(171,451,l),
(267,451,l),
(324,451,o),
(369,424,o),
(369,367,c),
(369,311,o),
(323,282,o),
(267,282,c),
(172,282,l),
(172,184,l),
(288,184,l),
(412,184,o),
(495,253,o),
(495,365,c),
(495,497,o),
(416,563,o),
(288,563,c),
(171,563,l)
);
}
);
};
guides = (
{
pos = (135,468);
}
);
layerId = "F5474A38-5AEA-454E-84E5-A62166EBBEA7";
shapes = (
{
closed = 1;
nodes = (
(190,563,l),
(50,563,l),
(50,0,l),
(190,0,l)
);
},
{
closed = 1;
nodes = (
(171,451,l),
(267,451,l),
(324,451,o),
(369,424,o),
(369,367,c),
(369,311,o),
(323,282,o),
(267,282,c),
(172,282,l),
(172,184,l),
(288,184,l),
(412,184,o),
(495,253,o),
(495,365,c),
(495,497,o),
(416,563,o),
(288,563,c),
(171,563,l)
);
}
);
width = 508;
}
);
unicode = 80;
},
{
glyphname = Thorn;
lastChange = "2023-04-13 12:22:50 +0000";
layers = (
{
anchors = (
{
name = bottom;
pos = (237,0);
},
{
name = top;
pos = (237,563);
}
);
background = {
shapes = (
{
closed = 1;
nodes = (
(96,563,l),
(70,563,l),
(70,0,l),
(96,0,l)
);
},
{
closed = 1;
nodes = (
(90,425,l),
(267,425,l),
(374,425,o),
(424,380,o),
(424,281,c),
(424,185,o),
(371,139,o),
(267,139,c),
(89,139,l),
(89,112,l),
(267,112,l),
(384,112,o),
(449,171,o),
(449,281,c),
(449,394,o),
(388,451,o),
(267,451,c),
(90,451,l)
);
}
);
};
layerId = "D86F237C-A043-4FD6-9305-0CC5F899F330";
shapes = (
{
closed = 1;
nodes = (
(96,563,l),
(70,563,l),
(70,0,l),
(96,0,l)
);
},
{
closed = 1;
nodes = (
(90,425,l),
(267,425,l),
(374,425,o),
(424,380,o),
(424,281,c),
(424,185,o),
(371,139,o),
(267,139,c),
(89,139,l),
(89,112,l),
(267,112,l),
(384,112,o),
(449,171,o),
(449,281,c),
(449,394,o),
(388,451,o),
(267,451,c),
(90,451,l)
);
}
);
width = 474;
},
{
anchors = (
{
name = bottom;
pos = (250,0);
},
{
name = top;
pos = (250,563);
}
);
background = {
shapes = (
{
closed = 1;
nodes = (
(190,563,l),
(50,563,l),
(50,0,l),
(190,0,l)
);
},
{
closed = 1;
nodes = (
(171,359,l),
(259,359,l),
(316,359,o),
(361,332,o),
(361,275,c),
(361,219,o),
(315,190,o),
(259,190,c),
(172,190,l),
(172,92,l),
(280,92,l),
(404,92,o),
(487,161,o),
(487,273,c),
(487,405,o),
(408,471,o),
(280,471,c),
(171,471,l)
);
}
);
};
layerId = "F5474A38-5AEA-454E-84E5-A62166EBBEA7";
shapes = (
{
closed = 1;
nodes = (
(190,563,l),
(50,563,l),
(50,0,l),
(190,0,l)
);
},
{
closed = 1;
nodes = (
(171,359,l),
(259,359,l),
(316,359,o),
(361,332,o),
(361,275,c),
(361,219,o),
(315,190,o),
(259,190,c),
(172,190,l),
(172,92,l),
(280,92,l),
(404,92,o),
(487,161,o),
(487,273,c),
(487,405,o),
(408,471,o),
(280,471,c),
(171,471,l)
);
}
);
width = 500;
}
);
unicode = 222;
},
{
glyphname = Q;
lastChange = "2023-04-13 12:22:50 +0000";
layers = (
{
anchors = (
{
name = bottom;
pos = (301,0);
},
{
name = top;
pos = (301,563);
}
);
background = {
shapes = (
{
closed = 1;
nodes = (
(479,-14,o),
(570,106,o),
(570,282,c),
(570,458,o),
(479,573,o),
(304,573,c),
(126,573,o),
(38,457,o),
(38,280,c),
(38,100,o),
(131,-14,o),
(304,-14,c)
);
},
{
closed = 1;
nodes = (
(393,-102,o),
(412,-75,o),
(412,-75,c),
(404,-53,l),
(404,-53,o),
(387,-77,o),
(358,-77,c),
(317,-77,o),
(317,-28,o),
(317,-11,c),
(317,8,l),
(293,8,l),
(293,-11,l),
(293,-80,o),
(322,-102,o),
(358,-102,c)
);
},
{
closed = 1;
nodes = (
(142,11,o),
(64,117,o),
(64,281,c),
(64,450,o),
(146,548,o),
(304,548,c),
(466,548,o),
(544,443,o),
(544,280,c),
(544,116,o),
(463,11,o),
(304,11,c)
);
}
);
};
guides = (
{
pos = (807,-14);
}
);
layerId = "D86F237C-A043-4FD6-9305-0CC5F899F330";
shapes = (
{
closed = 1;
nodes = (
(479,-14,o),
(570,106,o),
(570,282,c),
(570,458,o),
(479,573,o),
(304,573,c),
(126,573,o),
(38,457,o),
(38,280,c),
(38,100,o),
(131,-14,o),
(304,-14,c)
);
},
{
closed = 1;
nodes = (
(393,-102,o),
(412,-75,o),
(412,-75,c),
(404,-53,l),
(404,-53,o),
(387,-77,o),
(358,-77,c),
(317,-77,o),
(317,-28,o),
(317,-11,c),
(317,8,l),
(293,8,l),
(293,-11,l),
(293,-80,o),
(322,-102,o),
(358,-102,c)
);
},
{
closed = 1;
nodes = (
(142,11,o),
(64,117,o),
(64,281,c),
(64,450,o),
(146,548,o),
(304,548,c),
(466,548,o),
(544,443,o),
(544,280,c),
(544,116,o),
(463,11,o),
(304,11,c)
);
}
);
width = 601;
},
{
anchors = (
{
name = bottom;
pos = (318,0);
},
{
name = top;
pos = (318,563);
}
);
background = {
shapes = (
{
closed = 1;
nodes = (
(507,-14,o),
(606,106,o),
(606,280,cs),
(606,457,o),
(507,573,o),
(319,573,cs),
(126,573,o),
(30,456,o),
(30,280,cs),
(30,100,o),
(131,-14,o),
(319,-14,cs)
);
},
{
closed = 1;
nodes = (
(393,-141,o),
(484,-140,o),
(492,-140,c),
(494,-35,l),
(468,-35,o),
(438,-36,o),
(444,-36,c),
(390,-36,o),
(395,-36,o),
(395,25,c),
(395,69,l),
(262,69,l),
(262,14,l),
(262,-147,o),
(342,-141,o),
(400,-141,c)
);
},
{
closed = 1;
nodes = (
(219,124,o),
(172,188,o),
(172,285,cs),
(172,387,o),
(222,447,o),
(317,447,cs),
(415,447,o),
(463,382,o),
(463,285,cs),
(463,187,o),
(415,124,o),
(317,124,cs)
);
}
);
};
guides = (
{
angle = 90;
pos = (323,46);
},
{
pos = (273,-139);
},
{
pos = (273,-366);
},
{
pos = (213,69);
},
{
angle = 90;
pos = (262,-82);
}
);
layerId = "F5474A38-5AEA-454E-84E5-A62166EBBEA7";
shapes = (
{
closed = 1;
nodes = (
(507,-14,o),
(606,106,o),
(606,280,cs),
(606,457,o),
(507,573,o),
(319,573,cs),
(126,573,o),
(30,456,o),
(30,280,cs),
(30,100,o),
(131,-14,o),
(319,-14,cs)
);
},
{
closed = 1;
nodes = (
(393,-141,o),
(484,-140,o),
(492,-140,c),
(494,-35,l),
(468,-35,o),
(438,-36,o),
(444,-36,c),
(390,-36,o),
(395,-36,o),
(395,25,c),
(395,69,l),
(262,69,l),
(262,14,l),
(262,-147,o),
(342,-141,o),
(400,-141,c)
);
},
{
closed = 1;
nodes = (
(219,124,o),
(172,188,o),
(172,285,cs),
(172,387,o),
(222,447,o),
(317,447,cs),
(415,447,o),
(463,382,o),
(463,285,cs),
(463,187,o),
(415,124,o),
(317,124,cs)
);
}
);
width = 636;
}
);
unicode = 81;
},
{
glyphname = R;
kernLeft = R;
kernRight = R;
lastChange = "2023-04-13 12:22:50 +0000";
layers = (
{
anchors = (
{
name = bottom;
pos = (254,0);
},
{
name = top;
pos = (243,563);
}
);
background = {
shapes = (
{
closed = 1;
nodes = (
(95,0,l),
(95,253,l),
(381,253,o),
(402,278,o),
(402,59,c),
(402,-29,o),
(473,-8,o),
(473,-8,c),
(473,17,l),
(362,-21,o),
(510,266,o),
(313,266,c),
(409,266,o),
(449,337,o),
(449,407,c),
(449,530,o),
(373,563,o),
(232,563,c),
(68,563,l),
(68,0,l)
);
},
{
closed = 1;
nodes = (
(95,537,l),
(232,537,l),
(355,537,o),
(424,520,o),
(424,407,c),
(424,311,o),
(370,278,o),
(257,278,c),
(95,278,l)
);
}
);
};
guides = (
{
angle = 90;
pos = (320,556);
},
{
pos = (293,536);
},
{
pos = (291,-10);
}
);
layerId = "D86F237C-A043-4FD6-9305-0CC5F899F330";
shapes = (
{
closed = 1;
nodes = (
(95,0,l),
(95,253,l),
(381,253,o),
(402,278,o),
(402,59,c),
(402,-29,o),
(473,-8,o),
(473,-8,c),
(473,17,l),
(362,-21,o),
(510,266,o),
(313,266,c),
(409,266,o),
(449,337,o),
(449,407,c),
(449,530,o),
(373,563,o),
(232,563,c),
(68,563,l),
(68,0,l)
);
},
{
closed = 1;
nodes = (
(95,537,l),
(232,537,l),
(355,537,o),
(424,520,o),
(424,407,c),
(424,311,o),
(370,278,o),
(257,278,c),
(95,278,l)
);
}
);
width = 508;
},
{
anchors = (
{
name = bottom;
pos = (289,0);
},
{
name = top;
pos = (258,563);
}
);
background = {
shapes = (
{
closed = 1;
nodes = (
(190,0,l),
(190,223,l),
(342,237,o),
(348,194,o),
(348,130,cs),
(348,-20,o),
(470,-38,o),
(545,25,c),
(545,101,l),
(427,53,o),
(505,233,o),
(393,233,c),
(469,233,o),
(517,291,o),
(517,393,cs),
(517,516,o),
(426,563,o),
(279,563,cs),
(50,563,l),
(50,0,l)
);
},
{
closed = 1;
nodes = (
(190,451,l),
(242,451,ls),
(340,451,o),
(393,455,o),
(393,381,cs),
(393,314,o),
(351,321,o),
(260,321,cs),
(190,321,l)
);
}
);
};
guides = (
{
pos = (165,468);
},
{
pos = (172,334);
},
{
pos = (498,-10);
}
);
layerId = "F5474A38-5AEA-454E-84E5-A62166EBBEA7";
shapes = (
{
closed = 1;
nodes = (
(190,0,l),
(190,223,l),
(342,237,o),
(348,194,o),
(348,130,cs),
(348,-20,o),
(470,-38,o),
(545,25,c),
(545,101,l),
(427,53,o),
(505,233,o),
(393,233,c),
(469,233,o),
(517,291,o),
(517,393,cs),
(517,516,o),
(426,563,o),
(279,563,cs),
(50,563,l),
(50,0,l)
);
},
{
closed = 1;
nodes = (
(190,451,l),
(242,451,ls),
(340,451,o),
(393,455,o),
(393,381,cs),
(393,314,o),
(351,321,o),
(260,321,cs),
(190,321,l)
);
}
);
width = 578;
}
);
unicode = 82;
},
{
glyphname = Racute;
kernLeft = R;
kernRight = R;
lastChange = "2023-04-06 14:15:41 +0000";
layers = (
{
background = {
shapes = (
{
closed = 1;
nodes = (
(95,0,l),
(95,253,l),
(381,253,o),
(402,278,o),
(402,59,c),
(402,-29,o),
(473,-8,o),
(473,-8,c),
(473,17,l),
(362,-21,o),
(510,266,o),
(313,266,c),
(409,266,o),
(449,337,o),
(449,407,c),
(449,530,o),
(373,563,o),
(232,563,c),
(68,563,l),
(68,0,l)
);
},
{
closed = 1;
nodes = (
(95,537,l),
(232,537,l),
(355,537,o),
(424,520,o),
(424,407,c),
(424,311,o),
(370,278,o),
(257,278,c),
(95,278,l)
);
},
{
closed = 1;
nodes = (
(323,711,l),
(323,722,l),
(293,722,l),
(236,616,l),
(236,610,l),
(252,610,l)
);
}
);
};
layerId = "D86F237C-A043-4FD6-9305-0CC5F899F330";
shapes = (
{
ref = R;
},
{
pos = (196,159);
ref = acutecomb;
}
);
width = 508;
},
{
background = {
shapes = (
{
closed = 1;
nodes = (
(190,0,l),
(190,223,l),
(342,237,o),
(348,194,o),
(348,130,cs),
(348,-20,o),
(470,-38,o),
(545,25,c),
(545,101,l),
(427,53,o),
(505,233,o),
(393,233,c),
(469,233,o),
(517,291,o),
(517,393,cs),
(517,516,o),
(426,563,o),
(279,563,cs),
(50,563,l),
(50,0,l)
);
},
{
closed = 1;
nodes = (
(190,451,l),
(242,451,ls),
(340,451,o),
(393,455,o),
(393,381,cs),
(393,314,o),
(351,321,o),
(260,321,cs),
(190,321,l)
);
},
{
closed = 1;
nodes = (
(379,702,l),
(379,724,l),
(264,724,l),
(225,627,l),
(225,610,l),
(287,610,l)
);
}
);
};
layerId = "F5474A38-5AEA-454E-84E5-A62166EBBEA7";
shapes = (
{
ref = R;
},
{
pos = (195,149);
ref = acutecomb;
}
);
width = 578;
}
);
unicode = 340;
},
{
glyphname = Rcaron;
kernLeft = R;
kernRight = R;
lastChange = "2023-04-13 13:34:59 +0000";
layers = (
{
background = {
shapes = (
{
closed = 1;
nodes = (
(95,0,l),
(95,253,l),
(381,253,o),
(402,278,o),
(402,59,c),
(402,-29,o),
(473,-8,o),
(473,-8,c),
(473,17,l),
(362,-21,o),
(510,266,o),
(313,266,c),
(409,266,o),
(449,337,o),
(449,407,c),
(449,530,o),
(373,563,o),
(232,563,c),
(68,563,l),
(68,0,l)
);
},
{
closed = 1;
nodes = (
(95,537,l),
(232,537,l),
(355,537,o),
(424,520,o),
(424,407,c),
(424,311,o),
(370,278,o),
(257,278,c),
(95,278,l)
);
},
{
closed = 1;
nodes = (
(233,610,l),
(247,610,l),
(378,746,l),
(346,746,l),
(240,631,l),
(134,746,l),
(103,746,l)
);
}
);
};
layerId = "D86F237C-A043-4FD6-9305-0CC5F899F330";
shapes = (
{
ref = R;
},
{
pos = (50,159);
ref = caroncomb;
}
);
width = 508;
},
{
background = {
shapes = (
{
closed = 1;
nodes = (
(190,0,l),
(190,223,l),
(342,237,o),
(348,194,o),
(348,130,cs),
(348,-20,o),
(470,-38,o),
(545,25,c),
(545,101,l),
(427,53,o),
(505,233,o),
(393,233,c),
(469,233,o),
(517,291,o),
(517,393,cs),
(517,516,o),
(426,563,o),
(279,563,cs),
(50,563,l),
(50,0,l)
);
},
{
closed = 1;
nodes = (
(190,451,l),
(242,451,ls),
(340,451,o),
(393,455,o),
(393,381,cs),
(393,314,o),
(351,321,o),
(260,321,cs),
(190,321,l)
);
},
{
closed = 1;
nodes = (
(233,618,l),
(291,618,l),
(436,754,l),
(297,754,l),
(262,675,l),
(230,754,l),
(87,754,l)
);
}
);
};
layerId = "F5474A38-5AEA-454E-84E5-A62166EBBEA7";
shapes = (
{
ref = R;
},
{
pos = (33,149);
ref = caroncomb;
}
);
width = 578;
}
);
unicode = 344;
},
{
glyphname = Rcommaaccent;
kernLeft = R;
kernRight = R;
lastChange = "2023-04-06 13:24:03 +0000";
layers = (
{
background = {
shapes = (
{
closed = 1;
nodes = (
(95,0,l),
(95,253,l),
(381,253,o),
(402,278,o),
(402,59,c),
(402,-29,o),
(473,-8,o),
(473,-8,c),
(473,17,l),
(362,-21,o),
(510,266,o),
(313,266,c),
(409,266,o),
(449,337,o),
(449,407,c),
(449,530,o),
(373,563,o),
(232,563,c),
(68,563,l),
(68,0,l)
);
},
{
closed = 1;
nodes = (
(95,537,l),
(232,537,l),
(355,537,o),
(424,520,o),
(424,407,c),
(424,311,o),
(370,278,o),
(257,278,c),
(95,278,l)
);
},
{
closed = 1;
nodes = (
(220,-199,ls),
(255,-199,o),
(264,-169,o),
(264,-107,cs),
(264,-81,o),
(260,-68,o),
(238,-68,cs),
(217,-68,o),
(212,-81,o),
(212,-96,cs),
(212,-121,o),
(225,-131,o),
(247,-126,c),
(247,-146,o),
(248,-169,o),
(217,-169,cs),
(206,-169,l),
(206,-199,l)
);
}
);
};
layerId = "D86F237C-A043-4FD6-9305-0CC5F899F330";
shapes = (
{
ref = R;
},
{
pos = (180,0);
ref = commaaccentcomb;
}
);
width = 508;
},
{
background = {
shapes = (
{
closed = 1;
nodes = (
(190,0,l),
(190,223,l),
(342,237,o),
(348,194,o),
(348,130,cs),
(348,-20,o),
(470,-38,o),
(545,25,c),
(545,101,l),
(427,53,o),
(505,233,o),
(393,233,c),
(469,233,o),
(517,291,o),
(517,393,cs),
(517,516,o),
(426,563,o),
(279,563,cs),
(50,563,l),
(50,0,l)
);
},
{
closed = 1;
nodes = (
(190,451,l),
(242,451,ls),
(340,451,o),
(393,455,o),
(393,381,cs),
(393,314,o),
(351,321,o),
(260,321,cs),
(190,321,l)
);
},
{
closed = 1;
nodes = (
(251,-296,ls),
(332,-296,o),
(364,-217,o),
(364,-135,cs),
(364,-55,o),
(334,-38,o),
(294,-38,cs),
(240,-38,o),
(220,-69,o),
(220,-109,cs),
(220,-148,o),
(240,-180,o),
(304,-180,c),
(304,-208,o),
(287,-211,o),
(251,-211,cs),
(220,-211,l),
(220,-296,l)
);
}
);
};
layerId = "F5474A38-5AEA-454E-84E5-A62166EBBEA7";
shapes = (
{
ref = R;
},
{
pos = (158,0);
ref = commaaccentcomb;
}
);
width = 578;
}
);
unicode = 342;
},
{
glyphname = S;
kernLeft = S;
kernRight = S;
lastChange = "2023-04-13 12:22:50 +0000";
layers = (
{
anchors = (
{
name = bottom;
pos = (248,0);
},
{
name = top;
pos = (248,563);
}
);
background = {
shapes = (
{
closed = 1;
nodes = (
(370,-14,o),
(458,38,o),
(461,128,c),
(467,352,o),
(79,243,o),
(84,435,c),
(86,499,o),
(158,548,o),
(259,548,c),
(318,548,o),
(433,520,o),
(429,398,c),
(456,398,l),
(460,513,o),
(371,573,o),
(260,573,c),
(153,573,o),
(60,521,o),
(57,435,c),
(51,220,o),
(443,324,o),
(437,128,c),
(436,108,o),
(424,11,o),
(264,11,c),
(57,11,o),
(60,158,o),
(60,166,c),
(33,166,l),
(36,40,o),
(148,-14,o),
(263,-14,c)
);
}
);
};
guides = (
{
pos = (264,-14);
},
{
angle = 90;
pos = (299,452);
}
);
layerId = "D86F237C-A043-4FD6-9305-0CC5F899F330";
shapes = (
{
closed = 1;
nodes = (
(370,-14,o),
(458,38,o),
(461,128,c),
(467,352,o),
(79,243,o),
(84,435,c),
(86,499,o),
(158,548,o),
(259,548,c),
(318,548,o),
(433,520,o),
(429,398,c),
(456,398,l),
(460,513,o),
(371,573,o),
(260,573,c),
(153,573,o),
(60,521,o),
(57,435,c),
(51,220,o),
(443,324,o),
(437,128,c),
(436,108,o),
(424,11,o),
(264,11,c),
(57,11,o),
(60,158,o),
(60,166,c),
(33,166,l),
(36,40,o),
(148,-14,o),
(263,-14,c)
);
}
);
width = 496;
},
{
anchors = (
{
name = bottom;
pos = (292,0);
},
{
name = top;
pos = (292,563);
}
);
background = {
shapes = (
{
closed = 1;
nodes = (
(431,-10,o),
(529,47,o),
(536,145,cs),
(553,378,o),
(187,293,o),
(187,398,cs),
(187,432,o),
(223,442,o),
(273,442,cs),
(319,442,o),
(394,432,o),
(394,370,c),
(529,370,l),
(528,508,o),
(413,573,o),
(289,573,cs),
(134,573,o),
(45,514,o),
(38,416,cs),
(22,186,o),
(380,257,o),
(380,161,cs),
(380,121,o),
(331,116,o),
(293,116,cs),
(179,116,o),
(163,178,o),
(163,194,c),
(23,194,l),
(23,46,o),
(155,-10,o),
(282,-10,cs)
);
}
);
};
guides = (
{
pos = (651,352);
},
{
pos = (328,563);
},
{
angle = 180;
pos = (537,193);
},
{
pos = (400,435);
}
);
layerId = "F5474A38-5AEA-454E-84E5-A62166EBBEA7";
shapes = (
{
closed = 1;
nodes = (
(431,-10,o),
(529,47,o),
(536,145,cs),
(553,378,o),
(187,293,o),
(187,398,cs),
(187,432,o),
(223,442,o),
(273,442,cs),
(319,442,o),
(394,432,o),
(394,370,c),
(529,370,l),
(528,508,o),
(413,573,o),
(289,573,cs),
(134,573,o),
(45,514,o),
(38,416,cs),
(22,186,o),
(380,257,o),
(380,161,cs),
(380,121,o),
(331,116,o),
(293,116,cs),
(179,116,o),
(163,178,o),
(163,194,c),
(23,194,l),
(23,46,o),
(155,-10,o),
(282,-10,cs)
);
}
);
width = 584;
}
);
unicode = 83;
},
{
glyphname = Sacute;
kernLeft = S;
kernRight = S;
lastChange = "2023-04-06 13:31:22 +0000";
layers = (
{
background = {
shapes = (
{
closed = 1;
nodes = (
(370,-14,o),
(458,38,o),
(461,128,c),
(467,352,o),
(79,243,o),
(84,435,c),
(86,499,o),
(158,548,o),
(259,548,c),
(318,548,o),
(433,520,o),
(429,398,c),
(456,398,l),
(460,513,o),
(371,573,o),
(260,573,c),
(153,573,o),
(60,521,o),
(57,435,c),
(51,220,o),
(443,324,o),
(437,128,c),
(436,108,o),
(424,11,o),
(264,11,c),
(57,11,o),
(60,158,o),
(60,166,c),
(33,166,l),
(36,40,o),
(148,-14,o),
(263,-14,c)
);
},
{
closed = 1;
nodes = (
(333,711,l),
(333,722,l),
(303,722,l),
(246,616,l),
(246,610,l),
(262,610,l)
);
}
);
};
layerId = "D86F237C-A043-4FD6-9305-0CC5F899F330";
shapes = (
{
ref = S;
},
{
pos = (201,159);
ref = acutecomb;
}
);
width = 496;
},
{
background = {
shapes = (
{
closed = 1;
nodes = (
(431,-10,o),
(529,47,o),
(536,145,cs),
(553,378,o),
(187,293,o),
(187,398,cs),
(187,432,o),
(223,442,o),
(273,442,cs),
(319,442,o),
(394,432,o),
(394,370,c),
(529,370,l),
(528,508,o),
(413,573,o),
(289,573,cs),
(134,573,o),
(45,514,o),
(38,416,cs),
(22,186,o),
(380,257,o),
(380,161,cs),
(380,121,o),
(331,116,o),
(293,116,cs),
(179,116,o),
(163,178,o),
(163,194,c),
(23,194,l),
(23,46,o),
(155,-10,o),
(282,-10,cs)
);
},
{
closed = 1;
nodes = (
(394,702,l),
(394,724,l),
(279,724,l),
(240,627,l),
(240,610,l),
(302,610,l)
);
}
);
};
layerId = "F5474A38-5AEA-454E-84E5-A62166EBBEA7";
shapes = (
{
ref = S;
},
{
pos = (229,149);
ref = acutecomb;
}
);
width = 584;
}
);
unicode = 346;
},
{
glyphname = Scaron;
kernLeft = S;
kernRight = S;
lastChange = "2023-04-13 13:35:00 +0000";
layers = (
{
background = {
shapes = (
{
closed = 1;
nodes = (
(370,-14,o),
(458,38,o),
(461,128,c),
(467,352,o),
(79,243,o),
(84,435,c),
(86,499,o),
(158,548,o),
(259,548,c),
(318,548,o),
(433,520,o),
(429,398,c),
(456,398,l),
(460,513,o),
(371,573,o),
(260,573,c),
(153,573,o),
(60,521,o),
(57,435,c),
(51,220,o),
(443,324,o),
(437,128,c),
(436,108,o),
(424,11,o),
(264,11,c),
(57,11,o),
(60,158,o),
(60,166,c),
(33,166,l),
(36,40,o),
(148,-14,o),
(263,-14,c)
);
},
{
closed = 1;
nodes = (
(246,610,l),
(260,610,l),
(391,746,l),
(359,746,l),
(253,631,l),
(147,746,l),
(116,746,l)
);
}
);
};
layerId = "D86F237C-A043-4FD6-9305-0CC5F899F330";
shapes = (
{
ref = S;
},
{
pos = (55,159);
ref = caroncomb;
}
);
width = 496;
},
{
background = {
shapes = (
{
closed = 1;
nodes = (
(431,-10,o),
(529,47,o),
(536,145,cs),
(553,378,o),
(187,293,o),
(187,398,cs),
(187,432,o),
(223,442,o),
(273,442,cs),
(319,442,o),
(394,432,o),
(394,370,c),
(529,370,l),
(528,508,o),
(413,573,o),
(289,573,cs),
(134,573,o),
(45,514,o),
(38,416,cs),
(22,186,o),
(380,257,o),
(380,161,cs),
(380,121,o),
(331,116,o),
(293,116,cs),
(179,116,o),
(163,178,o),
(163,194,c),
(23,194,l),
(23,46,o),
(155,-10,o),
(282,-10,cs)
);
},
{
closed = 1;
nodes = (
(262,618,l),
(320,618,l),
(465,754,l),
(326,754,l),
(291,675,l),
(259,754,l),
(116,754,l)
);
}
);
};
layerId = "F5474A38-5AEA-454E-84E5-A62166EBBEA7";
shapes = (
{
ref = S;
},
{
pos = (67,149);
ref = caroncomb;
}
);
width = 584;
}
);
unicode = 352;
},
{
glyphname = Scedilla;
kernLeft = S;
kernRight = S;
lastChange = "2023-04-06 14:17:05 +0000";
layers = (
{
background = {
shapes = (
{
closed = 1;
nodes = (
(370,-14,o),
(458,38,o),
(461,128,c),
(467,352,o),
(79,243,o),
(84,435,c),
(86,499,o),
(158,548,o),
(259,548,c),
(318,548,o),
(433,520,o),
(429,398,c),
(456,398,l),
(460,513,o),
(371,573,o),
(260,573,c),
(153,573,o),
(60,521,o),
(57,435,c),
(51,220,o),
(443,324,o),
(437,128,c),
(436,108,o),
(424,11,o),
(264,11,c),
(57,11,o),
(60,158,o),
(60,166,c),
(33,166,l),
(36,40,o),
(148,-14,o),
(263,-14,c)
);
},
{
closed = 1;
nodes = (
(218,-181,o),
(334,-160,o),
(334,-87,c),
(334,-19,o),
(240,-26,o),
(208,-62,c),
(249,0,l),
(228,9,l),
(191,-64,l),
(206,-80,l),
(245,-52,o),
(306,-45,o),
(310,-88,c),
(315,-143,o),
(215,-147,o),
(175,-98,c),
(160,-116,l)
);
}
);
};
layerId = "D86F237C-A043-4FD6-9305-0CC5F899F330";
shapes = (
{
ref = S;
},
{
pos = (142,0);
ref = cedillacomb;
}
);
width = 496;
},
{
background = {
shapes = (
{
closed = 1;
nodes = (
(431,-10,o),
(529,47,o),
(536,145,cs),
(553,378,o),
(187,293,o),
(187,398,cs),
(187,432,o),
(223,442,o),
(273,442,cs),
(319,442,o),
(394,432,o),
(394,370,c),
(529,370,l),
(528,508,o),
(413,573,o),
(289,573,cs),
(134,573,o),
(45,514,o),
(38,416,cs),
(22,186,o),
(380,257,o),
(380,161,cs),
(380,121,o),
(331,116,o),
(293,116,cs),
(179,116,o),
(163,178,o),
(163,194,c),
(23,194,l),
(23,46,o),
(155,-10,o),
(282,-10,cs)
);
},
{
closed = 1;
nodes = (
(258,-226,o),
(404,-201,o),
(404,-109,c),
(404,-33,o),
(300,-21,o),
(258,-52,c),
(294,9,l),
(234,32,l),
(188,-69,l),
(245,-95,l),
(267,-73,o),
(314,-83,o),
(313,-103,c),
(313,-146,o),
(211,-116,o),
(189,-101,c),
(150,-165,l)
);
}
);
};
layerId = "F5474A38-5AEA-454E-84E5-A62166EBBEA7";
shapes = (
{
ref = S;
},
{
pos = (135,-31);
ref = cedillacomb;
}
);
width = 584;
}
);
unicode = 350;
},
{
glyphname = Scommaaccent;
kernLeft = S;
kernRight = S;
lastChange = "2023-04-06 13:24:03 +0000";
layers = (
{
background = {
shapes = (
{
closed = 1;
nodes = (
(370,-14,o),
(458,38,o),
(461,128,c),
(467,352,o),
(79,243,o),
(84,435,c),
(86,499,o),
(158,548,o),
(259,548,c),
(318,548,o),
(433,520,o),
(429,398,c),
(456,398,l),
(460,513,o),
(371,573,o),
(260,573,c),
(153,573,o),
(60,521,o),
(57,435,c),
(51,220,o),
(443,324,o),
(437,128,c),
(436,108,o),
(424,11,o),
(264,11,c),
(57,11,o),
(60,158,o),
(60,166,c),
(33,166,l),
(36,40,o),
(148,-14,o),
(263,-14,c)
);
},
{
closed = 1;
nodes = (
(220,-199,ls),
(255,-199,o),
(264,-169,o),
(264,-107,cs),
(264,-81,o),
(260,-68,o),
(238,-68,cs),
(217,-68,o),
(212,-81,o),
(212,-96,cs),
(212,-121,o),
(225,-131,o),
(247,-126,c),
(247,-146,o),
(248,-169,o),
(217,-169,cs),
(206,-169,l),
(206,-199,l)
);
}
);
};
layerId = "D86F237C-A043-4FD6-9305-0CC5F899F330";
shapes = (
{
ref = S;
},
{
pos = (174,0);
ref = commaaccentcomb;
}
);
width = 496;
},
{
background = {
shapes = (
{
closed = 1;
nodes = (
(431,-10,o),
(529,47,o),
(536,145,cs),
(553,378,o),
(187,293,o),
(187,398,cs),
(187,432,o),
(223,442,o),
(273,442,cs),
(319,442,o),
(394,432,o),
(394,370,c),
(529,370,l),
(528,508,o),
(413,573,o),
(289,573,cs),
(134,573,o),
(45,514,o),
(38,416,cs),
(22,186,o),
(380,257,o),
(380,161,cs),
(380,121,o),
(331,116,o),
(293,116,cs),
(179,116,o),
(163,178,o),
(163,194,c),
(23,194,l),
(23,46,o),
(155,-10,o),
(282,-10,cs)
);
},
{
closed = 1;
nodes = (
(251,-296,ls),
(332,-296,o),
(364,-217,o),
(364,-135,cs),
(364,-55,o),
(334,-38,o),
(294,-38,cs),
(240,-38,o),
(220,-69,o),
(220,-109,cs),
(220,-148,o),
(240,-180,o),
(304,-180,c),
(304,-208,o),
(287,-211,o),
(251,-211,cs),
(220,-211,l),
(220,-296,l)
);
}
);
};
layerId = "F5474A38-5AEA-454E-84E5-A62166EBBEA7";
shapes = (
{
ref = S;
},
{
pos = (161,0);
ref = commaaccentcomb;
}
);
width = 584;
}
);
unicode = 536;
},
{
glyphname = Germandbls;
lastChange = "2023-04-26 08:15:34 +0000";
layers = (
{
layerId = "D86F237C-A043-4FD6-9305-0CC5F899F330";
shapes = (
{
closed = 1;
nodes = (
(460,-120,l),
(460,603,l),
(70,603,l),
(70,-120,l)
);
},
{
closed = 1;
nodes = (
(96,579,l),
(434,579,l),
(434,-96,l),
(96,-96,l)
);
}
);
width = 530;
},
{
layerId = "F5474A38-5AEA-454E-84E5-A62166EBBEA7";
shapes = (
{
closed = 1;
nodes = (
(536,-130,l),
(536,623,l),
(60,623,l),
(60,-130,l)
);
},
{
closed = 1;
nodes = (
(200,504,l),
(396,504,l),
(396,-11,l),
(200,-11,l)
);
}
);
width = 596;
}
);
unicode = 7838;
},
{
glyphname = T;
kernLeft = T;
kernRight = T;
lastChange = "2023-04-13 12:22:50 +0000";
layers = (
{
anchors = (
{
name = bottom;
pos = (217,0);
},
{
name = center;
pos = (217,282);
},
{
name = top;
pos = (217,563);
}
);
background = {
shapes = (
{
closed = 1;
nodes = (
(205,545,l),
(205,0,l),
(231,0,l),
(231,545,l)
);
},
{
closed = 1;
nodes = (
(425,538,l),
(425,563,l),
(10,563,l),
(10,538,l)
);
}
);
};
layerId = "D86F237C-A043-4FD6-9305-0CC5F899F330";
shapes = (
{
closed = 1;
nodes = (
(205,545,l),
(205,0,l),
(231,0,l),
(231,545,l)
);
},
{
closed = 1;
nodes = (
(425,538,l),
(425,563,l),
(10,563,l),
(10,538,l)
);
}
);
width = 434;
},
{
anchors = (
{
name = bottom;
pos = (240,0);
},
{
name = center;
pos = (240,282);
},
{
name = top;
pos = (240,563);
}
);
background = {
shapes = (
{
closed = 1;
nodes = (
(162,545,l),
(162,0,l),
(302,0,l),
(302,545,l)
);
},
{
closed = 1;
nodes = (
(455,444,l),
(455,563,l),
(10,563,l),
(10,444,l)
);
}
);
};
layerId = "F5474A38-5AEA-454E-84E5-A62166EBBEA7";
shapes = (
{
closed = 1;
nodes = (
(162,545,l),
(162,0,l),
(302,0,l),
(302,545,l)
);
},
{
closed = 1;
nodes = (
(455,444,l),
(455,563,l),
(10,563,l),
(10,444,l)
);
}
);
width = 480;
}
);
unicode = 84;
},
